<?xml version="1.0" encoding="utf-8"?>
<!-- Generator: Adobe Illustrator 24.0.1, SVG Export Plug-In . SVG Version: 6.00 Build 0)  -->
<svg version="1.1" id="Layer_1" xmlns="http://www.w3.org/2000/svg" xmlns:xlink="http://www.w3.org/1999/xlink" x="0px" y="0px"
	 viewBox="0 0 512 512" style="enable-background:new 0 0 512 512;" xml:space="preserve">
<style type="text/css">
	.st0{fill:#C72020;}
	.st1{filter:url(#Adobe_OpacityMaskFilter);}
	.st2{fill:none;stroke:#FFDA00;stroke-width:126.9143;stroke-miterlimit:10;}
	.st3{mask:url(#SVGID_1_);}
	.st4{fill:#3784CC;}
	.st5{fill:#FFFFFF;stroke:#000000;stroke-miterlimit:10;}
</style>
<g>
	<g>
		<g>
			<g>
				<g>
					<path class="st0" d="M52.2,331.7c0.1-0.2,0.2-0.3,0.3-0.5c0.2,0.3,0.2,0.7,0.1,1.2c2.5-4.9,1-11.2-1.5-15.4
						c0.1-1.5-0.7-2.8-1.7-2.9c-1-0.1-1.9,1-2,2.5c-0.1,0.3-0.2,0.7-0.4,1c-1.6,2.1-2.7,4.8-3.5,7.6c0.3-0.6,0.6-1.1,0.9-1.7
						c-0.2,0.8-0.5,1.7-0.5,2.6c0.2-0.1,0.4-0.2,0.6-0.3c-1.4,2.9-0.9,6.8,1.1,8.8c2,2,4.7,1.3,6-1.6L52.2,331.7z"/>
					<path class="st0" d="M58.2,326.4c-0.7,1.7-1.4,3.4-2.1,5l-0.4,0.3l1.6-0.1l-0.1,0c-1.3-1.5-1.9-4.1-2.2-6.4l-0.2-0.8
						c-0.2-0.4-0.5-0.7-0.8-0.8c-0.8-0.2-1.5,0.5-1.6,1.6l-0.1,1.3c-0.9,3.1-0.9,7.9,1.7,9.6c0.6,0.4,1.4,0,2.1,0c1,0.1,2-1,2-2.6
						c0.1-1.5-0.7-2.9-1.8-3c0.1-0.3,0.1-0.5,0.2-0.8c0.1,0.2,0.2,0.4,0.4,0.6c-0.9-0.4-1.1-1.8-1.6-2.9l-0.3-1.6l-2.4,0.9l0.3,0.8
						c0.1-0.1,0.3-0.2,0.3-0.2c0.7,1.5,1.3,3,1.8,4.7l0.9,2.1c0.5,0.6,1.2,0.5,1.6-0.1l0.5-0.9c-0.1,0.1-0.2,0.3-0.3,0.4
						c0.6-2.2,0.9-4.5,1.5-6.6c0.1-0.3,0-0.8-0.2-0.9C58.6,325.9,58.3,326,58.2,326.4z"/>
					<g>
						<path class="st0" d="M58.5,334.1c-0.2,0.4-0.4,0.7-0.3,1.2c0.1,0.1,0.2,0.2,0.2,0.2c0.1-0.2,0.3-0.4,0.4-0.7
							C59.1,334.3,58.9,334,58.5,334.1z"/>
						<path class="st0" d="M58.4,335.5c-0.1,0.2-0.2,0.3-0.2,0.3C58.3,335.7,58.4,335.6,58.4,335.5
							C58.4,335.5,58.4,335.5,58.4,335.5C58.4,335.5,58.4,335.5,58.4,335.5z"/>
						<path class="st0" d="M53.9,240.3c0.5-6.7,0.9-13.5,1.1-20.3c0-0.2-0.1-0.4-0.3-0.4c-0.1,0-0.3,0.2-0.3,0.4
							c-0.3,6.8-0.6,13.5-1.1,20.2c0,0.2,0.1,0.4,0.2,0.4C53.7,240.7,53.9,240.6,53.9,240.3z"/>
						<path class="st0" d="M69,189.9c0.1,0.2,0.3,0.2,0.4,0c0.1-0.1,0.1-0.4,0-0.6c-0.1-0.1-0.3-0.1-0.4,0
							C68.9,189.5,68.9,189.7,69,189.9z"/>
						<path class="st0" d="M80.9,191.3c0.2,0.9,0.5,1.8,0.9,2.6c0.1,0.1,0,0.3,0,0.4c0.2-0.1,0.5,0.1,0.6,0.5
							c2,6.7,2.8,13.9,3.9,21.1c0.2,0,0.4,0.1,0.6,0.3c0.6,0.5,0.9,1.5,0.8,2.5l-0.2,0.8c-0.4,3.1-0.6,6.2-1,9.3
							c0.3,0.6,0.5,1.4,0.5,2.2c0.8,2.7,1.5,5.4,2,8.1c0.2-0.2,0.4-0.3,0.6-0.3c0.5,0.1,0.9,0.7,0.9,1.4c0,0.4,0,0.8,0,1.1
							c0.1-1.1,0.3-2.2,0.4-3.2c0-0.2,0-0.3,0.1-0.4c0-1.2,0-2.4,0-3.6c-0.5-10.6-2.5-20.6-4.8-30.4c-0.1-0.2-0.1-0.4,0.1-0.6
							c0.1-0.1,0.3-0.1,0.4,0.1c2.6,6.2,6.1,11.6,7.8,18.7c2.1,8.4,3.8,16.7,5.1,25.3c0,9,1.3,17.3,2.2,26.5
							c1.3,12.4,1.5,24.1,1.6,36.2c0.4,4.5-1.8,8.7-4.9,9.3c-1.9,0.3-3.7-0.7-4.9-2.6c0,0.4,0,0.7,0,1.1l-0.4,1.8
							c-0.4,1.7-1.1,3.1-2.2,4l-1.3,1.2c-2.5,1.6-4.5,4.3-7.1,5.6l-1-0.3l-0.3,0.3c-0.7,1-1.6,1.7-2.6,2l-1.2-0.1
							c-1.4-0.2-2.6-0.7-3.8-1.6c-0.5,0-1-0.1-1.5-0.3c-1.2,0.7-2.5,1.1-3.9,0.5c-0.3,0.4-0.9,0.4-1.2-0.2c-0.1-0.2-0.2-0.4-0.2-0.6
							c0,0,0,0,0,0c-0.3,0.2-0.4,0.3-0.7,0.6c-0.1,0.4-0.2,0.7-0.2,0.7c-0.2,1.1-0.2,1.1-0.4,2.1c-0.4,0.8-1,1.4-1,1.4
							c-2.1,0.9-2.1,0.9-3,0.8c-0.1-0.1-0.2-0.1-0.3-0.2c-0.3,0.8-0.3,0.8-0.4,1c-0.2,0.2-0.4,0.4-0.4,0.4c-0.5,0-0.5,0-0.7,0.2
							c-0.2,0-0.4,0-0.4,0c-0.5-0.4-0.5-0.4-0.7-0.4c-0.1-0.1-0.3-0.2-0.3-0.2c-0.2-0.5-0.2-0.7-0.3-0.8c1.3-1.1,1.3-1.1,1.3-1.1
							c-0.4-0.2-0.4-0.2-0.4-0.2c0.6-0.2,0.6-0.2,0.6-0.2c-0.5,0.1-0.5,0.1-0.5,0.1c0.3-0.5,0.3-0.5,0.3-0.5
							c-0.5,0.6-0.5,0.6-0.5,0.6c0.2-1.3,0.2-1.3,0.2-1.8c0.1-0.5-0.1-1-0.1-1c-0.2,0-0.3,0-0.3,0c0.2-1.3,0.2-1.3,0.4-2.7
							c0.1-0.1,0.2-0.2,0.4-0.3c-0.1-0.1-0.2-0.4-0.2-0.6c0-0.2,0.1-0.5,0.1-0.7c0-0.1-0.1-0.1-0.1-0.1c0,0,0,0,0,0
							c-0.1-0.2-0.2-0.4-0.2-0.6c-0.1-0.1-0.1-0.1-0.1-0.1c0,0,0,0,0,0c-0.2-0.4-0.4-1-1.1-2.5c0.1-0.4,0.2-0.8,0.3-1.1
							c-0.1,0.1-0.2,0.2-0.2,0.3c-0.2,0.2-0.6,0-0.7,0.1c-1,2.9-1.4,6-1.9,9.1c0.1,0.6-0.2,1.1-0.6,1.2c-0.4,0.1-0.7-0.3-0.8-0.9
							c-2.5-6.3-2.2-14-0.2-20.4c0.2-1.7,0.5-3.4,0.7-5.1c-0.1,0.1-0.2,0.2-0.2,0.2c0.1-0.4,0.2-0.9,0.4-1.3c0,0,0-0.1,0-0.1
							c-0.3,0.3-0.6,0.7-0.9,1c-0.1,0.2-0.2,0.5-0.2,0.7c-0.4,4-1.7,7.6-2.5,11.4c-0.5,2.1-1.3,3.8-1.9,5.8c0,0.5-0.4,0.8-0.7,0.8
							c-0.3-0.1-0.6-0.5-0.5-1c-0.6-6.5,0-13.9,2.9-19.1c0-1.2,0.3-2.3,0.8-3.3c0,0,0,0,0-0.1c-0.2,0.2-0.5,0.5-0.7,0.7
							c0.2-0.9,0.8-1.4,1-2.2c-0.3,0.1-0.6,0.2-1,0.3c0.6-4.4,0.3-9.1,1.7-13.1c0-0.2,0.1-0.3,0.1-0.5c-0.7-1.7-1.3-3.5-1.4-5.6
							c-0.1,0.7-0.2,1.4-0.3,2.1c-0.4-1.5-0.7-3-0.7-4.6c0.1-4.3,1.6-9.2,4.1-11.5c-0.3-8.4-0.6-16.9-1.2-25.3
							c0-0.4,0.2-0.8,0.5-0.9c0.3,0,0.6,0.2,0.6,0.7c1,6,1.5,12.2,2,18.3c0.5-5.1,1-10.3,1.1-15.5c0-0.7-0.1-1.3-0.1-2
							c0-0.7,0-1.3,0.2-2c0-6.7,0.2-13.1-0.5-19.9c-0.6-5.8-1.3-11-2.2-16.8c-1.3-8.2-2.6-15.6-2.6-23.7c-0.1-1.1,0.4-2.1,1.2-2.2
							c0.7-0.1,1.4,0.6,1.5,1.7c2.3,16.8,5.1,33.4,4.7,51c0,1.9-0.1,3.8-0.1,5.6c0.1,0,0.2,0,0.3,0c0.4,0,0.8,0.2,1.1,0.5
							c0.1-2.1,0.3-4.2,0.5-6.4c-0.8-5.9-1.7-11.9-1.3-18.2c0.3-4.3,1.2-8.3,2-12.3c-0.5-5.1-1-10.2-1.4-15.3
							c-0.1-0.2,0-0.4,0.2-0.5c0.1-0.1,0.3,0,0.3,0.2c0.9,3.5,1.6,7.2,2.2,10.8c0.5-0.6,1.1-0.9,1.7-0.9c0.7,0,1.3,0.5,1.7,1.2
							c0-0.8,0-1.7,0-2.5c0-0.5,0.3-0.9,0.6-0.9c0.4,0,0.6,0.4,0.6,0.9c0,3.4-0.1,6.8-0.1,10.1c0.4,4.1,0.7,8.1,1,12.2
							c0.4-0.6,1-1,1.6-1.2c0,0,0,0,0,0c0-0.6,0-1.3-0.1-1.9c-1.9-11.5-2.9-23.2-2.6-35.1c0-0.2,0.1-0.4,0.3-0.4
							c0.2,0,0.3,0.2,0.3,0.4c-0.1,3.6-0.1,7.1,0,10.7c0,0,0,0,0,0c0.1-0.1,0.3-0.2,0.4,0c0.1,0.1,0.1,0.4,0,0.6
							c-0.1,0.2-0.3,0.1-0.4,0c0.3,6.6,0.9,13.2,1.9,19.7c-0.2-6-0.3-12.1,0-18.1c-0.2-0.7-0.4-1.3-0.6-2c0-0.2,0.1-0.4,0.2-0.5
							c0.1-0.1,0.3,0.1,0.3,0.3c0,0.2,0.1,0.4,0.1,0.6c0.1-1.1,0.7-2,1.5-2c0.8,0.1,1.5,1,1.4,2.2c0.2,3.2,0.2,6.3,0.3,9.5
							c0,0.3,0.1,0.7,0.1,1c0.1,0.3,0.3,0.7,0.4,1c0.3-4.9,0.7-9.8,1.1-14.7c0-0.4,0.2-0.8,0.5-0.8c0.3,0,0.5,0.3,0.5,0.7
							c1.2,8.6,1.9,17.3,2.5,26c1.2,2.9,2.5,5.7,3.7,8.7c0-0.4,0-0.7,0-1.1c0-9.5-3.5-17.6-4.3-26.7c0-0.2,0.1-0.4,0.2-0.5
							c0.1,0,0.3,0.1,0.3,0.4c0.5,4.5,1.7,8.6,2.5,13c0.7,3.7,1.4,7.2,2.3,10.6c-0.3-7-1.9-13.7-2.6-20.7c-0.1-0.3,0-0.6,0.2-0.8
							c-0.1,0-0.2-0.1-0.2-0.2c-0.4-0.9-0.7-1.8-0.9-2.8c-0.1-0.2,0-0.4,0.2-0.5C80.6,191,80.8,191.1,80.9,191.3z M63.9,313.2
							c-0.1,0.1-0.1,0.1-0.2,0.2c0.1-0.2,0.2-0.4,0.3-0.6c0,0,0,0,1.2-0.9C65.2,311.9,64.5,312.6,63.9,313.2z M68.2,323.9
							C68.2,323.9,68.2,323.9,68.2,323.9c-0.4,0.3-0.7,0.5-0.7,0.5C67.8,324.2,68,324.1,68.2,323.9z M58,255.4c0,3.7-0.3,7.3-1,11
							c-0.1-0.9-0.1-1.8-0.2-2.7C57.1,261,57.5,258.2,58,255.4z M59.4,320.4c0.6-1,1.4-1.7,2.1-2.4c-0.1-0.6-0.2-1.3-0.2-2
							c0.1-1.8,0.2-3.6,0.5-5.3c-0.4,0.2-0.4-0.2-0.4-0.4c0-0.2-0.1-0.4-0.1-0.7c-0.3,1.9-0.6,3.7-1,5.6
							C60.1,316.9,59.9,318.8,59.4,320.4z M61,333.4c-0.1,0.1-0.1,0.1-0.2,0.2c0,0,0,0-0.6-0.3C60.3,333.2,60.6,333.3,61,333.4z
							 M62.1,333.9c0-0.1,0.1-0.2,0.1-0.3C62.4,333.7,62.3,333.8,62.1,333.9z M62.8,331.5c-0.2,0.1-0.3,0.2-0.3,0.3
							C62.8,331.5,62.8,331.5,62.8,331.5z M81,329.7l-3.1-1l3,1L81,329.7z"/>
					</g>
				</g>
			</g>
		</g>
	</g>
	<g>
		<g>
			<g>
				<g>
					<path class="st0" d="M67.7,155.7c0.2-0.1,0.5-0.1,0.7-0.2c-0.2,0.4-0.7,0.8-1.3,1.2c7.1-2.3,13.4-9.1,16.5-14.8
						c1.7-1.2,2.8-3,2.3-3.9c-0.5-0.9-2.3-0.7-4,0.6c-0.4,0.2-0.9,0.5-1.3,0.5c-3.4,0.6-7,2.1-10.8,4c0.8-0.3,1.7-0.5,2.5-0.8
						c-1.1,0.5-2.2,1.1-3.3,1.9c0.2,0.1,0.5,0.1,0.7,0.2c-4.1,1.5-8.3,5.3-9.3,8.6c-1.1,3.3,1.4,4.8,5.5,3.4L67.7,155.7z"/>
					<path class="st0" d="M77.4,155.7c-2.4,1-4.7,1.9-7,2.7l-0.6,0l1.1,1.2l0-0.1c0.9-2.4,3.5-5.1,5.9-7.5l0.8-0.9
						c0.3-0.5,0.4-1,0.3-1.3c-0.2-0.8-1.5-0.7-2.8,0.2l-1.5,1c-4,2-9.6,6.2-9.9,9.9c-0.1,0.8,0.8,1.2,1.3,1.6
						c0.5,0.9,2.4,0.6,4.2-0.7c1.8-1.3,2.8-3.1,2.3-4c0.3-0.2,0.7-0.4,1-0.5c-0.1,0.3-0.3,0.6-0.5,0.8c-0.1-1.1,1.4-2.5,2.3-3.8
						l1.6-1.6l-2.5-1.2l-0.7,1c0.1,0,0.4,0,0.4,0.1c-1.3,1.9-2.6,3.7-4.2,5.5l-1.9,2.6c-0.4,0.9,0.1,1.4,1.1,1.2l1.4-0.4
						c-0.2,0-0.4,0.1-0.7,0.1c2.8-1.5,5.6-3.3,8.4-4.7c0.5-0.2,0.9-0.7,0.9-1C78.3,155.5,77.9,155.4,77.4,155.7z"/>
					<g>
						<path class="st0" d="M68.9,162.7c-0.5,0.2-1,0.3-1.6,0.8c-0.1,0.2-0.1,0.3-0.1,0.3c0.3-0.1,0.7-0.2,1-0.3
							C69,163.4,69.2,162.9,68.9,162.7z"/>
						<path class="st0" d="M67.2,163.8c-0.3,0.1-0.4,0.1-0.4,0.1c0.1,0,0.2,0,0.4,0C67.2,163.9,67.2,163.9,67.2,163.8
							C67.2,163.9,67.2,163.9,67.2,163.8z"/>
						<path class="st0" d="M172.5,76.3c8-5.5,15.9-11.2,23.7-17c0.3-0.2,0.4-0.4,0.3-0.6c-0.1-0.1-0.4-0.1-0.6,0.1
							c-7.9,5.8-15.7,11.4-23.7,17c-0.3,0.2-0.4,0.4-0.4,0.6C172,76.5,172.2,76.5,172.5,76.3z"/>
						<path class="st0" d="M239.1,43.6c-0.1,0.2,0,0.4,0.2,0.3c0.2-0.1,0.5-0.3,0.6-0.5c0.1-0.2,0-0.3-0.2-0.3
							C239.4,43.2,239.2,43.4,239.1,43.6z"/>
						<path class="st0" d="M244.7,54.3c-0.9,1-1.8,2-2.5,3c-0.1,0.2-0.3,0.3-0.5,0.4c0.2,0.1,0.1,0.5-0.2,0.9
							c-6.4,7.5-14.1,14.5-21.5,21.7c0.1,0.2,0.1,0.4,0,0.7c-0.2,0.9-1.1,2-2.3,2.9l-1,0.6c-3.8,2.5-7.5,5-11.2,7.5
							c-0.6,0.8-1.3,1.6-2.1,2.3c-2.6,3-5.2,5.9-8,8.8c0.3,0,0.5,0,0.7,0.2c0.3,0.5-0.2,1.3-1.1,2c-0.4,0.3-0.8,0.7-1.3,1
							c1.3-0.9,2.6-1.7,3.9-2.5c0.2-0.1,0.4-0.2,0.5-0.3c1.4-1,2.7-2.1,4.1-3.2c11.7-9.7,21.8-20.1,31.6-30.6
							c0.1-0.2,0.4-0.4,0.7-0.5c0.2,0,0.3,0.2,0.1,0.4c-5.5,7.6-9.4,15.1-16.4,22.7c-8.2,9-16.6,17.7-25.5,26.4
							c-10.2,7.9-18.9,16.3-28.7,25.1c-13.3,11.9-26.4,22.4-40.1,33.2c-4.9,4.3-11,6.3-13.5,4.4c-1.5-1.2-1.5-3.5-0.1-6.1
							c-0.4,0.3-0.9,0.6-1.3,0.9l-2.2,1.3c-2.1,1.2-4.2,1.8-5.9,1.8l-2.2,0.1c-3.4-0.5-7.7,0.2-10.8-0.7l-0.3-1l-0.5,0.1
							c-1.6,0.4-3,0.2-3.9-0.3l-0.6-1c-0.6-1.3-0.8-2.7-0.5-4.4c-0.3-0.4-0.5-0.8-0.6-1.4c-1.6-0.3-2.7-1-2.9-2.6
							c-0.7,0.1-0.9-0.4-0.5-1.1c0.1-0.2,0.3-0.5,0.6-0.7c0,0,0,0,0,0c-0.5,0-0.6,0-1.2,0c-0.5,0.3-0.9,0.5-0.9,0.5
							c-1.4,0.8-1.4,0.8-2.7,1.6c-1.2,0.4-2.2,0.4-2.2,0.4c-2.4-0.8-2.4-0.8-2.8-1.7c0-0.1,0-0.2,0-0.4c-1,0.4-1.1,0.5-1.4,0.6
							c-0.3,0.1-0.6,0-0.6,0c-0.3-0.4-0.3-0.4-0.6-0.4c-0.2-0.1-0.3-0.3-0.3-0.3c0.1-0.8,0.1-0.8,0.1-0.9c0-0.2,0.1-0.4,0.1-0.4
							c0.5-0.6,0.6-0.8,0.7-0.9c2,0.1,2,0.1,2,0.1c0-0.5,0-0.5,0-0.5c0.6,0.2,0.6,0.2,0.6,0.2c-0.5-0.3-0.5-0.3-0.5-0.3
							c0.8-0.2,0.8-0.2,0.8-0.2c-1,0.2-1,0.2-1,0.2c1.6-1,1.6-1,2.1-1.4c0.6-0.4,1.1-0.9,1.1-1c-0.2-0.1-0.2-0.2-0.2-0.2
							c1.7-1,1.7-1,3.3-2c0.2,0,0.4,0,0.6,0c0.1-0.2,0.3-0.5,0.6-0.7c0.3-0.2,0.6-0.4,0.8-0.5c0-0.1,0.1-0.1,0.1-0.2c0,0,0,0,0,0
							c0.2-0.3,0.3-0.5,0.5-0.7c0.1-0.1,0.1-0.2,0.1-0.2c0,0,0,0,0,0c0.3-0.5,0.9-1.2,2.2-3.1c0.5-0.3,1-0.6,1.5-0.8
							c-0.2,0-0.4,0.1-0.5,0.1c-0.3,0.1-0.4-0.5-0.6-0.4c-3.9,1.8-7.7,4.2-11.5,6.5c-0.6,0.5-1.4,0.8-1.7,0.5
							c-0.3-0.2-0.1-0.9,0.5-1.4c5.6-7.5,14.5-14,23.1-18.1c2.1-1.3,4.1-2.6,6.2-4c-0.1,0-0.3,0-0.4,0c0.6-0.3,1.2-0.6,1.7-0.9
							c0.1,0,0.1-0.1,0.2-0.1c-0.6,0.1-1.1,0.1-1.7,0.2c-0.3,0.1-0.6,0.3-0.9,0.4c-4.7,3.2-9.6,5.3-14.5,8.1
							c-2.6,1.5-5.1,2.4-7.7,3.6c-0.6,0.4-1.2,0.5-1.3,0.1c-0.1-0.3,0.2-0.9,0.8-1.3c7-6.2,15.8-12.3,23.5-14.6
							c1.4-1,2.8-1.9,4.2-2.3c0,0,0,0,0.1,0c-0.4,0-0.8,0-1.3,0.1c1.1-0.6,2-0.6,3.1-1.1c-0.3-0.2-0.6-0.3-0.9-0.5
							c5.3-3.4,10.5-7.8,16-10.2c0.2-0.1,0.4-0.2,0.6-0.3c1.6-2.1,3.2-4.2,5.5-6c-0.9,0.5-1.7,1.1-2.6,1.6c1.4-1.7,3-3.2,4.8-4.6
							c5-3.8,11.4-6.9,15.6-6.9c9.4-7.7,18.8-15.3,28-23.2c0.5-0.4,1-0.6,1.3-0.4c0.2,0.2,0.1,0.7-0.4,1.1
							c-6.2,6.1-12.9,11.9-19.5,17.7c6.1-4.1,12.3-8.3,18.3-12.9c0.7-0.6,1.5-1.3,2.2-1.9c0.7-0.6,1.5-1.1,2.4-1.6
							c7.6-5.9,15-11.4,22.3-18c6.3-5.7,11.7-10.7,17.7-16.5c8.5-8.2,16.2-15.8,25.3-22.9c1.2-1,2.6-1.5,3.2-1
							c0.6,0.5,0.1,1.7-1,2.7c-17.7,16.7-34.8,33.5-55,48.7c-2.2,1.6-4.3,3.3-6.5,4.9c0.1,0.1,0.2,0.1,0.2,0.2
							c0.2,0.3,0.3,0.8,0.1,1.3c2.5-1.8,5-3.5,7.5-5.3c6.2-5.9,12.5-11.8,19.9-17.1c5.1-3.6,10.1-6.4,15.2-9.3
							c5.5-4.9,10.9-9.8,16.5-14.7c0.2-0.2,0.5-0.4,0.7-0.3c0.2,0,0.1,0.3-0.1,0.5c-3.5,3.8-7.1,7.6-10.9,11.3c0.9-0.1,1.7,0,2,0.6
							c0.4,0.6,0.2,1.4-0.3,2.4c1-0.7,1.9-1.4,2.9-2.2c0.6-0.4,1.2-0.6,1.4-0.3c0.2,0.3-0.1,0.9-0.6,1.3c-3.9,3-7.7,5.9-11.6,8.8
							c-4.4,3.9-8.8,7.7-13.2,11.5c0.9-0.1,1.7-0.1,2.3,0.2c0,0,0,0,0,0c0.7-0.6,1.4-1.1,2.1-1.7c11.9-11.6,24.6-22.8,38.2-33
							c0.3-0.2,0.6-0.3,0.7-0.2c0.1,0.1,0,0.4-0.3,0.6c-4.1,3.1-8.2,6.2-12.1,9.5c0,0,0,0,0,0c0.2-0.1,0.4,0.1,0.2,0.3
							c-0.1,0.2-0.4,0.4-0.6,0.5c-0.3,0.1-0.3-0.1-0.2-0.3c-7.4,6-14.4,12.4-21.2,18.8c6.7-5.4,13.5-10.8,20.6-15.9
							c0.6-0.7,1.2-1.5,1.9-2.2c0.2-0.2,0.5-0.3,0.7-0.3c0.1,0.1,0.1,0.3-0.1,0.5c-0.2,0.2-0.4,0.4-0.5,0.6c1.3-1,2.7-1.2,3.2-0.6
							c0.4,0.7-0.3,2.1-1.6,3.1c-3.5,2.9-7,5.8-10.6,8.6c-0.4,0.3-0.7,0.7-1.1,1c-0.3,0.4-0.6,0.8-0.9,1.2
							c5.8-4.1,11.6-8.1,17.4-12.1c0.5-0.4,1-0.5,1.2-0.3c0.2,0.2,0,0.7-0.5,1.1c-9,8.5-18.4,16.8-28,24.9c-2.5,3.5-5,7-7.6,10.6
							c0.4-0.3,0.9-0.6,1.3-1C225,72,232,62.1,242,53.5c0.2-0.2,0.5-0.3,0.7-0.2c0.1,0.1,0,0.3-0.2,0.6c-4.8,4.3-8.7,8.9-13.2,13.5
							c-3.8,3.8-7.3,7.4-10.7,11.2c7.8-6.5,14.4-13.6,21.9-20.3c0.3-0.3,0.7-0.5,1-0.6c0-0.1,0-0.2,0.1-0.3c0.7-1.1,1.6-2.1,2.6-3.2
							c0.2-0.2,0.5-0.4,0.7-0.3C244.9,53.8,244.9,54,244.7,54.3z M95.9,148.5c-0.1,0-0.2,0-0.3,0c0.3-0.1,0.6-0.2,0.9-0.3
							c0,0,0,0,1.7,0.2C98.1,148.4,97,148.5,95.9,148.5z M86.3,161.4C86.3,161.4,86.3,161.4,86.3,161.4c-0.6-0.1-1-0.1-1-0.1
							C85.7,161.3,86.1,161.4,86.3,161.4z M157.9,92.8c-4.2,3.2-8.5,6.2-13.1,8.9c1-0.8,1.9-1.7,2.9-2.5
							C151,97,154.4,94.9,157.9,92.8z M85,151.4c1.5-0.4,2.8-0.4,4.1-0.5c0.6-0.7,1.4-1.3,2.2-1.9c2.1-1.5,4.2-3,6.3-4.3
							c-0.5-0.1,0-0.5,0.2-0.7c0.2-0.2,0.5-0.4,0.7-0.7c-2.3,1.4-4.6,2.8-7,4.2C89.3,148.8,87.1,150.3,85,151.4z M71.2,164.1
							c-0.1,0-0.2,0-0.3,0c0,0,0,0,0-0.8C71,163.3,71.1,163.6,71.2,164.1z M71.2,165.4c0.1-0.1,0.2-0.1,0.4-0.2
							C71.6,165.5,71.5,165.5,71.2,165.4z M74.5,163.8c-0.3,0-0.4,0-0.6,0C74.5,163.8,74.5,163.8,74.5,163.8z M87.6,176.6l-0.8-3.3
							l0.6,3.3L87.6,176.6z"/>
					</g>
				</g>
			</g>
		</g>
	</g>
	<g>
		<g>
			<g>
				<g>
					<path class="st0" d="M275.5,23.7c0.1,0.2,0.2,0.4,0.3,0.7c-0.5-0.1-1-0.5-1.5-1c4,6.3,12.2,10.7,18.4,12.4
						c1.6,1.4,3.6,2,4.4,1.3c0.8-0.7,0.1-2.4-1.5-3.8c-0.3-0.4-0.7-0.8-0.9-1.1c-1.5-3.1-3.8-6.3-6.5-9.5c0.4,0.7,0.9,1.5,1.4,2.2
						c-0.8-0.9-1.6-1.9-2.6-2.7c0,0.2,0,0.5,0,0.7c-2.4-3.6-7.2-6.7-10.6-6.9c-3.5-0.2-4.3,2.5-1.9,6.1L275.5,23.7z"/>
					<path class="st0" d="M277.9,33.2c-1.5-2-3-4.1-4.4-6.1l-0.2-0.6l-0.8,1.3l0.1-0.1c2.6,0.3,5.8,2.1,8.7,3.9l1.1,0.6
						c0.6,0.2,1.1,0.2,1.4,0c0.7-0.4,0.3-1.6-0.9-2.7l-1.3-1.2c-2.9-3.4-8.4-7.7-12-7.1c-0.8,0.1-0.9,1.1-1.3,1.7
						c-0.8,0.7,0,2.5,1.7,3.9c1.7,1.4,3.7,2,4.4,1.2c0.2,0.3,0.5,0.6,0.8,0.9c-0.3-0.1-0.6-0.2-0.9-0.2c1.1-0.3,2.8,0.7,4.2,1.3
						l1.9,1.2l0.5-2.7l-1.1-0.5c0,0.1,0,0.4,0,0.4c-2.2-0.8-4.2-1.6-6.4-2.7l-3-1.2c-0.9-0.1-1.3,0.5-0.8,1.3l0.7,1.3
						c-0.1-0.2-0.2-0.4-0.3-0.6c2.1,2.4,4.5,4.6,6.6,7c0.3,0.4,0.8,0.7,1.2,0.6C278.2,33.9,278.2,33.6,277.9,33.2z"/>
					<g>
						<path class="st0" d="M269,26.6c-0.3-0.5-0.5-0.9-1.1-1.3c-0.2,0-0.3,0-0.4,0c0.1,0.3,0.3,0.6,0.5,0.9
							C268.4,26.9,268.8,26.9,269,26.6z"/>
						<path class="st0" d="M267.5,25.3c-0.1-0.2-0.2-0.4-0.2-0.4c0,0.1,0.1,0.2,0.1,0.4C267.4,25.3,267.4,25.3,267.5,25.3
							C267.4,25.3,267.4,25.3,267.5,25.3z"/>
						<path class="st0" d="M378.2,105.7c7.3,6.4,14.8,12.6,22.3,18.8c0.3,0.2,0.5,0.3,0.6,0.2c0.1-0.1,0-0.4-0.3-0.5
							c-7.5-6.2-14.9-12.4-22.3-18.8c-0.3-0.2-0.5-0.3-0.7-0.2C377.9,105.3,378,105.5,378.2,105.7z"/>
						<path class="st0" d="M426.3,162.2c-0.3-0.1-0.3,0.1-0.2,0.3c0.1,0.2,0.4,0.4,0.6,0.5c0.2,0,0.3-0.1,0.2-0.3
							C426.8,162.4,426.5,162.2,426.3,162.2z"/>
						<path class="st0" d="M417.4,170.3c-1.2-0.7-2.4-1.3-3.5-1.6c-0.2-0.1-0.4-0.2-0.5-0.4c-0.1,0.2-0.4,0.3-0.9,0
							c-8.9-4.3-17.6-10.1-26.3-15.5c-0.2,0.1-0.4,0.2-0.7,0.2c-0.9,0-2.3-0.6-3.3-1.6l-0.8-0.8c-3.3-3-6.7-6-10-9.1
							c-0.9-0.3-1.8-0.8-2.8-1.5c-3.5-1.8-7-3.6-10.5-5.6c0.1,0.3,0.1,0.5,0,0.7c-0.4,0.4-1.3,0.1-2.2-0.6c-0.4-0.3-0.9-0.6-1.3-1
							c1.1,1.1,2.3,2.1,3.4,3.2c0.2,0.1,0.3,0.3,0.4,0.4c1.3,1.1,2.7,2.1,4.1,3.1c12.3,9,24.9,16.2,37.5,23.1
							c0.2,0.1,0.5,0.3,0.6,0.5c0,0.2-0.1,0.3-0.3,0.2c-8.7-3.4-16.9-5.4-26-10.3c-10.8-5.8-21.3-11.7-31.8-18.2
							c-10.2-7.9-20.4-14.3-31.4-21.6c-14.8-9.9-28.3-20.1-42.1-30.7c-5.4-3.7-8.8-9.1-7.6-12c0.8-1.8,3-2.3,5.9-1.6
							c-0.4-0.3-0.8-0.7-1.2-1l-1.8-1.8c-1.7-1.8-2.8-3.6-3.2-5.2l-0.6-2.1c-0.3-3.4-2.1-7.4-2-10.6l0.9-0.5l-0.2-0.5
							c-0.7-1.5-1-2.8-0.6-3.8l0.8-0.8c1.1-0.9,2.4-1.4,4.1-1.6c0.3-0.4,0.7-0.7,1.2-0.9c-0.1-1.6,0.3-2.9,1.8-3.5
							c-0.3-0.7,0.1-1,0.9-0.8c0.3,0.1,0.5,0.2,0.8,0.4c0,0,0,0,0,0c-0.1-0.5-0.1-0.6-0.3-1.1c-0.4-0.5-0.7-0.7-0.7-0.7
							c-1.2-1.2-1.2-1.2-2.2-2.2c-0.7-1.1-0.9-2-0.9-2c0.2-2.5,0.2-2.5,1-3.1c0.1,0,0.2,0,0.4,0c-0.7-0.9-0.7-1-0.9-1.2
							c-0.1-0.3-0.2-0.6-0.2-0.6c0.3-0.4,0.3-0.4,0.2-0.7c0.1-0.2,0.2-0.3,0.2-0.3c0.8-0.1,0.8-0.1,0.9-0.2c0.2,0,0.4,0,0.4,0
							c0.7,0.3,0.9,0.4,1,0.5c0.4,1.9,0.4,1.9,0.4,1.9c0.5-0.1,0.5-0.1,0.5-0.1c-0.1,0.7-0.1,0.7-0.1,0.7c0.2-0.5,0.2-0.5,0.2-0.5
							c0.4,0.7,0.4,0.7,0.4,0.7c-0.4-0.9-0.4-0.9-0.4-0.9c1.3,1.3,1.3,1.3,1.9,1.7c0.6,0.5,1.1,0.8,1.2,0.8c0.1-0.2,0.1-0.3,0.1-0.3
							c1.4,1.4,1.4,1.4,2.8,2.7c0.1,0.2,0.1,0.4,0.1,0.5c0.2,0,0.6,0.2,0.8,0.4c0.2,0.2,0.5,0.5,0.7,0.7c0.1,0,0.1,0,0.2,0.1
							c0,0,0,0,0,0c0.3,0.1,0.6,0.2,0.8,0.3c0.2,0.1,0.2,0.1,0.2,0.1c0,0,0,0,0,0c0.6,0.2,1.4,0.5,3.5,1.4c0.4,0.4,0.8,0.8,1.1,1.2
							c-0.1-0.2-0.2-0.3-0.2-0.5c-0.1-0.3,0.4-0.5,0.3-0.7c-2.7-3.3-6-6.4-9.2-9.6c-0.7-0.4-1.1-1.1-0.9-1.5
							c0.2-0.4,0.8-0.3,1.5,0.2c8.7,3.5,17.2,10.6,23.3,17.9c1.8,1.7,3.6,3.4,5.4,5c0-0.1-0.1-0.3-0.1-0.4c0.4,0.5,0.9,1,1.3,1.5
							c0,0,0.1,0.1,0.2,0.1c-0.2-0.5-0.4-1-0.6-1.6c-0.2-0.3-0.4-0.5-0.6-0.8c-4.3-3.8-7.6-8-11.4-12.1c-2.1-2.2-3.6-4.4-5.4-6.6
							c-0.5-0.5-0.7-1-0.5-1.3c0.3-0.2,0.9,0,1.5,0.5c7.7,5.3,15.8,12.2,19.9,19.1c1.3,1.1,2.5,2.3,3.2,3.5c0,0,0,0,0.1,0.1
							c-0.1-0.4-0.3-0.8-0.4-1.2c0.9,0.9,1.1,1.8,1.8,2.7c0.1-0.3,0.2-0.7,0.3-1c4.6,4.3,10.1,8.3,13.9,13c0.2,0.2,0.3,0.3,0.5,0.5
							c2.4,1,4.8,2,7.2,3.8c-0.7-0.7-1.4-1.4-2.2-2.1c2,1,3.8,2.1,5.6,3.5c4.9,3.9,9.5,9.4,10.5,13.4c9.8,7.2,19.5,14.5,29.4,21.4
							c0.5,0.3,0.8,0.9,0.7,1.2c-0.1,0.3-0.6,0.2-1.1-0.1c-7.5-4.5-14.7-9.5-22-14.6c5.5,4.9,11.1,9.8,17,14.6
							c0.8,0.6,1.6,1.1,2.4,1.7c0.8,0.6,1.5,1.2,2.2,1.9c7.6,5.9,14.7,11.7,23,17.2c7,4.7,13.2,8.7,20.4,13.1
							c10.1,6.2,19.3,11.8,28.5,18.9c1.3,0.9,2.1,2.2,1.8,2.9c-0.3,0.7-1.6,0.5-2.9-0.3c-20.5-13.1-41-25.5-60.8-41.3
							c-2.1-1.7-4.2-3.4-6.3-5.1c0,0.1-0.1,0.2-0.1,0.3c-0.2,0.3-0.7,0.5-1.2,0.4c2.3,1.9,4.7,3.9,6.9,6c7.3,4.6,14.5,9.2,21.5,15.1
							c4.7,4.1,8.7,8.2,12.7,12.4c6.1,4.1,12.2,8.2,18.3,12.4c0.3,0.1,0.5,0.4,0.5,0.6c0,0.2-0.2,0.2-0.5,0.1
							c-4.6-2.4-9.1-5.1-13.7-7.8c0.4,0.9,0.4,1.6-0.1,2.1c-0.5,0.5-1.3,0.6-2.4,0.3c0.9,0.7,1.9,1.5,2.8,2.2c0.6,0.5,0.9,1,0.6,1.3
							c-0.2,0.3-0.9,0.1-1.4-0.3c-3.8-3-7.6-6-11.4-9.1c-4.8-3.3-9.6-6.6-14.4-10c0.4,0.9,0.5,1.7,0.3,2.3c0,0,0,0,0,0
							c0.7,0.5,1.4,1.1,2.2,1.6c14.2,8.6,28.2,18.2,41.4,28.9c0.3,0.2,0.4,0.5,0.3,0.6c-0.1,0.1-0.4,0.1-0.6-0.1
							c-4-3.2-8-6.4-12.2-9.4c0,0,0,0,0,0c0.1,0.2,0,0.4-0.2,0.3c-0.2,0-0.5-0.3-0.6-0.5c-0.1-0.2,0-0.4,0.2-0.3
							c-7.7-5.6-15.5-10.9-23.5-15.9c6.9,5.2,13.8,10.4,20.5,16c0.9,0.4,1.7,0.8,2.6,1.3c0.2,0.1,0.4,0.4,0.4,0.6
							c0,0.1-0.3,0.2-0.5,0c-0.2-0.1-0.5-0.2-0.7-0.4c1.3,1.1,1.9,2.3,1.3,3c-0.6,0.6-2.1,0.2-3.4-0.8c-3.7-2.7-7.3-5.4-10.9-8.2
							c-0.4-0.3-0.8-0.5-1.3-0.8c-0.5-0.2-0.9-0.4-1.4-0.6c5.4,4.6,10.7,9.2,16,13.9c0.5,0.4,0.7,0.9,0.6,1.1
							c-0.2,0.2-0.7,0.1-1.2-0.2c-10.5-6.7-20.8-13.7-31.1-21c-4-1.6-8.1-3.1-12.1-4.7c0.4,0.3,0.8,0.7,1.2,1
							c10.8,8.4,22.1,12.7,33,20.3c0.3,0.2,0.4,0.4,0.4,0.6c-0.1,0.1-0.3,0.1-0.6-0.1c-5.4-3.6-10.8-6.2-16.4-9.5
							c-4.6-2.7-9-5.3-13.5-7.6c8.2,5.9,16.7,10.6,25,16.2c0.4,0.2,0.7,0.5,0.8,0.8c0.1,0,0.2-0.1,0.3,0c1.2,0.5,2.5,1.1,3.7,1.7
							c0.3,0.1,0.5,0.4,0.5,0.6C417.9,170.4,417.7,170.4,417.4,170.3z M289.4,49.2c0-0.1-0.1-0.2-0.1-0.3c0.2,0.2,0.3,0.5,0.5,0.8
							c0,0,0,0,0.3,1.7C290.1,51.4,289.7,50.3,289.4,49.2z M274.5,43.2C274.6,43.2,274.6,43.2,274.5,43.2c-0.1-0.5-0.1-0.9-0.1-0.9
							C274.5,42.6,274.5,42.9,274.5,43.2z M358.6,95.6c-4.2-3.3-8.1-6.7-11.8-10.5c1,0.7,2.1,1.5,3.1,2.2
							C352.9,90,355.7,92.8,358.6,95.6z M283.9,39.4c0.7,1.3,1.1,2.6,1.5,3.8c0.8,0.5,1.6,1,2.3,1.6c2,1.7,3.9,3.4,5.8,5.1
							c0-0.5,0.4-0.1,0.7,0c0.3,0.2,0.5,0.3,0.8,0.5c-1.9-1.9-3.8-3.8-5.8-5.7C287.5,43,285.5,41.2,283.9,39.4z M268.2,29.2
							c0-0.1-0.1-0.2-0.1-0.3c0,0,0,0,0.8-0.2C268.9,28.8,268.6,28.9,268.2,29.2z M267,29.5c0.1,0.1,0.2,0.2,0.2,0.3
							C267,29.9,266.9,29.8,267,29.5z M269.3,32.3c-0.1-0.3-0.1-0.4-0.2-0.6C269.3,32.3,269.3,32.3,269.3,32.3z M260.1,48.1l3-1.6
							l-3,1.4L260.1,48.1z"/>
					</g>
				</g>
			</g>
		</g>
	</g>
	<g>
		<g>
			<g>
				<g>
					<path class="st0" d="M445.2,357.7c-0.2,0.1-0.5,0.1-0.7,0.2c0.2-0.4,0.7-0.8,1.3-1.2c-7.1,2.3-13.4,9.1-16.5,14.8
						c-1.7,1.2-2.8,3-2.3,3.9c0.5,0.9,2.3,0.7,4-0.6c0.4-0.2,0.9-0.5,1.3-0.5c3.4-0.6,7-2.1,10.8-4c-0.8,0.3-1.7,0.5-2.5,0.8
						c1.1-0.5,2.2-1.1,3.3-1.9c-0.2-0.1-0.5-0.1-0.7-0.2c4.1-1.5,8.3-5.3,9.3-8.6c1.1-3.3-1.4-4.8-5.5-3.4L445.2,357.7z"/>
					<path class="st0" d="M435.5,357.8c2.4-1,4.7-1.9,7-2.7l0.6,0l-1.1-1.2l0,0.1c-0.9,2.4-3.5,5.1-5.9,7.5l-0.8,0.9
						c-0.3,0.5-0.4,1-0.3,1.3c0.2,0.8,1.5,0.7,2.8-0.2l1.5-1c4-2,9.6-6.2,9.9-9.9c0.1-0.8-0.8-1.2-1.3-1.6c-0.5-0.9-2.4-0.6-4.2,0.7
						c-1.8,1.3-2.8,3.1-2.3,4c-0.3,0.2-0.7,0.4-1,0.5c0.1-0.3,0.3-0.6,0.5-0.8c0.1,1.1-1.4,2.5-2.3,3.8l-1.6,1.6l2.5,1.2l0.7-1
						c-0.1,0-0.4,0-0.4-0.1c1.3-1.9,2.6-3.7,4.2-5.5l1.9-2.6c0.4-0.9-0.1-1.4-1.1-1.2l-1.4,0.4c0.2,0,0.4-0.1,0.7-0.1
						c-2.8,1.5-5.6,3.3-8.4,4.7c-0.5,0.2-0.9,0.7-0.9,1C434.7,357.9,435,358,435.5,357.8z"/>
					<g>
						<path class="st0" d="M444,350.7c0.5-0.2,1-0.3,1.6-0.8c0.1-0.2,0.1-0.3,0.1-0.3c-0.3,0.1-0.7,0.2-1,0.3
							C443.9,350.1,443.7,350.5,444,350.7z"/>
						<path class="st0" d="M445.7,349.6c0.3-0.1,0.4-0.1,0.4-0.1c-0.1,0-0.2,0-0.4,0C445.7,349.5,445.7,349.5,445.7,349.6
							C445.7,349.5,445.7,349.5,445.7,349.6z"/>
						<path class="st0" d="M340.4,437.1c-8,5.5-15.9,11.2-23.7,17c-0.3,0.2-0.4,0.4-0.3,0.6c0.1,0.1,0.4,0.1,0.6-0.1
							c7.9-5.8,15.7-11.4,23.7-17c0.3-0.2,0.4-0.4,0.4-0.6C340.9,436.9,340.7,437,340.4,437.1z"/>
						<path class="st0" d="M273.8,469.8c0.1-0.2,0-0.4-0.2-0.3c-0.2,0.1-0.5,0.3-0.6,0.5c-0.1,0.2,0,0.3,0.2,0.3
							C273.5,470.2,273.7,470,273.8,469.8z"/>
						<path class="st0" d="M268.2,459.1c0.9-1,1.8-2,2.5-3c0.1-0.2,0.3-0.3,0.5-0.4c-0.2-0.1-0.1-0.5,0.2-0.9
							c6.4-7.5,14.1-14.5,21.5-21.7c-0.1-0.2-0.1-0.4,0-0.7c0.2-0.9,1.1-2,2.3-2.9l1-0.6c3.8-2.5,7.5-5,11.2-7.5
							c0.6-0.8,1.3-1.6,2.1-2.3c2.6-3,5.2-5.9,8-8.8c-0.3,0-0.5,0-0.7-0.2c-0.3-0.5,0.2-1.3,1.1-2c0.4-0.3,0.8-0.7,1.3-1
							c-1.3,0.9-2.6,1.7-3.9,2.5c-0.2,0.1-0.4,0.2-0.5,0.3c-1.4,1-2.7,2.1-4.1,3.2c-11.7,9.7-21.8,20.1-31.6,30.6
							c-0.1,0.2-0.4,0.4-0.7,0.5c-0.2,0-0.3-0.2-0.1-0.4c5.5-7.6,9.4-15.1,16.4-22.7c8.2-9,16.6-17.7,25.5-26.4
							c10.2-7.9,18.9-16.3,28.7-25.1c13.3-11.9,26.4-22.4,40.1-33.2c4.9-4.3,11-6.3,13.5-4.4c1.5,1.2,1.5,3.5,0.1,6.1
							c0.4-0.3,0.9-0.6,1.3-0.9l2.2-1.3c2.1-1.2,4.2-1.8,5.9-1.8l2.2-0.1c3.4,0.5,7.7-0.2,10.8,0.7l0.3,1l0.5-0.1
							c1.6-0.4,3-0.2,3.9,0.3l0.6,1c0.6,1.3,0.8,2.7,0.5,4.4c0.3,0.4,0.5,0.8,0.6,1.4c1.6,0.3,2.7,1,2.9,2.6
							c0.7-0.1,0.9,0.4,0.5,1.1c-0.1,0.2-0.3,0.5-0.6,0.7c0,0,0,0,0,0c0.5,0,0.6,0,1.2,0c0.5-0.3,0.9-0.5,0.9-0.5
							c1.4-0.8,1.4-0.8,2.7-1.6c1.2-0.4,2.2-0.4,2.2-0.4c2.4,0.8,2.4,0.8,2.8,1.7c0,0.1,0,0.2,0,0.4c1-0.4,1.1-0.5,1.4-0.6
							c0.3-0.1,0.6,0,0.6,0c0.3,0.4,0.3,0.4,0.6,0.4c0.2,0.1,0.3,0.3,0.3,0.3c-0.1,0.8-0.1,0.8-0.1,0.9c0,0.2-0.1,0.4-0.1,0.4
							c-0.5,0.6-0.6,0.8-0.7,0.9c-2-0.1-2-0.1-2-0.1c0,0.5,0,0.5,0,0.5c-0.6-0.2-0.6-0.2-0.6-0.2c0.5,0.3,0.5,0.3,0.5,0.3
							c-0.8,0.2-0.8,0.2-0.8,0.2c1-0.2,1-0.2,1-0.2c-1.6,1-1.6,1-2.1,1.4c-0.6,0.4-1.1,0.9-1.1,1c0.2,0.1,0.2,0.2,0.2,0.2
							c-1.7,1-1.7,1-3.3,2c-0.2,0-0.4,0-0.6,0c-0.1,0.2-0.3,0.5-0.6,0.7c-0.3,0.2-0.6,0.4-0.8,0.5c0,0.1-0.1,0.1-0.1,0.2
							c0,0,0,0,0,0c-0.2,0.3-0.3,0.5-0.5,0.7c-0.1,0.1-0.1,0.2-0.1,0.2c0,0,0,0,0,0c-0.3,0.5-0.9,1.2-2.2,3.1
							c-0.5,0.3-1,0.6-1.5,0.8c0.2,0,0.4-0.1,0.5-0.1c0.3-0.1,0.4,0.5,0.6,0.4c3.9-1.8,7.7-4.2,11.5-6.5c0.6-0.5,1.4-0.8,1.7-0.5
							c0.3,0.2,0.1,0.9-0.5,1.4c-5.6,7.5-14.5,14-23.1,18.1c-2.1,1.3-4.1,2.6-6.2,4c0.1,0,0.3,0,0.4,0c-0.6,0.3-1.2,0.6-1.7,0.9
							c-0.1,0-0.1,0.1-0.2,0.1c0.6-0.1,1.1-0.1,1.7-0.2c0.3-0.1,0.6-0.3,0.9-0.4c4.7-3.2,9.6-5.3,14.5-8.1c2.6-1.5,5.1-2.4,7.7-3.6
							c0.6-0.4,1.2-0.5,1.3-0.1c0.1,0.3-0.2,0.9-0.8,1.3c-7,6.2-15.8,12.3-23.5,14.6c-1.4,1-2.8,1.9-4.2,2.3c0,0,0,0-0.1,0
							c0.4,0,0.8,0,1.3-0.1c-1.1,0.6-2,0.6-3.1,1.1c0.3,0.2,0.6,0.3,0.9,0.5c-5.3,3.4-10.5,7.8-16,10.2c-0.2,0.1-0.4,0.2-0.6,0.3
							c-1.6,2.1-3.2,4.2-5.5,6c0.9-0.5,1.7-1.1,2.6-1.6c-1.4,1.7-3,3.2-4.8,4.6c-5,3.8-11.4,6.9-15.6,6.9
							c-9.4,7.7-18.8,15.3-28,23.2c-0.5,0.4-1,0.6-1.3,0.4c-0.2-0.2-0.1-0.7,0.4-1.1c6.2-6.1,12.9-11.9,19.5-17.7
							c-6.1,4.1-12.3,8.3-18.3,12.9c-0.7,0.6-1.5,1.3-2.2,1.9c-0.7,0.6-1.5,1.1-2.4,1.6c-7.6,5.9-15,11.4-22.3,18
							c-6.3,5.7-11.7,10.7-17.7,16.5c-8.5,8.2-16.2,15.8-25.3,22.9c-1.2,1-2.6,1.5-3.2,1c-0.6-0.5-0.1-1.7,1-2.7
							c17.7-16.7,34.8-33.5,55-48.7c2.2-1.6,4.3-3.3,6.5-4.9c-0.1-0.1-0.2-0.1-0.2-0.2c-0.2-0.3-0.3-0.8-0.1-1.3
							c-2.5,1.8-5,3.5-7.5,5.3c-6.2,5.9-12.5,11.8-19.9,17.1c-5.1,3.6-10.1,6.4-15.2,9.3c-5.5,4.9-10.9,9.8-16.5,14.7
							c-0.2,0.2-0.5,0.4-0.7,0.3c-0.2,0-0.1-0.3,0.1-0.5c3.5-3.8,7.1-7.6,10.9-11.3c-0.9,0.1-1.7,0-2-0.6c-0.4-0.6-0.2-1.4,0.3-2.4
							c-1,0.7-1.9,1.4-2.9,2.2c-0.6,0.4-1.2,0.6-1.4,0.3c-0.2-0.3,0.1-0.9,0.6-1.3c3.9-3,7.7-5.9,11.6-8.8
							c4.4-3.9,8.8-7.7,13.2-11.5c-0.9,0.1-1.7,0.1-2.3-0.2c0,0,0,0,0,0c-0.7,0.6-1.4,1.1-2.1,1.7c-11.9,11.6-24.6,22.8-38.2,33
							c-0.3,0.2-0.6,0.3-0.7,0.2c-0.1-0.1,0-0.4,0.3-0.6c4.1-3.1,8.2-6.2,12.1-9.5c0,0,0,0,0,0c-0.2,0.1-0.4-0.1-0.2-0.3
							c0.1-0.2,0.4-0.4,0.6-0.5c0.3-0.1,0.3,0.1,0.2,0.3c7.4-6,14.4-12.4,21.2-18.8c-6.7,5.4-13.5,10.8-20.6,15.9
							c-0.6,0.7-1.2,1.5-1.9,2.2c-0.2,0.2-0.5,0.3-0.7,0.3c-0.1-0.1-0.1-0.3,0.1-0.5c0.2-0.2,0.4-0.4,0.5-0.6
							c-1.3,1-2.7,1.2-3.2,0.6c-0.4-0.7,0.3-2.1,1.6-3.1c3.5-2.9,7-5.8,10.6-8.6c0.4-0.3,0.7-0.7,1.1-1c0.3-0.4,0.6-0.8,0.9-1.2
							c-5.8,4.1-11.6,8.1-17.4,12.1c-0.5,0.4-1,0.5-1.2,0.3c-0.2-0.2,0-0.7,0.5-1.1c9-8.5,18.4-16.8,28-24.9c2.5-3.5,5-7,7.6-10.6
							c-0.4,0.3-0.9,0.6-1.3,1c-10.8,8.4-17.8,18.3-27.8,27c-0.2,0.2-0.5,0.3-0.7,0.2c-0.1-0.1,0-0.3,0.2-0.6
							c4.8-4.3,8.7-8.9,13.2-13.5c3.8-3.8,7.3-7.4,10.7-11.2c-7.8,6.5-14.4,13.6-21.9,20.3c-0.3,0.3-0.7,0.5-1,0.6
							c0,0.1,0,0.2-0.1,0.3c-0.7,1.1-1.6,2.1-2.6,3.2c-0.2,0.2-0.5,0.4-0.7,0.3C268,459.6,268,459.4,268.2,459.1z M417,364.9
							c0.1,0,0.2,0,0.3,0c-0.3,0.1-0.6,0.2-0.9,0.3c0,0,0,0-1.7-0.2C414.8,365,415.9,365,417,364.9z M426.6,352
							C426.6,352,426.6,352,426.6,352c0.6,0.1,1,0.1,1,0.1C427.2,352.1,426.9,352.1,426.6,352z M355,420.6c4.2-3.2,8.5-6.2,13.1-8.9
							c-1,0.8-1.9,1.7-2.9,2.5C361.9,416.4,358.5,418.5,355,420.6z M427.9,362.1c-1.5,0.4-2.8,0.4-4.1,0.5c-0.6,0.7-1.4,1.3-2.2,1.9
							c-2.1,1.5-4.2,3-6.3,4.3c0.5,0.1,0,0.5-0.2,0.7c-0.2,0.2-0.5,0.4-0.7,0.7c2.3-1.4,4.6-2.8,7-4.2
							C423.6,364.6,425.8,363.1,427.9,362.1z M441.7,349.4c0.1,0,0.2,0,0.3,0c0,0,0,0,0,0.8C441.9,350.1,441.8,349.8,441.7,349.4z
							 M441.7,348.1c-0.1,0.1-0.2,0.1-0.4,0.2C441.3,348,441.4,348,441.7,348.1z M438.4,349.6c0.3,0,0.4,0,0.6,0
							C438.4,349.6,438.4,349.6,438.4,349.6z M425.3,336.8l0.8,3.3l-0.6-3.3L425.3,336.8z"/>
					</g>
				</g>
			</g>
		</g>
	</g>
	<g>
		<g>
			<g>
				<g>
					<path class="st0" d="M237.4,489.7c-0.1-0.2-0.2-0.4-0.3-0.7c0.5,0.1,1,0.5,1.5,1c-4-6.3-12.2-10.7-18.4-12.4
						c-1.6-1.4-3.6-2-4.4-1.3c-0.8,0.7-0.1,2.4,1.5,3.8c0.3,0.4,0.7,0.8,0.9,1.1c1.5,3.1,3.8,6.3,6.5,9.5c-0.4-0.7-0.9-1.5-1.4-2.2
						c0.8,0.9,1.6,1.9,2.6,2.7c0-0.2,0-0.5,0-0.7c2.4,3.6,7.2,6.7,10.6,6.9c3.5,0.2,4.3-2.5,1.9-6.1L237.4,489.7z"/>
					<path class="st0" d="M235,480.3c1.5,2,3,4.1,4.4,6.1l0.2,0.6l0.8-1.3l-0.1,0.1c-2.6-0.3-5.8-2.1-8.7-3.9l-1.1-0.6
						c-0.6-0.2-1.1-0.2-1.4,0c-0.7,0.4-0.3,1.6,0.9,2.7l1.3,1.2c2.9,3.4,8.4,7.7,12,7.1c0.8-0.1,0.9-1.1,1.3-1.7
						c0.8-0.7,0-2.5-1.7-3.9c-1.7-1.4-3.7-2-4.4-1.2c-0.2-0.3-0.5-0.6-0.8-0.9c0.3,0.1,0.6,0.2,0.9,0.2c-1.1,0.3-2.8-0.7-4.2-1.3
						l-1.9-1.2l-0.5,2.7l1.1,0.5c0-0.1,0-0.4,0-0.4c2.2,0.8,4.2,1.6,6.4,2.7l3,1.2c0.9,0.1,1.3-0.5,0.8-1.3l-0.7-1.3
						c0.1,0.2,0.2,0.4,0.3,0.6c-2.1-2.4-4.5-4.6-6.6-7c-0.3-0.4-0.8-0.7-1.2-0.6C234.7,479.5,234.7,479.9,235,480.3z"/>
					<g>
						<path class="st0" d="M243.9,486.8c0.3,0.5,0.5,0.9,1.1,1.3c0.2,0,0.3,0,0.4,0c-0.1-0.3-0.3-0.6-0.5-0.9
							C244.5,486.5,244.1,486.5,243.9,486.8z"/>
						<path class="st0" d="M245.4,488.1c0.1,0.2,0.2,0.4,0.2,0.4c0-0.1-0.1-0.2-0.1-0.4C245.5,488.2,245.5,488.2,245.4,488.1
							C245.5,488.2,245.5,488.2,245.4,488.1z"/>
						<path class="st0" d="M134.7,407.7c-7.3-6.4-14.8-12.6-22.3-18.8c-0.3-0.2-0.5-0.3-0.6-0.2c-0.1,0.1,0,0.4,0.3,0.5
							c7.5,6.2,14.9,12.4,22.3,18.8c0.3,0.2,0.5,0.3,0.7,0.2C135,408.2,134.9,407.9,134.7,407.7z"/>
						<path class="st0" d="M86.6,351.2c0.3,0.1,0.3-0.1,0.2-0.3c-0.1-0.2-0.4-0.4-0.6-0.5c-0.2,0-0.3,0.1-0.2,0.3
							C86.1,351,86.4,351.2,86.6,351.2z"/>
						<path class="st0" d="M95.5,343.1c1.2,0.7,2.4,1.3,3.5,1.6c0.2,0.1,0.4,0.2,0.5,0.4c0.1-0.2,0.4-0.3,0.9,0
							c8.9,4.3,17.6,10.1,26.3,15.5c0.2-0.1,0.4-0.2,0.7-0.2c0.9,0,2.3,0.6,3.3,1.6l0.8,0.8c3.3,3,6.7,6,10,9.1
							c0.9,0.3,1.8,0.8,2.8,1.5c3.5,1.8,7,3.6,10.5,5.6c-0.1-0.3-0.1-0.5,0-0.7c0.4-0.4,1.3-0.1,2.2,0.6c0.4,0.3,0.9,0.6,1.3,1
							c-1.1-1.1-2.3-2.1-3.4-3.2c-0.2-0.1-0.3-0.3-0.4-0.4c-1.3-1.1-2.7-2.1-4.1-3.1c-12.3-9-24.9-16.2-37.5-23.1
							c-0.2-0.1-0.5-0.3-0.6-0.5c0-0.2,0.1-0.3,0.3-0.2c8.7,3.4,16.9,5.4,26,10.3c10.8,5.8,21.3,11.7,31.8,18.2
							c10.2,7.9,20.4,14.3,31.4,21.6c14.8,9.9,28.3,20.1,42.1,30.7c5.4,3.7,8.8,9.1,7.6,12c-0.8,1.8-3,2.3-5.9,1.6
							c0.4,0.3,0.8,0.7,1.2,1l1.8,1.8c1.7,1.8,2.8,3.6,3.2,5.2l0.6,2.1c0.3,3.4,2.1,7.4,2,10.6l-0.9,0.5l0.2,0.5
							c0.7,1.5,1,2.8,0.6,3.8l-0.8,0.8c-1.1,0.9-2.4,1.4-4.1,1.6c-0.3,0.4-0.7,0.7-1.2,0.9c0.1,1.6-0.3,2.9-1.8,3.5
							c0.3,0.7-0.1,1-0.9,0.8c-0.3-0.1-0.5-0.2-0.8-0.4c0,0,0,0,0,0c0.1,0.5,0.1,0.6,0.3,1.1c0.4,0.5,0.7,0.7,0.7,0.7
							c1.2,1.2,1.2,1.2,2.2,2.2c0.7,1.1,0.9,2,0.9,2c-0.2,2.5-0.2,2.5-1,3.1c-0.1,0-0.2,0-0.4,0c0.7,0.9,0.7,1,0.9,1.2
							c0.1,0.3,0.2,0.6,0.2,0.6c-0.3,0.4-0.3,0.4-0.2,0.7c-0.1,0.2-0.2,0.3-0.2,0.3c-0.8,0.1-0.8,0.1-0.9,0.2c-0.2,0-0.4,0-0.4,0
							c-0.7-0.3-0.9-0.4-1-0.5c-0.4-1.9-0.4-1.9-0.4-1.9c-0.5,0.1-0.5,0.1-0.5,0.1c0.1-0.7,0.1-0.7,0.1-0.7
							c-0.2,0.5-0.2,0.5-0.2,0.5c-0.4-0.7-0.4-0.7-0.4-0.7c0.4,0.9,0.4,0.9,0.4,0.9c-1.3-1.3-1.3-1.3-1.9-1.7
							c-0.6-0.5-1.1-0.8-1.2-0.8c-0.1,0.2-0.1,0.3-0.1,0.3c-1.4-1.4-1.4-1.4-2.8-2.7c-0.1-0.2-0.1-0.4-0.1-0.5
							c-0.2,0-0.6-0.2-0.8-0.4c-0.2-0.2-0.5-0.5-0.7-0.7c-0.1,0-0.1,0-0.2-0.1c0,0,0,0,0,0c-0.3-0.1-0.6-0.2-0.8-0.3
							c-0.2-0.1-0.2-0.1-0.2-0.1c0,0,0,0,0,0c-0.6-0.2-1.4-0.5-3.5-1.4c-0.4-0.4-0.8-0.8-1.1-1.2c0.1,0.2,0.2,0.3,0.2,0.5
							c0.1,0.3-0.4,0.5-0.3,0.7c2.7,3.3,6,6.4,9.2,9.6c0.7,0.4,1.1,1.1,0.9,1.5c-0.2,0.4-0.8,0.3-1.5-0.2
							c-8.7-3.5-17.2-10.6-23.3-17.9c-1.8-1.7-3.6-3.4-5.4-5c0,0.1,0.1,0.3,0.1,0.4c-0.4-0.5-0.9-1-1.3-1.5c0,0-0.1-0.1-0.2-0.1
							c0.2,0.5,0.4,1,0.6,1.6c0.2,0.3,0.4,0.5,0.6,0.8c4.3,3.8,7.6,8,11.4,12.1c2.1,2.2,3.6,4.4,5.4,6.6c0.5,0.5,0.7,1,0.5,1.3
							c-0.3,0.2-0.9,0-1.5-0.5c-7.7-5.3-15.8-12.2-19.9-19.1c-1.3-1.1-2.5-2.3-3.2-3.5c0,0,0,0-0.1-0.1c0.1,0.4,0.3,0.8,0.4,1.2
							c-0.9-0.9-1.1-1.8-1.8-2.7c-0.1,0.3-0.2,0.7-0.3,1c-4.6-4.3-10.1-8.3-13.9-13c-0.2-0.2-0.3-0.3-0.5-0.5c-2.4-1-4.8-2-7.2-3.8
							c0.7,0.7,1.4,1.4,2.2,2.1c-2-1-3.8-2.1-5.6-3.5c-4.9-3.9-9.5-9.4-10.5-13.4c-9.8-7.2-19.5-14.5-29.4-21.4
							c-0.5-0.3-0.8-0.9-0.7-1.2c0.1-0.3,0.6-0.2,1.1,0.1c7.5,4.5,14.7,9.5,22,14.6c-5.5-4.9-11.1-9.8-17-14.6
							c-0.8-0.6-1.6-1.1-2.4-1.7c-0.8-0.6-1.5-1.2-2.2-1.9c-7.6-5.9-14.7-11.7-23-17.2c-7-4.7-13.2-8.7-20.4-13.1
							c-10.1-6.2-19.3-11.8-28.5-18.9c-1.3-0.9-2.1-2.2-1.8-2.9c0.3-0.7,1.6-0.5,2.9,0.3c20.5,13.1,41,25.5,60.8,41.3
							c2.1,1.7,4.2,3.4,6.3,5.1c0-0.1,0.1-0.2,0.1-0.3c0.2-0.3,0.7-0.5,1.2-0.4c-2.3-1.9-4.7-3.9-6.9-6c-7.3-4.6-14.5-9.2-21.5-15.1
							c-4.7-4.1-8.7-8.2-12.7-12.4c-6.1-4.1-12.2-8.2-18.3-12.4c-0.3-0.1-0.5-0.4-0.5-0.6c0-0.2,0.2-0.2,0.5-0.1
							c4.6,2.4,9.1,5.1,13.7,7.8c-0.4-0.9-0.4-1.6,0.1-2.1c0.5-0.5,1.3-0.6,2.4-0.3c-0.9-0.7-1.9-1.5-2.8-2.2
							c-0.6-0.5-0.9-1-0.6-1.3c0.2-0.3,0.9-0.1,1.4,0.3c3.8,3,7.6,6,11.4,9.1c4.8,3.3,9.6,6.6,14.4,10c-0.4-0.9-0.5-1.7-0.3-2.3
							c0,0,0,0,0,0c-0.7-0.5-1.4-1.1-2.2-1.6c-14.2-8.6-28.2-18.2-41.4-28.9c-0.3-0.2-0.4-0.5-0.3-0.6c0.1-0.1,0.4-0.1,0.6,0.1
							c4,3.2,8,6.4,12.2,9.4c0,0,0,0,0,0c-0.1-0.2,0-0.4,0.2-0.3c0.2,0,0.5,0.3,0.6,0.5c0.1,0.2,0,0.4-0.2,0.3
							c7.7,5.6,15.5,10.9,23.5,15.9c-6.9-5.2-13.8-10.4-20.5-16c-0.9-0.4-1.7-0.8-2.6-1.3c-0.2-0.1-0.4-0.4-0.4-0.6
							c0-0.1,0.3-0.2,0.5,0c0.2,0.1,0.5,0.2,0.7,0.4c-1.3-1.1-1.9-2.3-1.3-3c0.6-0.6,2.1-0.2,3.4,0.8c3.7,2.7,7.3,5.4,10.9,8.2
							c0.4,0.3,0.8,0.5,1.3,0.8c0.5,0.2,0.9,0.4,1.4,0.6c-5.4-4.6-10.7-9.2-16-13.9c-0.5-0.4-0.7-0.9-0.6-1.1
							c0.2-0.2,0.7-0.1,1.2,0.2c10.5,6.7,20.8,13.7,31.1,21c4,1.6,8.1,3.1,12.1,4.7c-0.4-0.3-0.8-0.7-1.2-1
							c-10.8-8.4-22.1-12.7-33-20.3c-0.3-0.2-0.4-0.4-0.4-0.6c0.1-0.1,0.3-0.1,0.6,0.1c5.4,3.6,10.8,6.2,16.4,9.5
							c4.6,2.7,9,5.3,13.5,7.6c-8.2-5.9-16.7-10.6-25-16.2c-0.4-0.2-0.7-0.5-0.8-0.8c-0.1,0-0.2,0.1-0.3,0c-1.2-0.5-2.5-1.1-3.7-1.7
							c-0.3-0.1-0.5-0.4-0.5-0.6C95,343,95.2,343,95.5,343.1z M223.5,464.2c0,0.1,0.1,0.2,0.1,0.3c-0.2-0.2-0.3-0.5-0.5-0.8
							c0,0,0,0-0.3-1.7C222.9,462,223.2,463.1,223.5,464.2z M238.4,470.3C238.4,470.3,238.4,470.3,238.4,470.3
							c0.1,0.5,0.1,0.9,0.1,0.9C238.4,470.8,238.4,470.5,238.4,470.3z M154.3,417.8c4.2,3.3,8.1,6.7,11.8,10.5
							c-1-0.7-2.1-1.5-3.1-2.2C160.1,423.4,157.2,420.6,154.3,417.8z M229,474c-0.7-1.3-1.1-2.6-1.5-3.8c-0.8-0.5-1.6-1-2.3-1.6
							c-2-1.7-3.9-3.4-5.8-5.1c0,0.5-0.4,0.1-0.7,0c-0.3-0.2-0.5-0.3-0.8-0.5c1.9,1.9,3.8,3.8,5.8,5.7
							C225.4,470.4,227.4,472.2,229,474z M244.7,484.2c0,0.1,0.1,0.2,0.1,0.3c0,0,0,0-0.8,0.2C244,484.7,244.3,484.5,244.7,484.2z
							 M245.9,483.9c-0.1-0.1-0.2-0.2-0.2-0.3C245.9,483.5,246,483.6,245.9,483.9z M243.6,481.1c0.1,0.3,0.1,0.4,0.2,0.6
							C243.6,481.1,243.6,481.1,243.6,481.1z M252.8,465.3l-3,1.6l3-1.4L252.8,465.3z"/>
					</g>
				</g>
			</g>
		</g>
	</g>
	<g>
		<g>
			<g>
				<g>
					<path class="st0" d="M458.8,182.3c-0.1,0.2-0.2,0.3-0.3,0.5c-0.2-0.3-0.2-0.7-0.1-1.2c-2.5,4.9-1,11.2,1.5,15.4
						c-0.1,1.5,0.7,2.8,1.7,2.9c1,0.1,1.9-1,2-2.5c0.1-0.3,0.2-0.7,0.4-1c1.6-2.1,2.7-4.8,3.5-7.6c-0.3,0.6-0.6,1.1-0.9,1.7
						c0.2-0.8,0.5-1.7,0.5-2.6c-0.2,0.1-0.4,0.2-0.6,0.3c1.4-2.9,0.9-6.8-1.1-8.8c-2-2-4.7-1.3-6,1.6L458.8,182.3z"/>
					<path class="st0" d="M452.8,187.6c0.7-1.7,1.4-3.4,2.1-5l0.4-0.3l-1.6,0.1l0.1,0c1.3,1.5,1.9,4.1,2.2,6.4l0.2,0.8
						c0.2,0.4,0.5,0.7,0.8,0.8c0.8,0.2,1.5-0.5,1.6-1.6l0.1-1.3c0.9-3.1,0.9-7.9-1.7-9.6c-0.6-0.4-1.4,0-2.1,0c-1-0.1-2,1-2,2.6
						c-0.1,1.5,0.7,2.9,1.8,3c-0.1,0.3-0.1,0.5-0.2,0.8c-0.1-0.2-0.2-0.4-0.4-0.6c0.9,0.4,1.1,1.8,1.6,2.9l0.3,1.6l2.4-0.9l-0.3-0.8
						c-0.1,0.1-0.3,0.2-0.3,0.2c-0.7-1.5-1.3-3-1.8-4.7l-0.9-2.1c-0.5-0.6-1.2-0.5-1.6,0.1l-0.5,0.9c0.1-0.1,0.2-0.3,0.3-0.4
						c-0.6,2.2-0.9,4.5-1.5,6.6c-0.1,0.3,0,0.8,0.2,0.9C452.4,188.1,452.7,188,452.8,187.6z"/>
					<g>
						<path class="st0" d="M452.5,179.9c0.2-0.4,0.4-0.7,0.3-1.2c-0.1-0.1-0.2-0.2-0.2-0.2c-0.1,0.2-0.3,0.4-0.4,0.7
							C451.9,179.7,452.1,180,452.5,179.9z"/>
						<path class="st0" d="M452.6,178.5c0.1-0.2,0.2-0.3,0.2-0.3C452.7,178.3,452.6,178.4,452.6,178.5
							C452.6,178.5,452.6,178.5,452.6,178.5C452.6,178.5,452.6,178.5,452.6,178.5z"/>
						<path class="st0" d="M457.1,273.7c-0.5,6.7-0.9,13.5-1.1,20.3c0,0.2,0.1,0.4,0.3,0.4c0.1,0,0.3-0.2,0.3-0.4
							c0.3-6.8,0.6-13.5,1.1-20.2c0-0.2-0.1-0.4-0.2-0.4C457.3,273.3,457.1,273.4,457.1,273.7z"/>
						<path class="st0" d="M442,324.1c-0.1-0.2-0.3-0.2-0.4,0c-0.1,0.1-0.1,0.4,0,0.6c0.1,0.1,0.3,0.1,0.4,0
							C442.1,324.5,442.1,324.3,442,324.1z"/>
						<path class="st0" d="M430.1,322.7c-0.2-0.9-0.5-1.8-0.9-2.6c-0.1-0.1,0-0.3,0-0.4c-0.2,0.1-0.5-0.1-0.6-0.5
							c-2-6.7-2.8-13.9-3.9-21.1c-0.2,0-0.4-0.1-0.6-0.3c-0.6-0.5-0.9-1.5-0.8-2.5l0.2-0.8c0.4-3.1,0.6-6.2,1-9.3
							c-0.3-0.6-0.5-1.4-0.5-2.2c-0.8-2.7-1.5-5.4-2-8.1c-0.2,0.2-0.4,0.3-0.6,0.3c-0.5-0.1-0.9-0.7-0.9-1.4c0-0.4,0-0.8,0-1.1
							c-0.1,1.1-0.3,2.2-0.4,3.2c0,0.2,0,0.3-0.1,0.4c0,1.2,0,2.4,0,3.6c0.5,10.6,2.5,20.6,4.8,30.4c0.1,0.2,0.1,0.4-0.1,0.6
							c-0.1,0.1-0.3,0.1-0.4-0.1c-2.6-6.2-6.1-11.6-7.8-18.7c-2.1-8.4-3.8-16.7-5.1-25.3c0-9-1.3-17.3-2.2-26.5
							c-1.3-12.4-1.5-24.1-1.6-36.2c-0.4-4.5,1.8-8.7,4.9-9.3c1.9-0.3,3.7,0.7,4.9,2.6c0-0.4,0-0.7,0-1.1l0.4-1.8
							c0.4-1.7,1.1-3.1,2.2-4l1.3-1.2c2.5-1.6,4.5-4.3,7.1-5.6l1,0.3l0.3-0.3c0.7-1,1.6-1.7,2.6-2l1.2,0.1c1.4,0.2,2.6,0.7,3.8,1.6
							c0.5,0,1,0.1,1.5,0.3c1.2-0.7,2.5-1.1,3.9-0.5c0.3-0.4,0.9-0.4,1.2,0.2c0.1,0.2,0.2,0.4,0.2,0.6c0,0,0,0,0,0
							c0.3-0.2,0.4-0.3,0.7-0.6c0.1-0.4,0.2-0.7,0.2-0.7c0.2-1.1,0.2-1.1,0.4-2.1c0.4-0.8,1-1.4,1-1.4c2.1-0.9,2.1-0.9,3-0.8
							c0.1,0.1,0.2,0.1,0.3,0.2c0.3-0.8,0.3-0.8,0.4-1c0.2-0.2,0.4-0.4,0.4-0.4c0.5,0,0.5,0,0.7-0.2c0.2,0,0.4,0,0.4,0
							c0.5,0.4,0.5,0.4,0.7,0.4c0.1,0.1,0.3,0.2,0.3,0.2c0.2,0.5,0.2,0.7,0.3,0.8c-1.3,1.1-1.3,1.1-1.3,1.1c0.4,0.2,0.4,0.2,0.4,0.2
							c-0.6,0.2-0.6,0.2-0.6,0.2c0.5-0.1,0.5-0.1,0.5-0.1c-0.3,0.5-0.3,0.5-0.3,0.5c0.5-0.6,0.5-0.6,0.5-0.6
							c-0.2,1.3-0.2,1.3-0.2,1.8c-0.1,0.5,0.1,1,0.1,1c0.2,0,0.3,0,0.3,0c-0.2,1.3-0.2,1.3-0.4,2.7c-0.1,0.1-0.2,0.2-0.4,0.3
							c0.1,0.1,0.2,0.4,0.2,0.6c0,0.2-0.1,0.5-0.1,0.7c0,0.1,0.1,0.1,0.1,0.1c0,0,0,0,0,0c0.1,0.2,0.2,0.4,0.2,0.6
							c0.1,0.1,0.1,0.1,0.1,0.1c0,0,0,0,0,0c0.2,0.4,0.4,1,1.1,2.5c-0.1,0.4-0.2,0.8-0.3,1.1c0.1-0.1,0.2-0.2,0.2-0.3
							c0.2-0.2,0.6,0,0.7-0.1c1-2.9,1.4-6,1.9-9.1c-0.1-0.6,0.2-1.1,0.6-1.2c0.4-0.1,0.7,0.3,0.8,0.9c2.5,6.3,2.2,14,0.2,20.4
							c-0.2,1.7-0.5,3.4-0.7,5.1c0.1-0.1,0.2-0.2,0.2-0.2c-0.1,0.4-0.2,0.9-0.4,1.3c0,0,0,0.1,0,0.1c0.3-0.3,0.6-0.7,0.9-1
							c0.1-0.2,0.2-0.5,0.2-0.7c0.4-4,1.7-7.6,2.5-11.4c0.5-2.1,1.3-3.8,1.9-5.8c0-0.5,0.4-0.8,0.7-0.8c0.3,0.1,0.6,0.5,0.5,1
							c0.6,6.5,0,13.9-2.9,19.1c0,1.2-0.3,2.3-0.8,3.3c0,0,0,0,0,0.1c0.2-0.2,0.5-0.5,0.7-0.7c-0.2,0.9-0.8,1.4-1,2.2
							c0.3-0.1,0.6-0.2,1-0.3c-0.6,4.4-0.3,9.1-1.7,13.1c0,0.2-0.1,0.3-0.1,0.5c0.7,1.7,1.3,3.5,1.4,5.6c0.1-0.7,0.2-1.4,0.3-2.1
							c0.4,1.5,0.7,3,0.7,4.6c-0.1,4.3-1.6,9.2-4.1,11.5c0.3,8.4,0.6,16.9,1.2,25.3c0,0.4-0.2,0.8-0.5,0.9c-0.3,0-0.6-0.2-0.6-0.7
							c-1-6-1.5-12.2-2-18.3c-0.5,5.1-1,10.3-1.1,15.5c0,0.7,0.1,1.3,0.1,2c0,0.7,0,1.3-0.2,2c0,6.7-0.2,13.1,0.5,19.9
							c0.6,5.8,1.3,11,2.2,16.8c1.3,8.2,2.6,15.6,2.6,23.7c0.1,1.1-0.4,2.1-1.2,2.2c-0.7,0.1-1.4-0.6-1.5-1.7
							c-2.3-16.8-5.1-33.4-4.7-51c0-1.9,0.1-3.8,0.1-5.6c-0.1,0-0.2,0-0.3,0c-0.4,0-0.8-0.2-1.1-0.5c-0.1,2.1-0.3,4.2-0.5,6.4
							c0.8,5.9,1.7,11.9,1.3,18.2c-0.3,4.3-1.2,8.3-2,12.3c0.5,5.1,1,10.2,1.4,15.3c0.1,0.2,0,0.4-0.2,0.5c-0.1,0.1-0.3,0-0.3-0.2
							c-0.9-3.5-1.6-7.2-2.2-10.8c-0.5,0.6-1.1,0.9-1.7,0.9c-0.7,0-1.3-0.5-1.7-1.2c0,0.8,0,1.7,0,2.5c0,0.5-0.3,0.9-0.6,0.9
							c-0.4,0-0.6-0.4-0.6-0.9c0-3.4,0.1-6.8,0.1-10.1c-0.4-4.1-0.7-8.1-1-12.2c-0.4,0.6-1,1-1.6,1.2c0,0,0,0,0,0
							c0,0.6,0,1.3,0.1,1.9c1.9,11.5,2.9,23.2,2.6,35.1c0,0.2-0.1,0.4-0.3,0.4c-0.2,0-0.3-0.2-0.3-0.4c0.1-3.6,0.1-7.1,0-10.7
							c0,0,0,0,0,0c-0.1,0.1-0.3,0.2-0.4,0c-0.1-0.1-0.1-0.4,0-0.6c0.1-0.2,0.3-0.1,0.4,0c-0.3-6.6-0.9-13.2-1.9-19.7
							c0.2,6,0.3,12.1,0,18.1c0.2,0.7,0.4,1.3,0.6,2c0,0.2-0.1,0.4-0.2,0.5c-0.1,0.1-0.3-0.1-0.3-0.3c0-0.2-0.1-0.4-0.1-0.6
							c-0.1,1.1-0.7,2-1.5,2c-0.8-0.1-1.5-1-1.4-2.2c-0.2-3.2-0.2-6.3-0.3-9.5c0-0.3-0.1-0.7-0.1-1c-0.1-0.3-0.3-0.7-0.4-1
							c-0.3,4.9-0.7,9.8-1.1,14.7c0,0.4-0.2,0.8-0.5,0.8c-0.3,0-0.5-0.3-0.5-0.7c-1.2-8.6-1.9-17.3-2.5-26c-1.2-2.9-2.5-5.7-3.7-8.7
							c0,0.4,0,0.7,0,1.1c0,9.5,3.5,17.6,4.3,26.7c0,0.2-0.1,0.4-0.2,0.5c-0.1,0-0.3-0.1-0.3-0.4c-0.5-4.5-1.7-8.6-2.5-13
							c-0.7-3.7-1.4-7.2-2.3-10.6c0.3,7,1.9,13.7,2.6,20.7c0.1,0.3,0,0.6-0.2,0.8c0.1,0,0.2,0.1,0.2,0.2c0.4,0.9,0.7,1.8,0.9,2.8
							c0.1,0.2,0,0.4-0.2,0.5C430.4,323,430.2,322.9,430.1,322.7z M447.1,200.8c0.1-0.1,0.1-0.1,0.2-0.2c-0.1,0.2-0.2,0.4-0.3,0.6
							c0,0,0,0-1.2,0.9C445.8,202.1,446.5,201.4,447.1,200.8z M442.8,190.1C442.8,190.1,442.8,190.1,442.8,190.1
							c0.4-0.3,0.7-0.5,0.7-0.5C443.2,189.8,443,189.9,442.8,190.1z M453,258.6c0-3.7,0.3-7.3,1-11c0.1,0.9,0.1,1.8,0.2,2.7
							C453.9,253,453.5,255.8,453,258.6z M451.6,193.6c-0.6,1-1.4,1.7-2.1,2.4c0.1,0.6,0.2,1.3,0.2,2c-0.1,1.8-0.2,3.6-0.5,5.3
							c0.4-0.2,0.4,0.2,0.4,0.4c0,0.2,0.1,0.4,0.1,0.7c0.3-1.9,0.6-3.7,1-5.6C450.9,197.1,451.1,195.2,451.6,193.6z M450,180.6
							c0.1-0.1,0.1-0.1,0.2-0.2c0,0,0,0,0.6,0.3C450.7,180.8,450.4,180.7,450,180.6z M448.9,180.1c0,0.1-0.1,0.2-0.1,0.3
							C448.6,180.3,448.7,180.2,448.9,180.1z M448.2,182.5c0.2-0.1,0.3-0.2,0.3-0.3C448.2,182.5,448.2,182.5,448.2,182.5z
							 M430,184.3l3.1,1l-3-1L430,184.3z"/>
					</g>
				</g>
			</g>
		</g>
	</g>
	<defs>
		<filter id="Adobe_OpacityMaskFilter" filterUnits="userSpaceOnUse" x="63.9" y="162.3" width="371.1" height="314.7">
			<feColorMatrix  type="matrix" values="1 0 0 0 0  0 1 0 0 0  0 0 1 0 0  0 0 0 1 0"/>
		</filter>
	</defs>
	<mask maskUnits="userSpaceOnUse" x="63.9" y="162.3" width="371.1" height="314.7" id="SVGID_1_">
		<g class="st1">
			<circle class="st2" cx="262.1" cy="255.7" r="168.6"/>
		</g>
	</mask>
	<g class="st3">
		<g>
			<g>
				<g>
					<g>
						<path class="st0" d="M249.4,296.9c0.2-0.1,0.5-0.1,0.7-0.2c-0.2,0.4-0.7,0.8-1.3,1.2c7.1-2.3,13.4-9.1,16.5-14.8
							c1.7-1.2,2.8-3,2.3-3.9c-0.5-0.9-2.3-0.7-4,0.6c-0.4,0.2-0.9,0.5-1.3,0.5c-3.4,0.6-7,2.1-10.8,4c0.8-0.3,1.7-0.5,2.5-0.8
							c-1.1,0.5-2.2,1.1-3.3,1.9c0.2,0.1,0.5,0.1,0.7,0.2c-4.1,1.5-8.3,5.3-9.3,8.6c-1.1,3.3,1.4,4.8,5.5,3.4L249.4,296.9z"/>
						<path class="st0" d="M259.1,296.9c-2.4,1-4.7,1.9-7,2.7l-0.6,0l1.1,1.2l0-0.1c0.9-2.4,3.5-5.1,5.9-7.5l0.8-0.9
							c0.3-0.5,0.4-1,0.3-1.3c-0.2-0.8-1.5-0.7-2.8,0.2l-1.5,1c-4,2-9.6,6.2-9.9,9.9c-0.1,0.8,0.8,1.2,1.3,1.6
							c0.5,0.9,2.4,0.6,4.2-0.7c1.8-1.3,2.8-3.1,2.3-4c0.3-0.2,0.7-0.4,1-0.5c-0.1,0.3-0.3,0.6-0.5,0.8c-0.1-1.1,1.4-2.5,2.3-3.8
							l1.6-1.6l-2.5-1.2l-0.7,1c0.1,0,0.4,0,0.4,0.1c-1.3,1.9-2.6,3.7-4.2,5.5l-1.9,2.6c-0.4,0.9,0.1,1.4,1.1,1.2l1.4-0.4
							c-0.2,0-0.4,0.1-0.7,0.1c2.8-1.5,5.6-3.3,8.4-4.7c0.5-0.2,0.9-0.7,0.9-1C259.9,296.8,259.6,296.7,259.1,296.9z"/>
						<g>
							<path class="st0" d="M250.6,304c-0.5,0.2-1,0.3-1.6,0.8c-0.1,0.2-0.1,0.3-0.1,0.3c0.3-0.1,0.7-0.2,1-0.3
								C250.7,304.6,250.9,304.2,250.6,304z"/>
							<path class="st0" d="M248.9,305.1c-0.3,0.1-0.4,0.1-0.4,0.1c0.1,0,0.2,0,0.4,0C248.9,305.2,248.9,305.2,248.9,305.1
								C248.9,305.2,248.9,305.2,248.9,305.1z"/>
							<path class="st0" d="M354.2,217.6c8-5.5,15.9-11.2,23.7-17c0.3-0.2,0.4-0.4,0.3-0.6c-0.1-0.1-0.4-0.1-0.6,0.1
								c-7.9,5.8-15.7,11.4-23.7,17c-0.3,0.2-0.4,0.4-0.4,0.6C353.7,217.8,353.9,217.7,354.2,217.6z"/>
							<path class="st0" d="M420.8,184.9c-0.1,0.2,0,0.4,0.2,0.3c0.2-0.1,0.5-0.3,0.6-0.5c0.1-0.2,0-0.3-0.2-0.3
								C421.1,184.5,420.9,184.7,420.8,184.9z"/>
							<path class="st0" d="M426.4,195.6c-0.9,1-1.8,2-2.5,3c-0.1,0.2-0.3,0.3-0.5,0.4c0.2,0.1,0.1,0.5-0.2,0.9
								c-6.4,7.5-14.1,14.5-21.5,21.7c0.1,0.2,0.1,0.4,0,0.7c-0.2,0.9-1.1,2-2.3,2.9l-1,0.6c-3.8,2.5-7.5,5-11.2,7.5
								c-0.6,0.8-1.3,1.6-2.1,2.3c-2.6,3-5.2,5.9-8,8.8c0.3,0,0.5,0,0.7,0.2c0.3,0.5-0.2,1.3-1.1,2c-0.4,0.3-0.8,0.7-1.3,1
								c1.3-0.9,2.6-1.7,3.9-2.5c0.2-0.1,0.4-0.2,0.5-0.3c1.4-1,2.7-2.1,4.1-3.2c11.7-9.7,21.8-20.1,31.6-30.6
								c0.1-0.2,0.4-0.4,0.7-0.5c0.2,0,0.3,0.2,0.1,0.4c-5.5,7.6-9.4,15.1-16.4,22.7c-8.2,9-16.6,17.7-25.5,26.4
								c-10.2,7.9-18.9,16.3-28.7,25.1c-13.3,11.9-26.4,22.4-40.1,33.2c-4.9,4.3-11,6.3-13.5,4.4c-1.5-1.2-1.5-3.5-0.1-6.1
								c-0.4,0.3-0.9,0.6-1.3,0.9l-2.2,1.3c-2.1,1.2-4.2,1.8-5.9,1.8l-2.2,0.1c-3.4-0.5-7.7,0.2-10.8-0.7l-0.3-1l-0.5,0.1
								c-1.6,0.4-3,0.2-3.9-0.3l-0.6-1c-0.6-1.3-0.8-2.7-0.5-4.4c-0.3-0.4-0.5-0.8-0.6-1.4c-1.6-0.3-2.7-1-2.9-2.6
								c-0.7,0.1-0.9-0.4-0.5-1.1c0.1-0.2,0.3-0.5,0.6-0.7c0,0,0,0,0,0c-0.5,0-0.6,0-1.2,0c-0.5,0.3-0.9,0.5-0.9,0.5
								c-1.4,0.8-1.4,0.8-2.7,1.6c-1.2,0.4-2.2,0.4-2.2,0.4c-2.4-0.8-2.4-0.8-2.8-1.7c0-0.1,0-0.2,0-0.4c-1,0.4-1.1,0.5-1.4,0.6
								c-0.3,0.1-0.6,0-0.6,0c-0.3-0.4-0.3-0.4-0.6-0.4c-0.2-0.1-0.3-0.3-0.3-0.3c0.1-0.8,0.1-0.8,0.1-0.9c0-0.2,0.1-0.4,0.1-0.4
								c0.5-0.6,0.6-0.8,0.7-0.9c2,0.1,2,0.1,2,0.1c0-0.5,0-0.5,0-0.5c0.6,0.2,0.6,0.2,0.6,0.2c-0.5-0.3-0.5-0.3-0.5-0.3
								c0.8-0.2,0.8-0.2,0.8-0.2c-1,0.2-1,0.2-1,0.2c1.6-1,1.6-1,2.1-1.4c0.6-0.4,1.1-0.9,1.1-1c-0.2-0.1-0.2-0.2-0.2-0.2
								c1.7-1,1.7-1,3.3-2c0.2,0,0.4,0,0.6,0c0.1-0.2,0.3-0.5,0.6-0.7c0.3-0.2,0.6-0.4,0.8-0.5c0-0.1,0.1-0.1,0.1-0.2c0,0,0,0,0,0
								c0.2-0.3,0.3-0.5,0.5-0.7c0.1-0.1,0.1-0.2,0.1-0.2c0,0,0,0,0,0c0.3-0.5,0.9-1.2,2.2-3.1c0.5-0.3,1-0.6,1.5-0.8
								c-0.2,0-0.4,0.1-0.5,0.1c-0.3,0.1-0.4-0.5-0.6-0.4c-3.9,1.8-7.7,4.2-11.5,6.5c-0.6,0.5-1.4,0.8-1.7,0.5
								c-0.3-0.2-0.1-0.9,0.5-1.4c5.6-7.5,14.5-14,23.1-18.1c2.1-1.3,4.1-2.6,6.2-4c-0.1,0-0.3,0-0.4,0c0.6-0.3,1.2-0.6,1.7-0.9
								c0.1,0,0.1-0.1,0.2-0.1c-0.6,0.1-1.1,0.1-1.7,0.2c-0.3,0.1-0.6,0.3-0.9,0.4c-4.7,3.2-9.6,5.3-14.5,8.1
								c-2.6,1.5-5.1,2.4-7.7,3.6c-0.6,0.4-1.2,0.5-1.3,0.1c-0.1-0.3,0.2-0.9,0.8-1.3c7-6.2,15.8-12.3,23.5-14.6
								c1.4-1,2.8-1.9,4.2-2.3c0,0,0,0,0.1,0c-0.4,0-0.8,0-1.3,0.1c1.1-0.6,2-0.6,3.1-1.1c-0.3-0.2-0.6-0.3-0.9-0.5
								c5.3-3.4,10.5-7.8,16-10.2c0.2-0.1,0.4-0.2,0.6-0.3c1.6-2.1,3.2-4.2,5.5-6c-0.9,0.5-1.7,1.1-2.6,1.6c1.4-1.7,3-3.2,4.8-4.6
								c5-3.8,11.4-6.9,15.6-6.9c9.4-7.7,18.8-15.3,28-23.2c0.5-0.4,1-0.6,1.3-0.4c0.2,0.2,0.1,0.7-0.4,1.1
								c-6.2,6.1-12.9,11.9-19.5,17.7c6.1-4.1,12.3-8.3,18.3-12.9c0.7-0.6,1.5-1.3,2.2-1.9c0.7-0.6,1.5-1.1,2.4-1.6
								c7.6-5.9,15-11.4,22.3-18c6.3-5.7,11.7-10.7,17.7-16.5c8.5-8.2,16.2-15.8,25.3-22.9c1.2-1,2.6-1.5,3.2-1
								c0.6,0.5,0.1,1.7-1,2.7c-17.7,16.7-34.8,33.5-55,48.7c-2.2,1.6-4.3,3.3-6.5,4.9c0.1,0.1,0.2,0.1,0.2,0.2
								c0.2,0.3,0.3,0.8,0.1,1.3c2.5-1.8,5-3.5,7.5-5.3c6.2-5.9,12.5-11.8,19.9-17.1c5.1-3.6,10.1-6.4,15.2-9.3
								c5.5-4.9,10.9-9.8,16.5-14.7c0.2-0.2,0.5-0.4,0.7-0.3c0.2,0,0.1,0.3-0.1,0.5c-3.5,3.8-7.1,7.6-10.9,11.3c0.9-0.1,1.7,0,2,0.6
								c0.4,0.6,0.2,1.4-0.3,2.4c1-0.7,1.9-1.4,2.9-2.2c0.6-0.4,1.2-0.6,1.4-0.3c0.2,0.3-0.1,0.9-0.6,1.3c-3.9,3-7.7,5.9-11.6,8.8
								c-4.4,3.9-8.8,7.7-13.2,11.5c0.9-0.1,1.7-0.1,2.3,0.2c0,0,0,0,0,0c0.7-0.6,1.4-1.1,2.1-1.7c11.9-11.6,24.6-22.8,38.2-33
								c0.3-0.2,0.6-0.3,0.7-0.2c0.1,0.1,0,0.4-0.3,0.6c-4.1,3.1-8.2,6.2-12.1,9.5c0,0,0,0,0,0c0.2-0.1,0.4,0.1,0.2,0.3
								c-0.1,0.2-0.4,0.4-0.6,0.5c-0.3,0.1-0.3-0.1-0.2-0.3c-7.4,6-14.4,12.4-21.2,18.8c6.7-5.4,13.5-10.8,20.6-15.9
								c0.6-0.7,1.2-1.5,1.9-2.2c0.2-0.2,0.5-0.3,0.7-0.3c0.1,0.1,0.1,0.3-0.1,0.5c-0.2,0.2-0.4,0.4-0.5,0.6c1.3-1,2.7-1.2,3.2-0.6
								c0.4,0.7-0.3,2.1-1.6,3.1c-3.5,2.9-7,5.8-10.6,8.6c-0.4,0.3-0.7,0.7-1.1,1c-0.3,0.4-0.6,0.8-0.9,1.2
								c5.8-4.1,11.6-8.1,17.4-12.1c0.5-0.4,1-0.5,1.2-0.3c0.2,0.2,0,0.7-0.5,1.1c-9,8.5-18.4,16.8-28,24.9c-2.5,3.5-5,7-7.6,10.6
								c0.4-0.3,0.9-0.6,1.3-1c10.8-8.4,17.8-18.3,27.8-27c0.2-0.2,0.5-0.3,0.7-0.2c0.1,0.1,0,0.3-0.2,0.6
								c-4.8,4.3-8.7,8.9-13.2,13.5c-3.8,3.8-7.3,7.4-10.7,11.2c7.8-6.5,14.4-13.6,21.9-20.3c0.3-0.3,0.7-0.5,1-0.6
								c0-0.1,0-0.2,0.1-0.3c0.7-1.1,1.6-2.1,2.6-3.2c0.2-0.2,0.5-0.4,0.7-0.3C426.6,195.1,426.6,195.3,426.4,195.6z M277.5,289.8
								c-0.1,0-0.2,0-0.3,0c0.3-0.1,0.6-0.2,0.9-0.3c0,0,0,0,1.7,0.2C279.8,289.6,278.7,289.7,277.5,289.8z M268,302.6
								C268,302.6,268,302.6,268,302.6c-0.6-0.1-1-0.1-1-0.1C267.4,302.6,267.7,302.6,268,302.6z M339.6,234.1
								c-4.2,3.2-8.5,6.2-13.1,8.9c1-0.8,1.9-1.7,2.9-2.5C332.7,238.3,336.1,236.2,339.6,234.1z M266.7,292.6
								c1.5-0.4,2.8-0.4,4.1-0.5c0.6-0.7,1.4-1.3,2.2-1.9c2.1-1.5,4.2-3,6.3-4.3c-0.5-0.1,0-0.5,0.2-0.7c0.2-0.2,0.5-0.4,0.7-0.7
								c-2.3,1.4-4.6,2.8-7,4.2C271,290.1,268.8,291.6,266.7,292.6z M252.9,305.3c-0.1,0-0.2,0-0.3,0c0,0,0,0,0-0.8
								C252.7,304.5,252.8,304.9,252.9,305.3z M252.9,306.6c0.1-0.1,0.2-0.1,0.4-0.2C253.3,306.7,253.2,306.7,252.9,306.6z
								 M256.2,305.1c-0.3,0-0.4,0-0.6,0C256.2,305.1,256.2,305.1,256.2,305.1z M269.3,317.9l-0.8-3.3l0.6,3.3L269.3,317.9z"/>
						</g>
					</g>
				</g>
			</g>
		</g>
		<g>
			<g>
				<g>
					<g>
						<path class="st0" d="M237.4,330.5c-0.1-0.2-0.2-0.4-0.3-0.7c0.5,0.1,1,0.5,1.5,1c-4-6.3-12.2-10.7-18.4-12.4
							c-1.6-1.4-3.6-2-4.4-1.3c-0.8,0.7-0.1,2.4,1.5,3.8c0.3,0.4,0.7,0.8,0.9,1.1c1.5,3.1,3.8,6.3,6.5,9.5c-0.4-0.7-0.9-1.5-1.4-2.2
							c0.8,0.9,1.6,1.9,2.6,2.7c0-0.2,0-0.5,0-0.7c2.4,3.6,7.2,6.7,10.6,6.9c3.5,0.2,4.3-2.5,1.9-6.1L237.4,330.5z"/>
						<path class="st0" d="M235,321.1c1.5,2,3,4.1,4.4,6.1l0.2,0.6l0.8-1.3l-0.1,0.1c-2.6-0.3-5.8-2.1-8.7-3.9l-1.1-0.6
							c-0.6-0.2-1.1-0.2-1.4,0c-0.7,0.4-0.3,1.6,0.9,2.7l1.3,1.2c2.9,3.4,8.4,7.7,12,7.1c0.8-0.1,0.9-1.1,1.3-1.7
							c0.8-0.7,0-2.5-1.7-3.9c-1.7-1.4-3.7-2-4.4-1.2c-0.2-0.3-0.5-0.6-0.8-0.9c0.3,0.1,0.6,0.2,0.9,0.2c-1.1,0.3-2.8-0.7-4.2-1.3
							l-1.9-1.2l-0.5,2.7l1.1,0.5c0-0.1,0-0.4,0-0.4c2.2,0.8,4.2,1.6,6.4,2.7l3,1.2c0.9,0.1,1.3-0.5,0.8-1.3l-0.7-1.3
							c0.1,0.2,0.2,0.4,0.3,0.6c-2.1-2.4-4.5-4.6-6.6-7c-0.3-0.4-0.8-0.7-1.2-0.6C234.7,320.3,234.7,320.7,235,321.1z"/>
						<g>
							<path class="st0" d="M243.9,327.6c0.3,0.5,0.5,0.9,1.1,1.3c0.2,0,0.3,0,0.4,0c-0.1-0.3-0.3-0.6-0.5-0.9
								C244.5,327.3,244.1,327.3,243.9,327.6z"/>
							<path class="st0" d="M245.4,328.9c0.1,0.2,0.2,0.4,0.2,0.4c0-0.1-0.1-0.2-0.1-0.4C245.5,329,245.5,329,245.4,328.9
								C245.5,329,245.5,329,245.4,328.9z"/>
							<path class="st0" d="M134.7,248.5c-7.3-6.4-14.8-12.6-22.3-18.8c-0.3-0.2-0.5-0.3-0.6-0.2c-0.1,0.1,0,0.4,0.3,0.5
								c7.5,6.2,14.9,12.4,22.3,18.8c0.3,0.2,0.5,0.3,0.7,0.2C135,249,134.9,248.7,134.7,248.5z"/>
							<path class="st0" d="M86.6,192c0.3,0.1,0.3-0.1,0.2-0.3c-0.1-0.2-0.4-0.4-0.6-0.5c-0.2,0-0.3,0.1-0.2,0.3
								C86.1,191.8,86.4,192,86.6,192z"/>
							<path class="st0" d="M95.5,183.9c1.2,0.7,2.4,1.3,3.5,1.6c0.2,0.1,0.4,0.2,0.5,0.4c0.1-0.2,0.4-0.3,0.9,0
								c8.9,4.3,17.6,10.1,26.3,15.5c0.2-0.1,0.4-0.2,0.7-0.2c0.9,0,2.3,0.6,3.3,1.6l0.8,0.8c3.3,3,6.7,6,10,9.1
								c0.9,0.3,1.8,0.8,2.8,1.5c3.5,1.8,7,3.6,10.5,5.6c-0.1-0.3-0.1-0.5,0-0.7c0.4-0.4,1.3-0.1,2.2,0.6c0.4,0.3,0.9,0.6,1.3,1
								c-1.1-1.1-2.3-2.1-3.4-3.2c-0.2-0.1-0.3-0.3-0.4-0.4c-1.3-1.1-2.7-2.1-4.1-3.1c-12.3-9-24.9-16.2-37.5-23.1
								c-0.2-0.1-0.5-0.3-0.6-0.5c0-0.2,0.1-0.3,0.3-0.2c8.7,3.4,16.9,5.4,26,10.3c10.8,5.8,21.3,11.7,31.8,18.2
								c10.2,7.9,20.4,14.3,31.4,21.6c14.8,9.9,28.3,20.1,42.1,30.7c5.4,3.7,8.8,9.1,7.6,12c-0.8,1.8-3,2.3-5.9,1.6
								c0.4,0.3,0.8,0.7,1.2,1l1.8,1.8c1.7,1.8,2.8,3.6,3.2,5.2l0.6,2.1c0.3,3.4,2.1,7.4,2,10.6l-0.9,0.5l0.2,0.5
								c0.7,1.5,1,2.8,0.6,3.8l-0.8,0.8c-1.1,0.9-2.4,1.4-4.1,1.6c-0.3,0.4-0.7,0.7-1.2,0.9c0.1,1.6-0.3,2.9-1.8,3.5
								c0.3,0.7-0.1,1-0.9,0.8c-0.3-0.1-0.5-0.2-0.8-0.4c0,0,0,0,0,0c0.1,0.5,0.1,0.6,0.3,1.1c0.4,0.5,0.7,0.7,0.7,0.7
								c1.2,1.2,1.2,1.2,2.2,2.2c0.7,1.1,0.9,2,0.9,2c-0.2,2.5-0.2,2.5-1,3.1c-0.1,0-0.2,0-0.4,0c0.7,0.9,0.7,1,0.9,1.2
								c0.1,0.3,0.2,0.6,0.2,0.6c-0.3,0.4-0.3,0.4-0.2,0.7c-0.1,0.2-0.2,0.3-0.2,0.3c-0.8,0.1-0.8,0.1-0.9,0.2c-0.2,0-0.4,0-0.4,0
								c-0.7-0.3-0.9-0.4-1-0.5c-0.4-1.9-0.4-1.9-0.4-1.9c-0.5,0.1-0.5,0.1-0.5,0.1c0.1-0.7,0.1-0.7,0.1-0.7
								c-0.2,0.5-0.2,0.5-0.2,0.5c-0.4-0.7-0.4-0.7-0.4-0.7c0.4,0.9,0.4,0.9,0.4,0.9c-1.3-1.3-1.3-1.3-1.9-1.7
								c-0.6-0.5-1.1-0.8-1.2-0.8c-0.1,0.2-0.1,0.3-0.1,0.3c-1.4-1.4-1.4-1.4-2.8-2.7c-0.1-0.2-0.1-0.4-0.1-0.5
								c-0.2,0-0.6-0.2-0.8-0.4c-0.2-0.2-0.5-0.5-0.7-0.7c-0.1,0-0.1,0-0.2-0.1c0,0,0,0,0,0c-0.3-0.1-0.6-0.2-0.8-0.3
								c-0.2-0.1-0.2-0.1-0.2-0.1c0,0,0,0,0,0c-0.6-0.2-1.4-0.5-3.5-1.4c-0.4-0.4-0.8-0.8-1.1-1.2c0.1,0.2,0.2,0.3,0.2,0.5
								c0.1,0.3-0.4,0.5-0.3,0.7c2.7,3.3,6,6.4,9.2,9.6c0.7,0.4,1.1,1.1,0.9,1.5c-0.2,0.4-0.8,0.3-1.5-0.2
								c-8.7-3.5-17.2-10.6-23.3-17.9c-1.8-1.7-3.6-3.4-5.4-5c0,0.1,0.1,0.3,0.1,0.4c-0.4-0.5-0.9-1-1.3-1.5c0,0-0.1-0.1-0.2-0.1
								c0.2,0.5,0.4,1,0.6,1.6c0.2,0.3,0.4,0.5,0.6,0.8c4.3,3.8,7.6,8,11.4,12.1c2.1,2.2,3.6,4.4,5.4,6.6c0.5,0.5,0.7,1,0.5,1.3
								c-0.3,0.2-0.9,0-1.5-0.5c-7.7-5.3-15.8-12.2-19.9-19.1c-1.3-1.1-2.5-2.3-3.2-3.5c0,0,0,0-0.1-0.1c0.1,0.4,0.3,0.8,0.4,1.2
								c-0.9-0.9-1.1-1.8-1.8-2.7c-0.1,0.3-0.2,0.7-0.3,1c-4.6-4.3-10.1-8.3-13.9-13c-0.2-0.2-0.3-0.3-0.5-0.5c-2.4-1-4.8-2-7.2-3.8
								c0.7,0.7,1.4,1.4,2.2,2.1c-2-1-3.8-2.1-5.6-3.5c-4.9-3.9-9.5-9.4-10.5-13.4c-9.8-7.2-19.5-14.5-29.4-21.4
								c-0.5-0.3-0.8-0.9-0.7-1.2c0.1-0.3,0.6-0.2,1.1,0.1c7.5,4.5,14.7,9.5,22,14.6c-5.5-4.9-11.1-9.8-17-14.6
								c-0.8-0.6-1.6-1.1-2.4-1.7c-0.8-0.6-1.5-1.2-2.2-1.9c-7.6-5.9-14.7-11.7-23-17.2c-7-4.7-13.2-8.7-20.4-13.1
								c-10.1-6.2-19.3-11.8-28.5-18.9c-1.3-0.9-2.1-2.2-1.8-2.9c0.3-0.7,1.6-0.5,2.9,0.3c20.5,13.1,41,25.5,60.8,41.3
								c2.1,1.7,4.2,3.4,6.3,5.1c0-0.1,0.1-0.2,0.1-0.3c0.2-0.3,0.7-0.5,1.2-0.4c-2.3-1.9-4.7-3.9-6.9-6
								c-7.3-4.6-14.5-9.2-21.5-15.1c-4.7-4.1-8.7-8.2-12.7-12.4c-6.1-4.1-12.2-8.2-18.3-12.4c-0.3-0.1-0.5-0.4-0.5-0.6
								c0-0.2,0.2-0.2,0.5-0.1c4.6,2.4,9.1,5.1,13.7,7.8c-0.4-0.9-0.4-1.6,0.1-2.1c0.5-0.5,1.3-0.6,2.4-0.3
								c-0.9-0.7-1.9-1.5-2.8-2.2c-0.6-0.5-0.9-1-0.6-1.3c0.2-0.3,0.9-0.1,1.4,0.3c3.8,3,7.6,6,11.4,9.1c4.8,3.3,9.6,6.6,14.4,10
								c-0.4-0.9-0.5-1.7-0.3-2.3c0,0,0,0,0,0c-0.7-0.5-1.4-1.1-2.2-1.6c-14.2-8.6-28.2-18.2-41.4-28.9c-0.3-0.2-0.4-0.5-0.3-0.6
								c0.1-0.1,0.4-0.1,0.6,0.1c4,3.2,8,6.4,12.2,9.4c0,0,0,0,0,0c-0.1-0.2,0-0.4,0.2-0.3c0.2,0,0.5,0.3,0.6,0.5
								c0.1,0.2,0,0.4-0.2,0.3c7.7,5.6,15.5,10.9,23.5,15.9c-6.9-5.2-13.8-10.4-20.5-16c-0.9-0.4-1.7-0.8-2.6-1.3
								c-0.2-0.1-0.4-0.4-0.4-0.6c0-0.1,0.3-0.2,0.5,0c0.2,0.1,0.5,0.2,0.7,0.4c-1.3-1.1-1.9-2.3-1.3-3c0.6-0.6,2.1-0.2,3.4,0.8
								c3.7,2.7,7.3,5.4,10.9,8.2c0.4,0.3,0.8,0.5,1.3,0.8c0.5,0.2,0.9,0.4,1.4,0.6c-5.4-4.6-10.7-9.2-16-13.9
								c-0.5-0.4-0.7-0.9-0.6-1.1c0.2-0.2,0.7-0.1,1.2,0.2c10.5,6.7,20.8,13.7,31.1,21c4,1.6,8.1,3.1,12.1,4.7
								c-0.4-0.3-0.8-0.7-1.2-1c-10.8-8.4-22.1-12.7-33-20.3c-0.3-0.2-0.4-0.4-0.4-0.6c0.1-0.1,0.3-0.1,0.6,0.1
								c5.4,3.6,10.8,6.2,16.4,9.5c4.6,2.7,9,5.3,13.5,7.6c-8.2-5.9-16.7-10.6-25-16.2c-0.4-0.2-0.7-0.5-0.8-0.8
								c-0.1,0-0.2,0.1-0.3,0c-1.2-0.5-2.5-1.1-3.7-1.7c-0.3-0.1-0.5-0.4-0.5-0.6C95,183.8,95.2,183.8,95.5,183.9z M223.5,305
								c0,0.1,0.1,0.2,0.1,0.3c-0.2-0.2-0.3-0.5-0.5-0.8c0,0,0,0-0.3-1.7C222.9,302.8,223.2,303.9,223.5,305z M238.4,311.1
								C238.4,311.1,238.4,311.1,238.4,311.1c0.1,0.5,0.1,0.9,0.1,0.9C238.4,311.6,238.4,311.3,238.4,311.1z M154.3,258.6
								c4.2,3.3,8.1,6.7,11.8,10.5c-1-0.7-2.1-1.5-3.1-2.2C160.1,264.2,157.2,261.4,154.3,258.6z M229,314.8
								c-0.7-1.3-1.1-2.6-1.5-3.8c-0.8-0.5-1.6-1-2.3-1.6c-2-1.7-3.9-3.4-5.8-5.1c0,0.5-0.4,0.1-0.7,0c-0.3-0.2-0.5-0.3-0.8-0.5
								c1.9,1.9,3.8,3.8,5.8,5.7C225.4,311.2,227.4,313,229,314.8z M244.7,325c0,0.1,0.1,0.2,0.1,0.3c0,0,0,0-0.8,0.2
								C244,325.5,244.3,325.3,244.7,325z M245.9,324.7c-0.1-0.1-0.2-0.2-0.2-0.3C245.9,324.3,246,324.4,245.9,324.7z M243.6,321.9
								c0.1,0.3,0.1,0.4,0.2,0.6C243.6,321.9,243.6,321.9,243.6,321.9z M252.8,306.1l-3,1.6l3-1.4L252.8,306.1z"/>
						</g>
					</g>
				</g>
			</g>
		</g>
		<g>
			<g>
				<g>
					<g>
						<path class="st0" d="M278.8,322.3c-0.1,0.2-0.2,0.3-0.3,0.5c-0.2-0.3-0.2-0.7-0.1-1.2c-2.5,4.9-1,11.2,1.5,15.4
							c-0.1,1.5,0.7,2.8,1.7,2.9c1,0.1,1.9-1,2-2.5c0.1-0.3,0.2-0.7,0.4-1c1.6-2.1,2.7-4.8,3.5-7.6c-0.3,0.6-0.6,1.1-0.9,1.7
							c0.2-0.8,0.5-1.7,0.5-2.6c-0.2,0.1-0.4,0.2-0.6,0.3c1.4-2.9,0.9-6.8-1.1-8.8c-2-2-4.7-1.3-6,1.6L278.8,322.3z"/>
						<path class="st0" d="M272.8,327.6c0.7-1.7,1.4-3.4,2.1-5l0.4-0.3l-1.6,0.1l0.1,0c1.3,1.5,1.9,4.1,2.2,6.4l0.2,0.8
							c0.2,0.4,0.5,0.7,0.8,0.8c0.8,0.2,1.5-0.5,1.6-1.6l0.1-1.3c0.9-3.1,0.9-7.9-1.7-9.6c-0.6-0.4-1.4,0-2.1,0c-1-0.1-2,1-2,2.6
							c-0.1,1.5,0.7,2.9,1.8,3c-0.1,0.3-0.1,0.5-0.2,0.8c-0.1-0.2-0.2-0.4-0.4-0.6c0.9,0.4,1.1,1.8,1.6,2.9l0.3,1.6l2.4-0.9
							l-0.3-0.8c-0.1,0.1-0.3,0.2-0.3,0.2c-0.7-1.5-1.3-3-1.8-4.7l-0.9-2.1c-0.5-0.6-1.2-0.5-1.6,0.1l-0.5,0.9
							c0.1-0.1,0.2-0.3,0.3-0.4c-0.6,2.2-0.9,4.5-1.5,6.6c-0.1,0.3,0,0.8,0.2,0.9C272.4,328.1,272.7,328,272.8,327.6z"/>
						<g>
							<path class="st0" d="M272.5,319.9c0.2-0.4,0.4-0.7,0.3-1.2c-0.1-0.1-0.2-0.2-0.2-0.2c-0.1,0.2-0.3,0.4-0.4,0.7
								C271.9,319.7,272.1,320,272.5,319.9z"/>
							<path class="st0" d="M272.6,318.5c0.1-0.2,0.2-0.3,0.2-0.3C272.7,318.3,272.6,318.4,272.6,318.5
								C272.6,318.5,272.6,318.5,272.6,318.5C272.6,318.5,272.6,318.5,272.6,318.5z"/>
							<path class="st0" d="M277.1,413.7c-0.5,6.7-0.9,13.5-1.1,20.3c0,0.2,0.1,0.4,0.3,0.4c0.1,0,0.3-0.2,0.3-0.4
								c0.3-6.8,0.6-13.5,1.1-20.2c0-0.2-0.1-0.4-0.2-0.4C277.3,413.3,277.1,413.4,277.1,413.7z"/>
							<path class="st0" d="M262,464.1c-0.1-0.2-0.3-0.2-0.4,0c-0.1,0.1-0.1,0.4,0,0.6c0.1,0.1,0.3,0.1,0.4,0
								C262.1,464.5,262.1,464.3,262,464.1z"/>
							<path class="st0" d="M250.1,462.7c-0.2-0.9-0.5-1.8-0.9-2.6c-0.1-0.1,0-0.3,0-0.4c-0.2,0.1-0.5-0.1-0.6-0.5
								c-2-6.7-2.8-13.9-3.9-21.1c-0.2,0-0.4-0.1-0.6-0.3c-0.6-0.5-0.9-1.5-0.8-2.5l0.2-0.8c0.4-3.1,0.6-6.2,1-9.3
								c-0.3-0.6-0.5-1.4-0.5-2.2c-0.8-2.7-1.5-5.4-2-8.1c-0.2,0.2-0.4,0.3-0.6,0.3c-0.5-0.1-0.9-0.7-0.9-1.4c0-0.4,0-0.8,0-1.1
								c-0.1,1.1-0.3,2.2-0.4,3.2c0,0.2,0,0.3-0.1,0.4c0,1.2,0,2.4,0,3.6c0.5,10.6,2.5,20.6,4.8,30.4c0.1,0.2,0.1,0.4-0.1,0.6
								c-0.1,0.1-0.3,0.1-0.4-0.1c-2.6-6.2-6.1-11.6-7.8-18.7c-2.1-8.4-3.8-16.7-5.1-25.3c0-9-1.3-17.3-2.2-26.5
								c-1.3-12.4-1.5-24.1-1.6-36.2c-0.4-4.5,1.8-8.7,4.9-9.3c1.9-0.3,3.7,0.7,4.9,2.6c0-0.4,0-0.7,0-1.1l0.4-1.8
								c0.4-1.7,1.1-3.1,2.2-4l1.3-1.2c2.5-1.6,4.5-4.3,7.1-5.6l1,0.3l0.3-0.3c0.7-1,1.6-1.7,2.6-2l1.2,0.1c1.4,0.2,2.6,0.7,3.8,1.6
								c0.5,0,1,0.1,1.5,0.3c1.2-0.7,2.5-1.1,3.9-0.5c0.3-0.4,0.9-0.4,1.2,0.2c0.1,0.2,0.2,0.4,0.2,0.6c0,0,0,0,0,0
								c0.3-0.2,0.4-0.3,0.7-0.6c0.1-0.4,0.2-0.7,0.2-0.7c0.2-1.1,0.2-1.1,0.4-2.1c0.4-0.8,1-1.4,1-1.4c2.1-0.9,2.1-0.9,3-0.8
								c0.1,0.1,0.2,0.1,0.3,0.2c0.3-0.8,0.3-0.8,0.4-1c0.2-0.2,0.4-0.4,0.4-0.4c0.5,0,0.5,0,0.7-0.2c0.2,0,0.4,0,0.4,0
								c0.5,0.4,0.5,0.4,0.7,0.4c0.1,0.1,0.3,0.2,0.3,0.2c0.2,0.5,0.2,0.7,0.3,0.8c-1.3,1.1-1.3,1.1-1.3,1.1
								c0.4,0.2,0.4,0.2,0.4,0.2c-0.6,0.2-0.6,0.2-0.6,0.2c0.5-0.1,0.5-0.1,0.5-0.1c-0.3,0.5-0.3,0.5-0.3,0.5
								c0.5-0.6,0.5-0.6,0.5-0.6c-0.2,1.3-0.2,1.3-0.2,1.8c-0.1,0.5,0.1,1,0.1,1c0.2,0,0.3,0,0.3,0c-0.2,1.3-0.2,1.3-0.4,2.7
								c-0.1,0.1-0.2,0.2-0.4,0.3c0.1,0.1,0.2,0.4,0.2,0.6c0,0.2-0.1,0.5-0.1,0.7c0,0.1,0.1,0.1,0.1,0.1c0,0,0,0,0,0
								c0.1,0.2,0.2,0.4,0.2,0.6c0.1,0.1,0.1,0.1,0.1,0.1c0,0,0,0,0,0c0.2,0.4,0.4,1,1.1,2.5c-0.1,0.4-0.2,0.8-0.3,1.1
								c0.1-0.1,0.2-0.2,0.2-0.3c0.2-0.2,0.6,0,0.7-0.1c1-2.9,1.4-6,1.9-9.1c-0.1-0.6,0.2-1.1,0.6-1.2c0.4-0.1,0.7,0.3,0.8,0.9
								c2.5,6.3,2.2,14,0.2,20.4c-0.2,1.7-0.5,3.4-0.7,5.1c0.1-0.1,0.2-0.2,0.2-0.2c-0.1,0.4-0.2,0.9-0.4,1.3c0,0,0,0.1,0,0.1
								c0.3-0.3,0.6-0.7,0.9-1c0.1-0.2,0.2-0.5,0.2-0.7c0.4-4,1.7-7.6,2.5-11.4c0.5-2.1,1.3-3.8,1.9-5.8c0-0.5,0.4-0.8,0.7-0.8
								c0.3,0.1,0.6,0.5,0.5,1c0.6,6.5,0,13.9-2.9,19.1c0,1.2-0.3,2.3-0.8,3.3c0,0,0,0,0,0.1c0.2-0.2,0.5-0.5,0.7-0.7
								c-0.2,0.9-0.8,1.4-1,2.2c0.3-0.1,0.6-0.2,1-0.3c-0.6,4.4-0.3,9.1-1.7,13.1c0,0.2-0.1,0.3-0.1,0.5c0.7,1.7,1.3,3.5,1.4,5.6
								c0.1-0.7,0.2-1.4,0.3-2.1c0.4,1.5,0.7,3,0.7,4.6c-0.1,4.3-1.6,9.2-4.1,11.5c0.3,8.4,0.6,16.9,1.2,25.3c0,0.4-0.2,0.8-0.5,0.9
								c-0.3,0-0.6-0.2-0.6-0.7c-1-6-1.5-12.2-2-18.3c-0.5,5.1-1,10.3-1.1,15.5c0,0.7,0.1,1.3,0.1,2c0,0.7,0,1.3-0.2,2
								c0,6.7-0.2,13.1,0.5,19.9c0.6,5.8,1.3,11,2.2,16.8c1.3,8.2,2.6,15.6,2.6,23.7c0.1,1.1-0.4,2.1-1.2,2.2
								c-0.7,0.1-1.4-0.6-1.5-1.7c-2.3-16.8-5.1-33.4-4.7-51c0-1.9,0.1-3.8,0.1-5.6c-0.1,0-0.2,0-0.3,0c-0.4,0-0.8-0.2-1.1-0.5
								c-0.1,2.1-0.3,4.2-0.5,6.4c0.8,5.9,1.7,11.9,1.3,18.2c-0.3,4.3-1.2,8.3-2,12.3c0.5,5.1,1,10.2,1.4,15.3
								c0.1,0.2,0,0.4-0.2,0.5c-0.1,0.1-0.3,0-0.3-0.2c-0.9-3.5-1.6-7.2-2.2-10.8c-0.5,0.6-1.1,0.9-1.7,0.9c-0.7,0-1.3-0.5-1.7-1.2
								c0,0.8,0,1.7,0,2.5c0,0.5-0.3,0.9-0.6,0.9c-0.4,0-0.6-0.4-0.6-0.9c0-3.4,0.1-6.8,0.1-10.1c-0.4-4.1-0.7-8.1-1-12.2
								c-0.4,0.6-1,1-1.6,1.2c0,0,0,0,0,0c0,0.6,0,1.3,0.1,1.9c1.9,11.5,2.9,23.2,2.6,35.1c0,0.2-0.1,0.4-0.3,0.4
								c-0.2,0-0.3-0.2-0.3-0.4c0.1-3.6,0.1-7.1,0-10.7c0,0,0,0,0,0c-0.1,0.1-0.3,0.2-0.4,0c-0.1-0.1-0.1-0.4,0-0.6
								c0.1-0.2,0.3-0.1,0.4,0c-0.3-6.6-0.9-13.2-1.9-19.7c0.2,6,0.3,12.1,0,18.1c0.2,0.7,0.4,1.3,0.6,2c0,0.2-0.1,0.4-0.2,0.5
								c-0.1,0.1-0.3-0.1-0.3-0.3c0-0.2-0.1-0.4-0.1-0.6c-0.1,1.1-0.7,2-1.5,2c-0.8-0.1-1.5-1-1.4-2.2c-0.2-3.2-0.2-6.3-0.3-9.5
								c0-0.3-0.1-0.7-0.1-1c-0.1-0.3-0.3-0.7-0.4-1c-0.3,4.9-0.7,9.8-1.1,14.7c0,0.4-0.2,0.8-0.5,0.8c-0.3,0-0.5-0.3-0.5-0.7
								c-1.2-8.6-1.9-17.3-2.5-26c-1.2-2.9-2.5-5.7-3.7-8.7c0,0.4,0,0.7,0,1.1c0,9.5,3.5,17.6,4.3,26.7c0,0.2-0.1,0.4-0.2,0.5
								c-0.1,0-0.3-0.1-0.3-0.4c-0.5-4.5-1.7-8.6-2.5-13c-0.7-3.7-1.4-7.2-2.3-10.6c0.3,7,1.9,13.7,2.6,20.7c0.1,0.3,0,0.6-0.2,0.8
								c0.1,0,0.2,0.1,0.2,0.2c0.4,0.9,0.7,1.8,0.9,2.8c0.1,0.2,0,0.4-0.2,0.5C250.4,463,250.2,462.9,250.1,462.7z M267.1,340.8
								c0.1-0.1,0.1-0.1,0.2-0.2c-0.1,0.2-0.2,0.4-0.3,0.6c0,0,0,0-1.2,0.9C265.8,342.1,266.5,341.4,267.1,340.8z M262.8,330.1
								C262.8,330.1,262.8,330.1,262.8,330.1c0.4-0.3,0.7-0.5,0.7-0.5C263.2,329.8,263,329.9,262.8,330.1z M273,398.6
								c0-3.7,0.3-7.3,1-11c0.1,0.9,0.1,1.8,0.2,2.7C273.9,393,273.5,395.8,273,398.6z M271.6,333.6c-0.6,1-1.4,1.7-2.1,2.4
								c0.1,0.6,0.2,1.3,0.2,2c-0.1,1.8-0.2,3.6-0.5,5.3c0.4-0.2,0.4,0.2,0.4,0.4c0,0.2,0.1,0.4,0.1,0.7c0.3-1.9,0.6-3.7,1-5.6
								C270.9,337.1,271.1,335.2,271.6,333.6z M270,320.6c0.1-0.1,0.1-0.1,0.2-0.2c0,0,0,0,0.6,0.3
								C270.7,320.8,270.4,320.7,270,320.6z M268.9,320.1c0,0.1-0.1,0.2-0.1,0.3C268.6,320.3,268.7,320.2,268.9,320.1z M268.2,322.5
								c0.2-0.1,0.3-0.2,0.3-0.3C268.2,322.5,268.2,322.5,268.2,322.5z M250,324.3l3.1,1l-3-1L250,324.3z"/>
						</g>
					</g>
				</g>
			</g>
		</g>
	</g>
	<g>
		<g>
			<g>
				<g>
					<path class="st4" d="M243.7,141.2c13.2-2.3,26.9-2.3,39.9,0c6.5,1.1,12.9,2.7,19,4.7c6.1,2.1,12,4.4,17.4,7.2
						c-8.8-4.4-18.1-7.8-27.7-10c7.2,1.7,13.6,4,19.8,6.9c6.2,2.9,12.1,6.4,18.1,10.8c-1.1-0.4-2.4-1-3.8-1.7
						c-1.4-0.7-2.9-1.5-4.3-2.3c-1.4-0.8-2.9-1.4-4.1-1.8c-1.2-0.4-2.2-0.7-2.9-0.6c-15.8-7.6-33.2-12.1-50.8-13.2
						c-17.6-1.1-35.5,1.3-52.1,7.4c5.8-4.3,11.5-5.8,16.7-6.3C234.2,141.6,238.9,142,243.7,141.2z"/>
					<path class="st4" d="M358.1,188.3c-1.2-1.3-2.3-2.6-3.4-3.9c-1.1-1.3-2.3-2.5-3.5-3.7C353.8,183.1,356.2,185.7,358.1,188.3z"/>
					<path class="st4" d="M160.3,314.1c1.7,3.2,3.6,6.3,5.4,9.3c-1.1-1.4-2-3-2.9-4.5C161.8,317.3,161.1,315.7,160.3,314.1z"/>
					<path class="st4" d="M203.7,163.6c-1.6,1.2-3.2,2.5-4.8,3.7c-13.1,7.8-24.9,18.2-34.5,31c5.1-7,10.8-13.9,17.4-20
						C188.3,172.2,195.8,167.1,203.7,163.6z"/>
					<path class="st4" d="M219.9,159.6c7.1-2.8,14.5-4.8,22-5.7c7.5-1,15-0.9,22,0C249.8,152.3,234.4,154.2,219.9,159.6z"/>
					<path class="st4" d="M248.4,359.1c0-0.3,0.3-0.5,0.6-0.6c0.4,0,0.7-0.1,1-0.3c4.9,1,9.8,1.7,14.8,1.9c-1.2,0.2-2.4,0.8-3.7,0.8
						c-1.4-0.1-2.5-0.4-3.5-0.6c-1-0.2-1.8-0.4-2.7-0.7c-0.9-0.2-1.7-0.4-2.8-0.5C251.2,359.2,250,359.1,248.4,359.1z"/>
					<path class="st4" d="M158.5,310.5c-0.1-0.1-0.2-0.2-0.3-0.3c-0.6-1.1-1.1-2.2-1.6-3.3c0-0.1,0-0.3-0.1-0.5
						C157.2,307.7,157.9,309.1,158.5,310.5z"/>
					<path class="st4" d="M242.2,357.9c0-0.6,0-1.2-0.3-1.7c1.3,0.5,2.7,0.7,4,1.1c1.3,0.4,2.7,0.6,4.1,0.9c-0.3,0.1-0.7,0.2-1,0.3
						c-0.5,0-1,0-1.6,0c-0.6-0.1-1.2-0.2-1.8-0.3C244.5,357.9,243.3,357.8,242.2,357.9z"/>
					<path class="st4" d="M192.2,322.1c-1.1-1.3-2.9-1.9-3.7-2.3c-2-4.1-3.8-8.3-5.7-13.1c-0.6-0.6-1.4-2.1-2.6-3.3
						c0-1.1,0-2.2-0.1-3.3c4.2,10.6,10.5,20.7,18.9,29.6c-1.2-1.1-2.3-2.3-3.5-3.5C194.3,324.8,193.2,323.5,192.2,322.1z"/>
					<path class="st4" d="M344.9,202.4c3,3.4,5.5,7.5,7.9,11.6c2.3,4.2,4.2,8.7,5.9,13.2c3.3,9.1,5.7,18.4,8.2,27.1
						c-0.1-5.3-0.7-11-1.9-16.7c-1.2-5.7-2.8-11.2-4.5-16.2c-3.4-10-7.1-17.6-6-20.4c0.6-1.4,2-0.5,3.9,1.8c1,1.2,2,2.8,3.1,4.7
						c0.6,0.9,1.1,2,1.6,3.1c0.5,1.1,1.2,2.2,1.7,3.4c2.2,4.8,4.1,10.4,5.6,15.8c1.5,5.5,2.5,10.8,3.5,15.2c0-2.4,0-2.4,0.1-4.8
						c0,1.2,0,2.4,0.1,3.6c0.1,0.6,0.1,1.1,0.3,1.7c0.1,0.5,0.3,1.1,0.5,1.5c0.1-1.2,0.1-2.7,0-4.3c-0.1-1.6-0.1-3.3-0.3-4.9
						c-0.1-1.6-0.2-3.2-0.3-4.6c-0.1-1.4,0-2.5,0.2-3.3c0.8,1.3,1.6,2.5,2.4,3.8c0.1-6.5-1.9-15.6-5.2-24.4
						c-3.3-8.8-7.7-17.2-10.5-23.5c7.8,14.5,14.6,30.8,18.1,48.5c1.8,8.8,2.8,18,2.9,27.3c0.1,9.3-0.8,18.8-2.6,28.1
						c-1.8,9.4-4.8,18.6-8.7,27.5c-3.9,8.9-9,17.3-14.9,25.1c-5.9,7.8-12.8,14.7-20.3,20.8c-7.5,6-15.7,11.2-24.3,15.1
						c-9.5,4.7-19.4,8.3-29.4,10.7c-1.3,0.3-2.5,0.6-3.8,0.9c-1.3,0.2-2.5,0.5-3.8,0.7l-1.9,0.4l-1.9,0.3c-1.3,0.2-2.6,0.4-3.8,0.6
						c-5.1,0.6-10.2,1-15.3,1c-5.1,0.1-10.2-0.2-15.3-0.6c-5.1-0.5-10.1-1.2-15.1-2.3c-9.9-2.1-19.7-5.1-28.9-9.3
						c-0.8-0.4-1.8-1-2.9-1.6c-1.1-0.6-2.3-1.3-3.5-2.2c-1.2-0.8-2.6-1.7-3.9-2.7c-1.3-1-2.7-2.1-4.1-3.2
						c-5.5-4.5-11.1-10.1-15.3-15c-8-8.3-15-17.6-20.8-27.6c-1.4-2.6-2.9-5.1-4.1-7.7l-1.9-3.9l-1.8-4l-0.9-2l-0.8-2l-1.6-4.1
						l-1.4-4.1l-0.7-2.1l-0.6-2.1l-1.1-4.5l-0.9-4.6c-0.3-1.5-0.5-3.1-0.8-4.6c-0.2-1.5-0.5-3.1-0.6-4.6c-0.6-6.2-0.8-12.4-0.5-18.6
						c0.7-12.4,3-24.7,7.2-36.6c8.3-23.7,23.4-45.3,43.8-62.3c2-1.7,4.5-3.2,6.7-4.3c2.3-1,4.3-1.6,5.3-1.5c1.1,0.1,1.2,0.9-0.1,2.6
						c-0.7,0.9-1.7,1.9-3.2,3.3c-0.7,0.7-1.5,1.5-2.5,2.4c-0.9,0.9-2,1.8-3.1,2.9c-7.4,7.2-14.1,15.1-20,23.6
						c-5.9,8.5-10.8,17.6-14.9,27.1c-0.1-0.7,0.1-1.8,0.5-3c0.2-0.6,0.5-1.3,0.7-2.1c0.3-0.7,0.6-1.5,1-2.2c0.7-1.5,1.4-3.1,2.1-4.6
						c0.7-1.5,1.3-2.8,1.6-4c-4.3,6.4-7.6,12.7-10.3,19.2c-2.7,6.5-4.7,13.3-6.2,20.7c1.9-10,5-19.7,9.1-29.1
						c-5.2,11.6-9,24.6-10.7,38.2c-1.7,13.6-1.1,27.7,1.8,41.2c1.1,4.9,0.9,9.9,1.8,15.2c0.2,1.3,0.5,2.7,0.8,4.1
						c0.4,1.4,0.8,2.8,1.4,4.2c0.5,1.4,1.3,2.9,2.1,4.3c0.9,1.4,1.8,2.9,3,4.4c-3.5-8.4-6.1-17.2-7.8-26.2c-1.7-9-2.4-18.1-2.3-27.3
						c0.3-18.2,4.2-36.4,11.3-53.1c0,0.1,0,0.2,0,0.2c3.1-7.5,6.7-14.4,11-20.7c4.2-6.4,9-12.3,14.4-18c-0.8,0.9-1.6,1.8-2.4,2.8
						c-0.8,0.9-1.5,1.9-2.3,2.8c-1.5,1.8-2.9,3.7-4.3,5.3l2.8-3.2c1-1,2-2.1,2.9-3.1c1.9-2.1,4-4,6-5.9c4.2-3.8,8.4-7.4,12.9-10.6
						c4.5-3.3,9.2-6.2,14-9c2.5-1.3,4.9-2.7,7.4-3.8c1.3-0.6,2.5-1.2,3.8-1.8l3.8-1.6c-7,3.6-13.7,7.7-20,12.4
						c-6.4,4.7-12.4,9.9-17.9,15.6c-11.1,11.4-20.4,24.9-26.8,39.7c-6.4,14.8-10,30.8-10.2,46.8c-0.3,16,2.7,31.8,8.7,46
						c-1.9-8.5-4.7-18-6.2-27.6c-1.5-9.6-1.6-19.2,0.7-26.4c-0.6,6.9-0.6,13.8-0.1,20.7c0.6,6.9,1.7,13.8,3.4,20.6
						c3.4,13.5,9.1,26.7,17,38.6c-0.7-0.8-1.4-1.6-2-2.4c-0.7-0.8-1.3-1.6-2-2.4c3.9,8.1,9.7,15.5,16.3,22
						c6.6,6.6,14,12.1,21.5,17.1c1.3,0.9,2.6,1.8,4,2.6c-1.4-0.8-2.7-1.8-4-2.6c-13.6-9.3-25-21.1-33.7-34.3
						c4.7,5.6,9.5,11.5,15.9,18.1c-1.5-2.1-3.2-4.5-5.2-7.1c-1.9-2.7-4.1-5.5-6-8.5c-5.5-7.4-10.2-15.4-13.8-23.9
						c5.9,12.9,14.5,24.2,24.1,32.3c-6.1-7.2-11.6-15-16-23.4c-4.4-8.4-8-17.2-10.2-26.3c1.5,4.9,3.2,9.7,5.4,14.4
						c1,2.3,2.2,4.6,3.4,6.9c0.6,1.1,1.3,2.2,1.9,3.3c0.6,1.1,1.2,2.2,2,3.3c8.3,14.9,20.1,28.2,34.7,38.1c-0.6-0.3-1.2-0.7-1.7-1.1
						c1.1,0.8,2.3,1.5,3.4,2.1c5.7,3.8,11.9,7.1,18.3,9.8c5.8,2.3,11.9,3.5,18,4.1c1,0.2,2,0.4,3,0.6c-2,0-3,0.4,0.6,1.4
						c7.8,2.3,16.3,2.8,24.9,2.4c2.2,0,4.3-0.3,6.5-0.4c2.2-0.2,4.4-0.5,6.6-0.7c4.4-0.6,9-1.2,13.6-1.9c4.9-0.7,11.1-3,17.4-6.2
						c1.9-0.4,2.7-1.1,3.4-1.8c1.3-0.8,2.7-1.5,4-2.3c1.6-0.9,3.3-1.8,4.9-2.8c1.6-1,3.1-2.1,4.5-3.2c-1.5,1-3.1,2-4.6,3.1
						c-1.6,1-3.2,2-4.8,3c-1.2,0.7-2.5,1.3-3.7,2c0.7-0.8,1.4-1.7,3.2-2.6c-11.5,5.8-24,9.8-37.1,11.5c-13,1.7-26.4,1.3-39.5-1.2
						c1.6-0.1,3.9-0.1,4.9-0.2l-3.9-0.1c-1.3,0-2.6-0.2-3.9-0.3c-8.4-1.8-16.6-4.5-24.5-8c1.2,0.5,2.4,0.8,3.6,1.1
						c1.2,0.3,2.3,0.5,3.3,0.6c-11.2-4.8-21.7-11.1-31-19.1c-4.7-3.9-9.1-8.2-13.1-12.9c-4-4.7-7.7-9.5-11-14.8
						c-11.3-20.2-16-43.4-14-65.7c-2.2,12-1.8,25.1,1.4,37.9c-2.5-8.4-4-17.1-4.5-25.8c-0.5-8.8,0.1-17.6,1.7-26.2
						c0.3-2.2,0.9-4.3,1.4-6.4c0.5-2.1,1.2-4.2,1.8-6.3c1.4-4.2,2.9-8.3,4.8-12.3c3.7-8,8.3-15.5,13.8-22.2
						c-0.6,1.5-1.2,3.2-1.9,4.8c-0.7,1.6-1.2,3.4-1.8,5c-0.6,1.6-0.9,3.3-1.2,4.7c-0.1,0.7-0.3,1.4-0.3,2.1c0,0.7,0,1.3,0,1.8
						c0.3,0.1,0.8-0.5,1.4-1.2c0.6-0.7,1.4-1.6,2-2.4c1.2-1.5,2-2.3,0.8,0.5c-1.1,2.6-1.9,5.1-2.9,7.5c-0.4,1.2-0.8,2.4-1.2,3.6
						c-0.4,1.1-0.8,2.3-1.1,3.4c-1.5,4.4-2.5,8.6-3.3,12.4c-1.5,7.6-1.3,13.9,1.5,18.4c0.4,0.4,1.2-0.7,2.2-2.4
						c0.5-0.9,1.1-1.9,1.7-2.9c0.3-0.5,0.6-1.1,0.9-1.6c0.3-0.5,0.7-1,1-1.6c0.7-1,1.3-2,1.9-2.8c0.6-0.8,1.2-1.4,1.7-1.9
						c1-0.8,1.6-0.7,1.5,1c-0.7,5.7-1.7,16-0.4,26.8c0,0.8,0,1.6,0.1,2.4c0.1,0.8,0.1,1.6,0.2,2.4c0.2,1.6,0.4,3.3,0.7,4.9
						c0,0.4,0.5,1.1,1.1,1.8c1.3,5.7,3.2,11.1,5.1,15.8c1.9,4.7,3.9,8.5,5.3,11.3c0.5,1,1.1,2,1.6,3c0.5,1,1.2,2,1.8,3
						c0.4,1.2,0.6,2.3,0.7,3.3c1.3,0.9,2.3,1.9,3.5,2.8c3.7,5,7.9,9.5,12.5,13.4c2.3,2.5,4.7,5.1,7.3,7.3c0.2-0.4,0-1.1,0.7-1.1
						c3.1,2.2,6.5,4,9.9,5.8c3.4,1.6,6.9,3.2,10.6,4.4c0.7,0.4,1.4,0.8,2,1.1c0.7,0.3,1.3,0.7,2,1.1c0.6,0.4,1.3,0.8,1.9,1.2
						c0.6,0.4,1.2,0.8,1.8,1.2c4.5-0.7,11.3,0.1,18.8,0.3c7.5,0.3,15.7-0.2,22.1-1.9l0-0.1c6.5-1.4,13-3.4,19.2-6.3
						c1.2-0.2,2.3-0.3,3.4-0.3c1.3-1.3,2.8-2.2,3.4-2.9c5-2.3,9.2-4.4,13.4-6.7c0.5-0.8,1-2.7,2.3-3.9c0.7-0.5,1.4-1.2,2-1.8
						c0.7-0.6,1.3-1.2,1.9-1.8c1.2-1.2,2.4-2.5,3.5-3.8c0.7-0.7,1.4-1.5,2-2.2l1-1.1l1-1.2c0.7-0.8,1.3-1.6,2-2.3
						c0.6-0.8,1.2-1.6,1.9-2.4c8.4-11,14.4-23.7,17.8-37.2c0.5-0.4,1.1-0.4,1.7-0.4c-0.1-1.1-0.1-2.4,0.1-3.7
						c0.1-0.6,0.2-1.3,0.2-1.9c0-0.6,0-1.2,0-1.6c0.2,0.4,0.4,0.6,0.7,0.6c-0.1-1.6-0.1-2.9,0-4c0-1.1,0.2-2,0.3-3
						c0.1-0.5,0.2-0.9,0.3-1.4c0.1-0.5,0.2-1,0.2-1.5c0.2-1,0.3-2.2,0.4-3.7c-0.1-1.3-0.8-2.5-1-3.8c0-0.6,0-1.3,0-1.9
						c0.4-1.7,0.7-3.4,0.7-5.1c0-1.7-0.1-3.4-0.4-5.1c-0.1-0.8-0.3-1.7-0.5-2.6c-0.2-0.9-0.5-1.7-0.7-2.6c-0.2-0.9-0.5-1.7-0.7-2.6
						c-0.3-0.9-0.6-1.7-0.8-2.6c-1.7-7.3-4.1-14.5-7.4-21.3c-0.7-1.3-1.2-2.5-1.6-3.6c-0.4-1.1-0.8-2-1-3c-0.3-1-0.5-1.9-0.8-2.8
						C345.7,204.4,345.3,203.4,344.9,202.4z"/>
					<path class="st4" d="M266.8,360.2c6.6,0.2,13.2-0.3,19.7-1.4c-0.9,0.2-1.7,0.4-2.6,0.7c-0.8,0.2-1.7,0.4-2.5,0.6
						c-0.8,0.2-1.6,0.4-2.5,0.5c-0.8,0.1-1.6,0.3-2.5,0.4c-0.8,0.1-1.6,0.2-2.4,0.2c-0.8,0-1.6,0-2.4-0.1
						C270,361.1,268.4,360.7,266.8,360.2z"/>
					<path class="st4" d="M174.9,242.4c0.8-1,1.6-2.2,2.4-3.3c0.8-1.2,1.5-2.4,2.3-3.7c-5.7,14.4-7.4,30.5-4.8,46.1l-0.1,0
						c-1.3-6.2-1.5-14.1-0.8-21.2C174.4,253.2,175.5,246.8,174.9,242.4z"/>
					<path class="st4" d="M249.1,358.5c0.3-0.1,0.6-0.2,1-0.3c0,0,0,0,0.1,0C249.8,358.4,249.4,358.5,249.1,358.5z"/>
					<path class="st4" d="M170.1,202.5c0.4-0.5,0.8-1,1.1-1.5l-1.9,3.1c-0.7,1-1.2,2.1-1.8,3.1c-1.2,2.1-2.3,4.3-3.4,6.4
						C165.5,210,167.5,206.2,170.1,202.5z"/>
					<path class="st4" d="M209.4,169.3c1-0.6,2.1-1.2,3.2-1.7c1.1-0.6,2.2-1.1,3.3-1.7c2.2-1,4.4-2.1,6.7-2.9
						c4.5-1.9,9.3-3.3,14-4.5c12.4-2.5,25.1-2.3,36.5,0.4C251.8,156,229.3,159.4,209.4,169.3z"/>
					<path class="st4" d="M189.1,215.6c0.6-0.6,1.1-1.2,1.7-1.8l1.8-1.7c1.2-1.1,2.5-2.1,3.8-3.2c-1.1,1.2-2.2,2.3-3.2,3.6l-1.5,1.9
						c-0.5,0.6-1,1.3-1.4,1.9C190.2,215.7,189.5,215.8,189.1,215.6z"/>
					<path class="st4" d="M154.5,239.6c0.2-1,0.5-1.9,0.7-2.8c-0.4,2.5-0.5,5-0.7,7.5C154.5,243.4,154.5,241.2,154.5,239.6z"/>
					<path class="st4" d="M215.7,194c-1.1,0.5-2,1.2-3,1.8c-1,0.6-2,1.2-3,1.9c0.9-1.1,1.9-2.1,2.8-3.2
						C213.5,194.5,214.6,194.3,215.7,194z"/>
					<path class="st4" d="M249.5,181.4c1.6-0.2,3.2-0.3,4.7-0.4c1.6,0,3.1-0.1,4.6-0.1c-3.7,0.3-7.5,0.7-11.1,1.4
						C248.5,181.9,249.1,181.4,249.5,181.4z"/>
				</g>
			</g>
		</g>
	</g>
</g>
</svg>
