<?xml version="1.0" encoding="utf-8"?>
<!-- Generator: Adobe Illustrator 24.0.1, SVG Export Plug-In . SVG Version: 6.00 Build 0)  -->
<svg version="1.1" id="Layer_1" xmlns="http://www.w3.org/2000/svg" xmlns:xlink="http://www.w3.org/1999/xlink" x="0px" y="0px"
	 viewBox="0 0 1600 512" style="enable-background:new 0 0 1600 512;" xml:space="preserve">
<style type="text/css">
	.st0{fill:#3886CD;}
	.st1{fill:#FFFFFF;}
	.st2{fill:#C72020;}
	.st3{filter:url(#Adobe_OpacityMaskFilter);}
	.st4{fill:none;stroke:#FFDA00;stroke-width:126.9143;stroke-miterlimit:10;}
	.st5{mask:url(#SVGID_1_);}
	.st6{fill:#3784CC;}
	.st7{fill:#FFFFFF;stroke:#000000;stroke-miterlimit:10;}
</style>
<g>
	<path class="st0" d="M41.7,401.5V120.5h47.4v145.2l76.4-96l36.4,29.8l-40.9,52l57.4,71.9l-36.1,30.1l-51.4-63.9L41.7,401.5z"/>
	<path class="st0" d="M835.9,120.5v248.6h-47.4v-27.6c-12.5,7.1-26.7,11.1-42.6,11.1c-49.7,0-89.8-40.3-89.8-90
		c0-49.7,40.1-89.8,89.8-89.8c15.9,0,30.1,4,42.6,11.1v-63.3H835.9z M703.5,262.8c0,23.6,18.7,42.3,42.3,42.3
		c23.6,0,42.6-18.7,42.6-42.3c0-23.6-19-42.6-42.6-42.6C722.2,220.2,703.5,239.3,703.5,262.8z"/>
	<path class="st0" d="M932.7,329c3.4,0,4,0,7.1,0v47.2c-3.1,0-3.7,0-7.1,0c-49.7,0-89.8-40.1-89.8-89.8v-23.9
		c0-49.7,40.1-89.8,89.8-89.8s90,40.1,90,89.8c0,3.1,0,31,0,31H891C894.4,313.7,912.3,329,932.7,329z M933,220
		c-17.3,0-33,10.8-39.2,26.1h78.1C965.1,231,950.6,220,933,220z"/>
	<path class="st1" d="M1195.8,399.2l-118.5-142.9v89.2h-47.4V126.2l118.5,142.9v-89.2h47.4V399.2z"/>
	<path class="st1" d="M1232.1,165.7c-15.9,0-28.4-12.8-28.4-28.4c0-15.9,12.5-28.4,28.4-28.4c15.6,0,28.4,12.5,28.4,28.4
		C1260.5,152.9,1247.7,165.7,1232.1,165.7z M1255.7,345.5h-47.4V179.9h47.4V345.5z"/>
	<path class="st1" d="M1268.2,401.5V120.5h47.4v145.2l76.4-96l36.4,29.8l-40.9,52l57.4,71.9l-36.1,30.1l-51.4-63.9L1268.2,401.5z"/>
	<path class="st1" d="M1554.5,163.1c-24.1,0-42.6,17.6-42.6,40.3v109.1c0,49.7-41.8,87.5-90,87.5c-3.1,0-4,0-7.1,0v-47.2
		c3.1,0,4,0,7.1,0c24.1,0,42.6-17.6,42.6-40.3V203.5c0-49.7,41.8-87.5,90-87.5c3.1,0,4,0,7.1,0v47.2
		C1558.5,163.1,1557.6,163.1,1554.5,163.1z"/>
</g>
<g>
	<g>
		<g>
			<g>
				<g>
					<path class="st2" d="M236.2,331.7c0.1-0.2,0.2-0.3,0.3-0.5c0.2,0.3,0.2,0.7,0.1,1.2c2.5-4.9,1-11.2-1.5-15.4
						c0.1-1.5-0.7-2.8-1.7-2.9c-1-0.1-1.9,1-2,2.5c-0.1,0.3-0.2,0.7-0.4,1c-1.6,2.1-2.7,4.8-3.5,7.6c0.3-0.6,0.6-1.1,0.9-1.7
						c-0.2,0.8-0.5,1.7-0.5,2.6c0.2-0.1,0.4-0.2,0.6-0.3c-1.4,2.9-0.9,6.8,1.1,8.8c2,2,4.7,1.3,6-1.6L236.2,331.7z"/>
					<path class="st2" d="M242.2,326.4c-0.7,1.7-1.4,3.4-2.1,5l-0.4,0.3l1.6-0.1l-0.1,0c-1.3-1.5-1.9-4.1-2.2-6.4l-0.2-0.8
						c-0.2-0.4-0.5-0.7-0.8-0.8c-0.8-0.2-1.5,0.5-1.6,1.6l-0.1,1.3c-0.9,3.1-0.9,7.9,1.7,9.6c0.6,0.4,1.4,0,2.1,0c1,0.1,2-1,2-2.6
						c0.1-1.5-0.7-2.9-1.8-3c0.1-0.3,0.1-0.5,0.2-0.8c0.1,0.2,0.2,0.4,0.4,0.6c-0.9-0.4-1.1-1.8-1.6-2.9l-0.3-1.6l-2.4,0.9l0.3,0.8
						c0.1-0.1,0.3-0.2,0.3-0.2c0.7,1.5,1.3,3,1.8,4.7l0.9,2.1c0.5,0.6,1.2,0.5,1.6-0.1l0.5-0.9c-0.1,0.1-0.2,0.3-0.3,0.4
						c0.6-2.2,0.9-4.5,1.5-6.6c0.1-0.3,0-0.8-0.2-0.9C242.6,325.9,242.3,326,242.2,326.4z"/>
					<g>
						<path class="st2" d="M242.5,334.1c-0.2,0.4-0.4,0.7-0.3,1.2c0.1,0.1,0.2,0.2,0.2,0.2c0.1-0.2,0.3-0.4,0.4-0.7
							C243.1,334.3,242.9,334,242.5,334.1z"/>
						<path class="st2" d="M242.4,335.5c-0.1,0.2-0.2,0.3-0.2,0.3C242.3,335.7,242.4,335.6,242.4,335.5
							C242.4,335.5,242.4,335.5,242.4,335.5C242.4,335.5,242.4,335.5,242.4,335.5z"/>
						<path class="st2" d="M237.9,240.3c0.5-6.7,0.9-13.5,1.1-20.3c0-0.2-0.1-0.4-0.3-0.4c-0.1,0-0.3,0.2-0.3,0.4
							c-0.3,6.8-0.6,13.5-1.1,20.2c0,0.2,0.1,0.4,0.2,0.4C237.7,240.7,237.9,240.6,237.9,240.3z"/>
						<path class="st2" d="M253,189.9c0.1,0.2,0.3,0.2,0.4,0c0.1-0.1,0.1-0.4,0-0.6c-0.1-0.1-0.3-0.1-0.4,0
							C252.9,189.5,252.9,189.7,253,189.9z"/>
						<path class="st2" d="M264.9,191.3c0.2,0.9,0.5,1.8,0.9,2.6c0.1,0.1,0,0.3,0,0.4c0.2-0.1,0.5,0.1,0.6,0.5
							c2,6.7,2.8,13.9,3.9,21.1c0.2,0,0.4,0.1,0.6,0.3c0.6,0.5,0.9,1.5,0.8,2.5l-0.2,0.8c-0.4,3.1-0.6,6.2-1,9.3
							c0.3,0.6,0.5,1.4,0.5,2.2c0.8,2.7,1.5,5.4,2,8.1c0.2-0.2,0.4-0.3,0.6-0.3c0.5,0.1,0.9,0.7,0.9,1.4c0,0.4,0,0.8,0,1.1
							c0.1-1.1,0.3-2.2,0.4-3.2c0-0.2,0-0.3,0.1-0.4c0-1.2,0-2.4,0-3.6c-0.5-10.6-2.5-20.6-4.8-30.4c-0.1-0.2-0.1-0.4,0.1-0.6
							c0.1-0.1,0.3-0.1,0.4,0.1c2.6,6.2,6.1,11.6,7.8,18.7c2.1,8.4,3.8,16.7,5.1,25.3c0,9,1.3,17.3,2.2,26.5
							c1.3,12.4,1.5,24.1,1.6,36.2c0.4,4.5-1.8,8.7-4.9,9.3c-1.9,0.3-3.7-0.7-4.9-2.6c0,0.4,0,0.7,0,1.1l-0.4,1.8
							c-0.4,1.7-1.1,3.1-2.2,4l-1.3,1.2c-2.5,1.6-4.5,4.3-7.1,5.6l-1-0.3l-0.3,0.3c-0.7,1-1.6,1.7-2.6,2l-1.2-0.1
							c-1.4-0.2-2.6-0.7-3.8-1.6c-0.5,0-1-0.1-1.5-0.3c-1.2,0.7-2.5,1.1-3.9,0.5c-0.3,0.4-0.9,0.4-1.2-0.2c-0.1-0.2-0.2-0.4-0.2-0.6
							c0,0,0,0,0,0c-0.3,0.2-0.4,0.3-0.7,0.6c-0.1,0.4-0.2,0.7-0.2,0.7c-0.2,1.1-0.2,1.1-0.4,2.1c-0.4,0.8-1,1.4-1,1.4
							c-2.1,0.9-2.1,0.9-3,0.8c-0.1-0.1-0.2-0.1-0.3-0.2c-0.3,0.8-0.3,0.8-0.4,1c-0.2,0.2-0.4,0.4-0.4,0.4c-0.5,0-0.5,0-0.7,0.2
							c-0.2,0-0.4,0-0.4,0c-0.5-0.4-0.5-0.4-0.7-0.4c-0.1-0.1-0.3-0.2-0.3-0.2c-0.2-0.5-0.2-0.7-0.3-0.8c1.3-1.1,1.3-1.1,1.3-1.1
							c-0.4-0.2-0.4-0.2-0.4-0.2c0.6-0.2,0.6-0.2,0.6-0.2c-0.5,0.1-0.5,0.1-0.5,0.1c0.3-0.5,0.3-0.5,0.3-0.5
							c-0.5,0.6-0.5,0.6-0.5,0.6c0.2-1.3,0.2-1.3,0.2-1.8c0.1-0.5-0.1-1-0.1-1c-0.2,0-0.3,0-0.3,0c0.2-1.3,0.2-1.3,0.4-2.7
							c0.1-0.1,0.2-0.2,0.4-0.3c-0.1-0.1-0.2-0.4-0.2-0.6c0-0.2,0.1-0.5,0.1-0.7c0-0.1-0.1-0.1-0.1-0.1c0,0,0,0,0,0
							c-0.1-0.2-0.2-0.4-0.2-0.6c-0.1-0.1-0.1-0.1-0.1-0.1c0,0,0,0,0,0c-0.2-0.4-0.4-1-1.1-2.5c0.1-0.4,0.2-0.8,0.3-1.1
							c-0.1,0.1-0.2,0.2-0.2,0.3c-0.2,0.2-0.6,0-0.7,0.1c-1,2.9-1.4,6-1.9,9.1c0.1,0.6-0.2,1.1-0.6,1.2c-0.4,0.1-0.7-0.3-0.8-0.9
							c-2.5-6.3-2.2-14-0.2-20.4c0.2-1.7,0.5-3.4,0.7-5.1c-0.1,0.1-0.2,0.2-0.2,0.2c0.1-0.4,0.2-0.9,0.4-1.3c0,0,0-0.1,0-0.1
							c-0.3,0.3-0.6,0.7-0.9,1c-0.1,0.2-0.2,0.5-0.2,0.7c-0.4,4-1.7,7.6-2.5,11.4c-0.5,2.1-1.3,3.8-1.9,5.8c0,0.5-0.4,0.8-0.7,0.8
							c-0.3-0.1-0.6-0.5-0.5-1c-0.6-6.5,0-13.9,2.9-19.1c0-1.2,0.3-2.3,0.8-3.3c0,0,0,0,0-0.1c-0.2,0.2-0.5,0.5-0.7,0.7
							c0.2-0.9,0.8-1.4,1-2.2c-0.3,0.1-0.6,0.2-1,0.3c0.6-4.4,0.3-9.1,1.7-13.1c0-0.2,0.1-0.3,0.1-0.5c-0.7-1.7-1.3-3.5-1.4-5.6
							c-0.1,0.7-0.2,1.4-0.3,2.1c-0.4-1.5-0.7-3-0.7-4.6c0.1-4.3,1.6-9.2,4.1-11.5c-0.3-8.4-0.6-16.9-1.2-25.3
							c0-0.4,0.2-0.8,0.5-0.9c0.3,0,0.6,0.2,0.6,0.7c1,6,1.5,12.2,2,18.3c0.5-5.1,1-10.3,1.1-15.5c0-0.7-0.1-1.3-0.1-2
							c0-0.7,0-1.3,0.2-2c0-6.7,0.2-13.1-0.5-19.9c-0.6-5.8-1.3-11-2.2-16.8c-1.3-8.2-2.6-15.6-2.6-23.7c-0.1-1.1,0.4-2.1,1.2-2.2
							c0.7-0.1,1.4,0.6,1.5,1.7c2.3,16.8,5.1,33.4,4.7,51c0,1.9-0.1,3.8-0.1,5.6c0.1,0,0.2,0,0.3,0c0.4,0,0.8,0.2,1.1,0.5
							c0.1-2.1,0.3-4.2,0.5-6.4c-0.8-5.9-1.7-11.9-1.3-18.2c0.3-4.3,1.2-8.3,2-12.3c-0.5-5.1-1-10.2-1.4-15.3
							c-0.1-0.2,0-0.4,0.2-0.5c0.1-0.1,0.3,0,0.3,0.2c0.9,3.5,1.6,7.2,2.2,10.8c0.5-0.6,1.1-0.9,1.7-0.9c0.7,0,1.3,0.5,1.7,1.2
							c0-0.8,0-1.7,0-2.5c0-0.5,0.3-0.9,0.6-0.9c0.4,0,0.6,0.4,0.6,0.9c0,3.4-0.1,6.8-0.1,10.1c0.4,4.1,0.7,8.1,1,12.2
							c0.4-0.6,1-1,1.6-1.2c0,0,0,0,0,0c0-0.6,0-1.3-0.1-1.9c-1.9-11.5-2.9-23.2-2.6-35.1c0-0.2,0.1-0.4,0.3-0.4
							c0.2,0,0.3,0.2,0.3,0.4c-0.1,3.6-0.1,7.1,0,10.7c0,0,0,0,0,0c0.1-0.1,0.3-0.2,0.4,0c0.1,0.1,0.1,0.4,0,0.6
							c-0.1,0.2-0.3,0.1-0.4,0c0.3,6.6,0.9,13.2,1.9,19.7c-0.2-6-0.3-12.1,0-18.1c-0.2-0.7-0.4-1.3-0.6-2c0-0.2,0.1-0.4,0.2-0.5
							c0.1-0.1,0.3,0.1,0.3,0.3c0,0.2,0.1,0.4,0.1,0.6c0.1-1.1,0.7-2,1.5-2c0.8,0.1,1.5,1,1.4,2.2c0.2,3.2,0.2,6.3,0.3,9.5
							c0,0.3,0.1,0.7,0.1,1c0.1,0.3,0.3,0.7,0.4,1c0.3-4.9,0.7-9.8,1.1-14.7c0-0.4,0.2-0.8,0.5-0.8c0.3,0,0.5,0.3,0.5,0.7
							c1.2,8.6,1.9,17.3,2.5,26c1.2,2.9,2.5,5.7,3.7,8.7c0-0.4,0-0.7,0-1.1c0-9.5-3.5-17.6-4.3-26.7c0-0.2,0.1-0.4,0.2-0.5
							c0.1,0,0.3,0.1,0.3,0.4c0.5,4.5,1.7,8.6,2.5,13c0.7,3.7,1.4,7.2,2.3,10.6c-0.3-7-1.9-13.7-2.6-20.7c-0.1-0.3,0-0.6,0.2-0.8
							c-0.1,0-0.2-0.1-0.2-0.2c-0.4-0.9-0.7-1.8-0.9-2.8c-0.1-0.2,0-0.4,0.2-0.5C264.6,191,264.8,191.1,264.9,191.3z M247.9,313.2
							c-0.1,0.1-0.1,0.1-0.2,0.2c0.1-0.2,0.2-0.4,0.3-0.6c0,0,0,0,1.2-0.9C249.2,311.9,248.5,312.6,247.9,313.2z M252.2,323.9
							C252.2,323.9,252.2,323.9,252.2,323.9c-0.4,0.3-0.7,0.5-0.7,0.5C251.8,324.2,252,324.1,252.2,323.9z M242,255.4
							c0,3.7-0.3,7.3-1,11c-0.1-0.9-0.1-1.8-0.2-2.7C241.1,261,241.5,258.2,242,255.4z M243.4,320.4c0.6-1,1.4-1.7,2.1-2.4
							c-0.1-0.6-0.2-1.3-0.2-2c0.1-1.8,0.2-3.6,0.5-5.3c-0.4,0.2-0.4-0.2-0.4-0.4c0-0.2-0.1-0.4-0.1-0.7c-0.3,1.9-0.6,3.7-1,5.6
							C244.1,316.9,243.9,318.8,243.4,320.4z M245,333.4c-0.1,0.1-0.1,0.1-0.2,0.2c0,0,0,0-0.6-0.3
							C244.3,333.2,244.6,333.3,245,333.4z M246.1,333.9c0-0.1,0.1-0.2,0.1-0.3C246.4,333.7,246.3,333.8,246.1,333.9z M246.8,331.5
							c-0.2,0.1-0.3,0.2-0.3,0.3C246.8,331.5,246.8,331.5,246.8,331.5z M265,329.7l-3.1-1l3,1L265,329.7z"/>
					</g>
				</g>
			</g>
		</g>
	</g>
	<g>
		<g>
			<g>
				<g>
					<path class="st2" d="M251.3,155.2c0.2-0.1,0.5-0.1,0.7-0.2c-0.2,0.4-0.7,0.8-1.3,1.2c7.1-2.3,13.4-9.1,16.5-14.8
						c1.7-1.2,2.8-3,2.3-3.9c-0.5-0.9-2.3-0.7-4,0.6c-0.4,0.2-0.9,0.5-1.3,0.5c-3.4,0.6-7,2.1-10.8,4c0.8-0.3,1.7-0.5,2.5-0.8
						c-1.1,0.5-2.2,1.1-3.3,1.9c0.2,0.1,0.5,0.1,0.7,0.2c-4.1,1.5-8.3,5.3-9.3,8.6c-1.1,3.3,1.4,4.8,5.5,3.4L251.3,155.2z"/>
					<path class="st2" d="M261,155.2c-2.4,1-4.7,1.9-7,2.7l-0.6,0l1.1,1.2l0-0.1c0.9-2.4,3.5-5.1,5.9-7.5l0.8-0.9
						c0.3-0.5,0.4-1,0.3-1.3c-0.2-0.8-1.5-0.7-2.8,0.2l-1.5,1c-4,2-9.6,6.2-9.9,9.9c-0.1,0.8,0.8,1.2,1.3,1.6
						c0.5,0.9,2.4,0.6,4.2-0.7c1.8-1.3,2.8-3.1,2.3-4c0.3-0.2,0.7-0.4,1-0.5c-0.1,0.3-0.3,0.6-0.5,0.8c-0.1-1.1,1.4-2.5,2.3-3.8
						l1.6-1.6l-2.5-1.2l-0.7,1c0.1,0,0.4,0,0.4,0.1c-1.3,1.9-2.6,3.7-4.2,5.5l-1.9,2.6c-0.4,0.9,0.1,1.4,1.1,1.2l1.4-0.4
						c-0.2,0-0.4,0.1-0.7,0.1c2.8-1.5,5.6-3.3,8.4-4.7c0.5-0.2,0.9-0.7,0.9-1C261.8,155.1,261.5,155,261,155.2z"/>
					<g>
						<path class="st2" d="M252.5,162.3c-0.5,0.2-1,0.3-1.6,0.8c-0.1,0.2-0.1,0.3-0.1,0.3c0.3-0.1,0.7-0.2,1-0.3
							C252.6,162.9,252.8,162.5,252.5,162.3z"/>
						<path class="st2" d="M250.8,163.4c-0.3,0.1-0.4,0.1-0.4,0.1c0.1,0,0.2,0,0.4,0C250.8,163.5,250.8,163.5,250.8,163.4
							C250.8,163.5,250.8,163.5,250.8,163.4z"/>
						<path class="st2" d="M356.1,75.9c8-5.5,15.9-11.2,23.7-17c0.3-0.2,0.4-0.4,0.3-0.6c-0.1-0.1-0.4-0.1-0.6,0.1
							c-7.9,5.8-15.7,11.4-23.7,17c-0.3,0.2-0.4,0.4-0.4,0.6C355.6,76.1,355.8,76,356.1,75.9z"/>
						<path class="st2" d="M422.7,43.2c-0.1,0.2,0,0.4,0.2,0.3c0.2-0.1,0.5-0.3,0.6-0.5c0.1-0.2,0-0.3-0.2-0.3
							C423,42.8,422.8,43,422.7,43.2z"/>
						<path class="st2" d="M428.3,53.9c-0.9,1-1.8,2-2.5,3c-0.1,0.2-0.3,0.3-0.5,0.4c0.2,0.1,0.1,0.5-0.2,0.9
							c-6.4,7.5-14.1,14.5-21.5,21.7c0.1,0.2,0.1,0.4,0,0.7c-0.2,0.9-1.1,2-2.3,2.9l-1,0.6c-3.8,2.5-7.5,5-11.2,7.5
							c-0.6,0.8-1.3,1.6-2.1,2.3c-2.6,3-5.2,5.9-8,8.8c0.3,0,0.5,0,0.7,0.2c0.3,0.5-0.2,1.3-1.1,2c-0.4,0.3-0.8,0.7-1.3,1
							c1.3-0.9,2.6-1.7,3.9-2.5c0.2-0.1,0.4-0.2,0.5-0.3c1.4-1,2.7-2.1,4.1-3.2c11.7-9.7,21.8-20.1,31.6-30.6
							c0.1-0.2,0.4-0.4,0.7-0.5c0.2,0,0.3,0.2,0.1,0.4c-5.5,7.6-9.4,15.1-16.4,22.7c-8.2,9-16.6,17.7-25.5,26.4
							c-10.2,7.9-18.9,16.3-28.7,25.1c-13.3,11.9-26.4,22.4-40.1,33.2c-4.9,4.3-11,6.3-13.5,4.4c-1.5-1.2-1.5-3.5-0.1-6.1
							c-0.4,0.3-0.9,0.6-1.3,0.9l-2.2,1.3c-2.1,1.2-4.2,1.8-5.9,1.8l-2.2,0.1c-3.4-0.5-7.7,0.2-10.8-0.7l-0.3-1l-0.5,0.1
							c-1.6,0.4-3,0.2-3.9-0.3l-0.6-1c-0.6-1.3-0.8-2.7-0.5-4.4c-0.3-0.4-0.5-0.8-0.6-1.4c-1.6-0.3-2.7-1-2.9-2.6
							c-0.7,0.1-0.9-0.4-0.5-1.1c0.1-0.2,0.3-0.5,0.6-0.7c0,0,0,0,0,0c-0.5,0-0.6,0-1.2,0c-0.5,0.3-0.9,0.5-0.9,0.5
							c-1.4,0.8-1.4,0.8-2.7,1.6c-1.2,0.4-2.2,0.4-2.2,0.4c-2.4-0.8-2.4-0.8-2.8-1.7c0-0.1,0-0.2,0-0.4c-1,0.4-1.1,0.5-1.4,0.6
							c-0.3,0.1-0.6,0-0.6,0c-0.3-0.4-0.3-0.4-0.6-0.4c-0.2-0.1-0.3-0.3-0.3-0.3c0.1-0.8,0.1-0.8,0.1-0.9c0-0.2,0.1-0.4,0.1-0.4
							c0.5-0.6,0.6-0.8,0.7-0.9c2,0.1,2,0.1,2,0.1c0-0.5,0-0.5,0-0.5c0.6,0.2,0.6,0.2,0.6,0.2c-0.5-0.3-0.5-0.3-0.5-0.3
							c0.8-0.2,0.8-0.2,0.8-0.2c-1,0.2-1,0.2-1,0.2c1.6-1,1.6-1,2.1-1.4c0.6-0.4,1.1-0.9,1.1-1c-0.2-0.1-0.2-0.2-0.2-0.2
							c1.7-1,1.7-1,3.3-2c0.2,0,0.4,0,0.6,0c0.1-0.2,0.3-0.5,0.6-0.7c0.3-0.2,0.6-0.4,0.8-0.5c0-0.1,0.1-0.1,0.1-0.2c0,0,0,0,0,0
							c0.2-0.3,0.3-0.5,0.5-0.7c0.1-0.1,0.1-0.2,0.1-0.2c0,0,0,0,0,0c0.3-0.5,0.9-1.2,2.2-3.1c0.5-0.3,1-0.6,1.5-0.8
							c-0.2,0-0.4,0.1-0.5,0.1c-0.3,0.1-0.4-0.5-0.6-0.4c-3.9,1.8-7.7,4.2-11.5,6.5c-0.6,0.5-1.4,0.8-1.7,0.5
							c-0.3-0.2-0.1-0.9,0.5-1.4c5.6-7.5,14.5-14,23.1-18.1c2.1-1.3,4.1-2.6,6.2-4c-0.1,0-0.3,0-0.4,0c0.6-0.3,1.2-0.6,1.7-0.9
							c0.1,0,0.1-0.1,0.2-0.1c-0.6,0.1-1.1,0.1-1.7,0.2c-0.3,0.1-0.6,0.3-0.9,0.4c-4.7,3.2-9.6,5.3-14.5,8.1
							c-2.6,1.5-5.1,2.4-7.7,3.6c-0.6,0.4-1.2,0.5-1.3,0.1c-0.1-0.3,0.2-0.9,0.8-1.3c7-6.2,15.8-12.3,23.5-14.6
							c1.4-1,2.8-1.9,4.2-2.3c0,0,0,0,0.1,0c-0.4,0-0.8,0-1.3,0.1c1.1-0.6,2-0.6,3.1-1.1c-0.3-0.2-0.6-0.3-0.9-0.5
							c5.3-3.4,10.5-7.8,16-10.2c0.2-0.1,0.4-0.2,0.6-0.3c1.6-2.1,3.2-4.2,5.5-6c-0.9,0.5-1.7,1.1-2.6,1.6c1.4-1.7,3-3.2,4.8-4.6
							c5-3.8,11.4-6.9,15.6-6.9c9.4-7.7,18.8-15.3,28-23.2c0.5-0.4,1-0.6,1.3-0.4c0.2,0.2,0.1,0.7-0.4,1.1
							c-6.2,6.1-12.9,11.9-19.5,17.7c6.1-4.1,12.3-8.3,18.3-12.9c0.7-0.6,1.5-1.3,2.2-1.9c0.7-0.6,1.5-1.1,2.4-1.6
							c7.6-5.9,15-11.4,22.3-18c6.3-5.7,11.7-10.7,17.7-16.5c8.5-8.2,16.2-15.8,25.3-22.9c1.2-1,2.6-1.5,3.2-1
							c0.6,0.5,0.1,1.7-1,2.7c-17.7,16.7-34.8,33.5-55,48.7c-2.2,1.6-4.3,3.3-6.5,4.9c0.1,0.1,0.2,0.1,0.2,0.2
							c0.2,0.3,0.3,0.8,0.1,1.3c2.5-1.8,5-3.5,7.5-5.3c6.2-5.9,12.5-11.8,19.9-17.1c5.1-3.6,10.1-6.4,15.2-9.3
							c5.5-4.9,10.9-9.8,16.5-14.7c0.2-0.2,0.5-0.4,0.7-0.3c0.2,0,0.1,0.3-0.1,0.5c-3.5,3.8-7.1,7.6-10.9,11.3c0.9-0.1,1.7,0,2,0.6
							c0.4,0.6,0.2,1.4-0.3,2.4c1-0.7,1.9-1.4,2.9-2.2c0.6-0.4,1.2-0.6,1.4-0.3c0.2,0.3-0.1,0.9-0.6,1.3c-3.9,3-7.7,5.9-11.6,8.8
							c-4.4,3.9-8.8,7.7-13.2,11.5c0.9-0.1,1.7-0.1,2.3,0.2c0,0,0,0,0,0c0.7-0.6,1.4-1.1,2.1-1.7c11.9-11.6,24.6-22.8,38.2-33
							c0.3-0.2,0.6-0.3,0.7-0.2c0.1,0.1,0,0.4-0.3,0.6c-4.1,3.1-8.2,6.2-12.1,9.5c0,0,0,0,0,0c0.2-0.1,0.4,0.1,0.2,0.3
							c-0.1,0.2-0.4,0.4-0.6,0.5c-0.3,0.1-0.3-0.1-0.2-0.3c-7.4,6-14.4,12.4-21.2,18.8c6.7-5.4,13.5-10.8,20.6-15.9
							c0.6-0.7,1.2-1.5,1.9-2.2c0.2-0.2,0.5-0.3,0.7-0.3c0.1,0.1,0.1,0.3-0.1,0.5c-0.2,0.2-0.4,0.4-0.5,0.6c1.3-1,2.7-1.2,3.2-0.6
							c0.4,0.7-0.3,2.1-1.6,3.1c-3.5,2.9-7,5.8-10.6,8.6c-0.4,0.3-0.7,0.7-1.1,1c-0.3,0.4-0.6,0.8-0.9,1.2
							c5.8-4.1,11.6-8.1,17.4-12.1c0.5-0.4,1-0.5,1.2-0.3c0.2,0.2,0,0.7-0.5,1.1c-9,8.5-18.4,16.8-28,24.9c-2.5,3.5-5,7-7.6,10.6
							c0.4-0.3,0.9-0.6,1.3-1c10.8-8.4,17.8-18.3,27.8-27c0.2-0.2,0.5-0.3,0.7-0.2c0.1,0.1,0,0.3-0.2,0.6
							c-4.8,4.3-8.7,8.9-13.2,13.5c-3.8,3.8-7.3,7.4-10.7,11.2c7.8-6.5,14.4-13.6,21.9-20.3c0.3-0.3,0.7-0.5,1-0.6
							c0-0.1,0-0.2,0.1-0.3c0.7-1.1,1.6-2.1,2.6-3.2c0.2-0.2,0.5-0.4,0.7-0.3C428.5,53.4,428.5,53.6,428.3,53.9z M279.5,148.1
							c-0.1,0-0.2,0-0.3,0c0.3-0.1,0.6-0.2,0.9-0.3c0,0,0,0,1.7,0.2C281.7,148,280.6,148,279.5,148.1z M269.9,161
							C269.9,160.9,269.9,160.9,269.9,161c-0.6-0.1-1-0.1-1-0.1C269.3,160.9,269.6,160.9,269.9,161z M341.5,92.4
							c-4.2,3.2-8.5,6.2-13.1,8.9c1-0.8,1.9-1.7,2.9-2.5C334.6,96.6,338,94.5,341.5,92.4z M268.6,150.9c1.5-0.4,2.8-0.4,4.1-0.5
							c0.6-0.7,1.4-1.3,2.2-1.9c2.1-1.5,4.2-3,6.3-4.3c-0.5-0.1,0-0.5,0.2-0.7c0.2-0.2,0.5-0.4,0.7-0.7c-2.3,1.4-4.6,2.8-7,4.2
							C272.9,148.4,270.7,149.9,268.6,150.9z M254.8,163.6c-0.1,0-0.2,0-0.3,0c0,0,0,0,0-0.8C254.6,162.9,254.7,163.2,254.8,163.6z
							 M254.8,164.9c0.1-0.1,0.2-0.1,0.4-0.2C255.2,165,255.1,165,254.8,164.9z M258.1,163.4c-0.3,0-0.4,0-0.6,0
							C258.1,163.4,258.1,163.4,258.1,163.4z M271.2,176.2l-0.8-3.3l0.6,3.3L271.2,176.2z"/>
					</g>
				</g>
			</g>
		</g>
	</g>
	<g>
		<g>
			<g>
				<g>
					<path class="st2" d="M459.1,23.3c0.1,0.2,0.2,0.4,0.3,0.7c-0.5-0.1-1-0.5-1.5-1c4,6.3,12.2,10.7,18.4,12.4
						c1.6,1.4,3.6,2,4.4,1.3c0.8-0.7,0.1-2.4-1.5-3.8c-0.3-0.4-0.7-0.8-0.9-1.1c-1.5-3.1-3.8-6.3-6.5-9.5c0.4,0.7,0.9,1.5,1.4,2.2
						c-0.8-0.9-1.6-1.9-2.6-2.7c0,0.2,0,0.5,0,0.7c-2.4-3.6-7.2-6.7-10.6-6.9c-3.5-0.2-4.3,2.5-1.9,6.1L459.1,23.3z"/>
					<path class="st2" d="M461.5,32.7c-1.5-2-3-4.1-4.4-6.1l-0.2-0.6l-0.8,1.3l0.1-0.1c2.6,0.3,5.8,2.1,8.7,3.9l1.1,0.6
						c0.6,0.2,1.1,0.2,1.4,0c0.7-0.4,0.3-1.6-0.9-2.7l-1.3-1.2c-2.9-3.4-8.4-7.7-12-7.1c-0.8,0.1-0.9,1.1-1.3,1.7
						c-0.8,0.7,0,2.5,1.7,3.9c1.7,1.4,3.7,2,4.4,1.2c0.2,0.3,0.5,0.6,0.8,0.9c-0.3-0.1-0.6-0.2-0.9-0.2c1.1-0.3,2.8,0.7,4.2,1.3
						l1.9,1.2l0.5-2.7l-1.1-0.5c0,0.1,0,0.4,0,0.4c-2.2-0.8-4.2-1.6-6.4-2.7l-3-1.2c-0.9-0.1-1.3,0.5-0.8,1.3l0.7,1.3
						c-0.1-0.2-0.2-0.4-0.3-0.6c2.1,2.4,4.5,4.6,6.6,7c0.3,0.4,0.8,0.7,1.2,0.6C461.8,33.5,461.8,33.1,461.5,32.7z"/>
					<g>
						<path class="st2" d="M452.6,26.2c-0.3-0.5-0.5-0.9-1.1-1.3c-0.2,0-0.3,0-0.4,0c0.1,0.3,0.3,0.6,0.5,0.9
							C452,26.5,452.4,26.5,452.6,26.2z"/>
						<path class="st2" d="M451.1,24.9c-0.1-0.2-0.2-0.4-0.2-0.4c0,0.1,0.1,0.2,0.1,0.4C451,24.8,451,24.8,451.1,24.9
							C451,24.8,451,24.8,451.1,24.9z"/>
						<path class="st2" d="M561.8,105.3c7.3,6.4,14.8,12.6,22.3,18.8c0.3,0.2,0.5,0.3,0.6,0.2c0.1-0.1,0-0.4-0.3-0.5
							c-7.5-6.2-14.9-12.4-22.3-18.8c-0.3-0.2-0.5-0.3-0.7-0.2C561.5,104.8,561.6,105.1,561.8,105.3z"/>
						<path class="st2" d="M609.9,161.8c-0.3-0.1-0.3,0.1-0.2,0.3c0.1,0.2,0.4,0.4,0.6,0.5c0.2,0,0.3-0.1,0.2-0.3
							C610.4,162,610.1,161.8,609.9,161.8z"/>
						<path class="st2" d="M601,169.9c-1.2-0.7-2.4-1.3-3.5-1.6c-0.2-0.1-0.4-0.2-0.5-0.4c-0.1,0.2-0.4,0.3-0.9,0
							c-8.9-4.3-17.6-10.1-26.3-15.5c-0.2,0.1-0.4,0.2-0.7,0.2c-0.9,0-2.3-0.6-3.3-1.6l-0.8-0.8c-3.3-3-6.7-6-10-9.1
							c-0.9-0.3-1.8-0.8-2.8-1.5c-3.5-1.8-7-3.6-10.5-5.6c0.1,0.3,0.1,0.5,0,0.7c-0.4,0.4-1.3,0.1-2.2-0.6c-0.4-0.3-0.9-0.6-1.3-1
							c1.1,1.1,2.3,2.1,3.4,3.2c0.2,0.1,0.3,0.3,0.4,0.4c1.3,1.1,2.7,2.1,4.1,3.1c12.3,9,24.9,16.2,37.5,23.1
							c0.2,0.1,0.5,0.3,0.6,0.5c0,0.2-0.1,0.3-0.3,0.2c-8.7-3.4-16.9-5.4-26-10.3c-10.8-5.8-21.3-11.7-31.8-18.2
							c-10.2-7.9-20.4-14.3-31.4-21.6c-14.8-9.9-28.3-20.1-42.1-30.7c-5.4-3.7-8.8-9.1-7.6-12c0.8-1.8,3-2.3,5.9-1.6
							c-0.4-0.3-0.8-0.7-1.2-1l-1.8-1.8c-1.7-1.8-2.8-3.6-3.2-5.2l-0.6-2.1c-0.3-3.4-2.1-7.4-2-10.6l0.9-0.5l-0.2-0.5
							c-0.7-1.5-1-2.8-0.6-3.8l0.8-0.8c1.1-0.9,2.4-1.4,4.1-1.6c0.3-0.4,0.7-0.7,1.2-0.9c-0.1-1.6,0.3-2.9,1.8-3.5
							c-0.3-0.7,0.1-1,0.9-0.8c0.3,0.1,0.5,0.2,0.8,0.4c0,0,0,0,0,0c-0.1-0.5-0.1-0.6-0.3-1.1c-0.4-0.5-0.7-0.7-0.7-0.7
							c-1.2-1.2-1.2-1.2-2.2-2.2c-0.7-1.1-0.9-2-0.9-2c0.2-2.5,0.2-2.5,1-3.1c0.1,0,0.2,0,0.4,0c-0.7-0.9-0.7-1-0.9-1.2
							c-0.1-0.3-0.2-0.6-0.2-0.6c0.3-0.4,0.3-0.4,0.2-0.7c0.1-0.2,0.2-0.3,0.2-0.3c0.8-0.1,0.8-0.1,0.9-0.2c0.2,0,0.4,0,0.4,0
							c0.7,0.3,0.9,0.4,1,0.5c0.4,1.9,0.4,1.9,0.4,1.9c0.5-0.1,0.5-0.1,0.5-0.1c-0.1,0.7-0.1,0.7-0.1,0.7c0.2-0.5,0.2-0.5,0.2-0.5
							c0.4,0.7,0.4,0.7,0.4,0.7c-0.4-0.9-0.4-0.9-0.4-0.9c1.3,1.3,1.3,1.3,1.9,1.7c0.6,0.5,1.1,0.8,1.2,0.8c0.1-0.2,0.1-0.3,0.1-0.3
							c1.4,1.4,1.4,1.4,2.8,2.7c0.1,0.2,0.1,0.4,0.1,0.5c0.2,0,0.6,0.2,0.8,0.4c0.2,0.2,0.5,0.5,0.7,0.7c0.1,0,0.1,0,0.2,0.1
							c0,0,0,0,0,0c0.3,0.1,0.6,0.2,0.8,0.3c0.2,0.1,0.2,0.1,0.2,0.1c0,0,0,0,0,0c0.6,0.2,1.4,0.5,3.5,1.4c0.4,0.4,0.8,0.8,1.1,1.2
							c-0.1-0.2-0.2-0.3-0.2-0.5c-0.1-0.3,0.4-0.5,0.3-0.7c-2.7-3.3-6-6.4-9.2-9.6c-0.7-0.4-1.1-1.1-0.9-1.5
							c0.2-0.4,0.8-0.3,1.5,0.2c8.7,3.5,17.2,10.6,23.3,17.9c1.8,1.7,3.6,3.4,5.4,5c0-0.1-0.1-0.3-0.1-0.4c0.4,0.5,0.9,1,1.3,1.5
							c0,0,0.1,0.1,0.2,0.1c-0.2-0.5-0.4-1-0.6-1.6c-0.2-0.3-0.4-0.5-0.6-0.8c-4.3-3.8-7.6-8-11.4-12.1c-2.1-2.2-3.6-4.4-5.4-6.6
							c-0.5-0.5-0.7-1-0.5-1.3c0.3-0.2,0.9,0,1.5,0.5c7.7,5.3,15.8,12.2,19.9,19.1c1.3,1.1,2.5,2.3,3.2,3.5c0,0,0,0,0.1,0.1
							c-0.1-0.4-0.3-0.8-0.4-1.2c0.9,0.9,1.1,1.8,1.8,2.7c0.1-0.3,0.2-0.7,0.3-1c4.6,4.3,10.1,8.3,13.9,13c0.2,0.2,0.3,0.3,0.5,0.5
							c2.4,1,4.8,2,7.2,3.8c-0.7-0.7-1.4-1.4-2.2-2.1c2,1,3.8,2.1,5.6,3.5c4.9,3.9,9.5,9.4,10.5,13.4c9.8,7.2,19.5,14.5,29.4,21.4
							c0.5,0.3,0.8,0.9,0.7,1.2c-0.1,0.3-0.6,0.2-1.1-0.1c-7.5-4.5-14.7-9.5-22-14.6c5.5,4.9,11.1,9.8,17,14.6
							c0.8,0.6,1.6,1.1,2.4,1.7c0.8,0.6,1.5,1.2,2.2,1.9c7.6,5.9,14.7,11.7,23,17.2c7,4.7,13.2,8.7,20.4,13.1
							c10.1,6.2,19.3,11.8,28.5,18.9c1.3,0.9,2.1,2.2,1.8,2.9c-0.3,0.7-1.6,0.5-2.9-0.3c-20.5-13.1-41-25.5-60.8-41.3
							c-2.1-1.7-4.2-3.4-6.3-5.1c0,0.1-0.1,0.2-0.1,0.3c-0.2,0.3-0.7,0.5-1.2,0.4c2.3,1.9,4.7,3.9,6.9,6c7.3,4.6,14.5,9.2,21.5,15.1
							c4.7,4.1,8.7,8.2,12.7,12.4c6.1,4.1,12.2,8.2,18.3,12.4c0.3,0.1,0.5,0.4,0.5,0.6c0,0.2-0.2,0.2-0.5,0.1
							c-4.6-2.4-9.1-5.1-13.7-7.8c0.4,0.9,0.4,1.6-0.1,2.1c-0.5,0.5-1.3,0.6-2.4,0.3c0.9,0.7,1.9,1.5,2.8,2.2c0.6,0.5,0.9,1,0.6,1.3
							c-0.2,0.3-0.9,0.1-1.4-0.3c-3.8-3-7.6-6-11.4-9.1c-4.8-3.3-9.6-6.6-14.4-10c0.4,0.9,0.5,1.7,0.3,2.3c0,0,0,0,0,0
							c0.7,0.5,1.4,1.1,2.2,1.6c14.2,8.6,28.2,18.2,41.4,28.9c0.3,0.2,0.4,0.5,0.3,0.6c-0.1,0.1-0.4,0.1-0.6-0.1
							c-4-3.2-8-6.4-12.2-9.4c0,0,0,0,0,0c0.1,0.2,0,0.4-0.2,0.3c-0.2,0-0.5-0.3-0.6-0.5c-0.1-0.2,0-0.4,0.2-0.3
							c-7.7-5.6-15.5-10.9-23.5-15.9c6.9,5.2,13.8,10.4,20.5,16c0.9,0.4,1.7,0.8,2.6,1.3c0.2,0.1,0.4,0.4,0.4,0.6
							c0,0.1-0.3,0.2-0.5,0c-0.2-0.1-0.5-0.2-0.7-0.4c1.3,1.1,1.9,2.3,1.3,3c-0.6,0.6-2.1,0.2-3.4-0.8c-3.7-2.7-7.3-5.4-10.9-8.2
							c-0.4-0.3-0.8-0.5-1.3-0.8c-0.5-0.2-0.9-0.4-1.4-0.6c5.4,4.6,10.7,9.2,16,13.9c0.5,0.4,0.7,0.9,0.6,1.1
							c-0.2,0.2-0.7,0.1-1.2-0.2c-10.5-6.7-20.8-13.7-31.1-21c-4-1.6-8.1-3.1-12.1-4.7c0.4,0.3,0.8,0.7,1.2,1
							c10.8,8.4,22.1,12.7,33,20.3c0.3,0.2,0.4,0.4,0.4,0.6c-0.1,0.1-0.3,0.1-0.6-0.1c-5.4-3.6-10.8-6.2-16.4-9.5
							c-4.6-2.7-9-5.3-13.5-7.6c8.2,5.9,16.7,10.6,25,16.2c0.4,0.2,0.7,0.5,0.8,0.8c0.1,0,0.2-0.1,0.3,0c1.2,0.5,2.5,1.1,3.7,1.7
							c0.3,0.1,0.5,0.4,0.5,0.6C601.5,170,601.3,170,601,169.9z M473,48.8c0-0.1-0.1-0.2-0.1-0.3c0.2,0.2,0.3,0.5,0.5,0.8
							c0,0,0,0,0.3,1.7C473.6,51,473.3,49.9,473,48.8z M458.1,42.7C458.1,42.7,458.1,42.7,458.1,42.7c-0.1-0.5-0.1-0.9-0.1-0.9
							C458.1,42.2,458.1,42.5,458.1,42.7z M542.2,95.2c-4.2-3.3-8.1-6.7-11.8-10.5c1,0.7,2.1,1.5,3.1,2.2
							C536.4,89.6,539.3,92.4,542.2,95.2z M467.5,39c0.7,1.3,1.1,2.6,1.5,3.8c0.8,0.5,1.6,1,2.3,1.6c2,1.7,3.9,3.4,5.8,5.1
							c0-0.5,0.4-0.1,0.7,0c0.3,0.2,0.5,0.3,0.8,0.5c-1.9-1.9-3.8-3.8-5.8-5.7C471.1,42.6,469.1,40.8,467.5,39z M451.8,28.8
							c0-0.1-0.1-0.2-0.1-0.3c0,0,0,0,0.8-0.2C452.5,28.3,452.2,28.5,451.8,28.8z M450.6,29.1c0.1,0.1,0.2,0.2,0.2,0.3
							C450.6,29.5,450.5,29.4,450.6,29.1z M452.9,31.9c-0.1-0.3-0.1-0.4-0.2-0.6C452.9,31.9,452.9,31.9,452.9,31.9z M443.7,47.7
							l3-1.6l-3,1.4L443.7,47.7z"/>
					</g>
				</g>
			</g>
		</g>
	</g>
	<g>
		<g>
			<g>
				<g>
					<path class="st2" d="M628.8,357.3c-0.2,0.1-0.5,0.1-0.7,0.2c0.2-0.4,0.7-0.8,1.3-1.2c-7.1,2.3-13.4,9.1-16.5,14.8
						c-1.7,1.2-2.8,3-2.3,3.9c0.5,0.9,2.3,0.7,4-0.6c0.4-0.2,0.9-0.5,1.3-0.5c3.4-0.6,7-2.1,10.8-4c-0.8,0.3-1.7,0.5-2.5,0.8
						c1.1-0.5,2.2-1.1,3.3-1.9c-0.2-0.1-0.5-0.1-0.7-0.2c4.1-1.5,8.3-5.3,9.3-8.6c1.1-3.3-1.4-4.8-5.5-3.4L628.8,357.3z"/>
					<path class="st2" d="M619.1,357.3c2.4-1,4.7-1.9,7-2.7l0.6,0l-1.1-1.2l0,0.1c-0.9,2.4-3.5,5.1-5.9,7.5l-0.8,0.9
						c-0.3,0.5-0.4,1-0.3,1.3c0.2,0.8,1.5,0.7,2.8-0.2l1.5-1c4-2,9.6-6.2,9.9-9.9c0.1-0.8-0.8-1.2-1.3-1.6c-0.5-0.9-2.4-0.6-4.2,0.7
						c-1.8,1.3-2.8,3.1-2.3,4c-0.3,0.2-0.7,0.4-1,0.5c0.1-0.3,0.3-0.6,0.5-0.8c0.1,1.1-1.4,2.5-2.3,3.8l-1.6,1.6l2.5,1.2l0.7-1
						c-0.1,0-0.4,0-0.4-0.1c1.3-1.9,2.6-3.7,4.2-5.5l1.9-2.6c0.4-0.9-0.1-1.4-1.1-1.2l-1.4,0.4c0.2,0,0.4-0.1,0.7-0.1
						c-2.8,1.5-5.6,3.3-8.4,4.7c-0.5,0.2-0.9,0.7-0.9,1C618.2,357.5,618.6,357.6,619.1,357.3z"/>
					<g>
						<path class="st2" d="M627.6,350.3c0.5-0.2,1-0.3,1.6-0.8c0.1-0.2,0.1-0.3,0.1-0.3c-0.3,0.1-0.7,0.2-1,0.3
							C627.5,349.6,627.3,350,627.6,350.3z"/>
						<path class="st2" d="M629.3,349.2c0.3-0.1,0.4-0.1,0.4-0.1c-0.1,0-0.2,0-0.4,0C629.3,349.1,629.3,349.1,629.3,349.2
							C629.3,349.1,629.3,349.1,629.3,349.2z"/>
						<path class="st2" d="M524,436.7c-8,5.5-15.9,11.2-23.7,17c-0.3,0.2-0.4,0.4-0.3,0.6c0.1,0.1,0.4,0.1,0.6-0.1
							c7.9-5.8,15.7-11.4,23.7-17c0.3-0.2,0.4-0.4,0.4-0.6C524.5,436.5,524.3,436.5,524,436.7z"/>
						<path class="st2" d="M457.4,469.4c0.1-0.2,0-0.4-0.2-0.3c-0.2,0.1-0.5,0.3-0.6,0.5c-0.1,0.2,0,0.3,0.2,0.3
							C457.1,469.8,457.3,469.6,457.4,469.4z"/>
						<path class="st2" d="M451.8,458.7c0.9-1,1.8-2,2.5-3c0.1-0.2,0.3-0.3,0.5-0.4c-0.2-0.1-0.1-0.5,0.2-0.9
							c6.4-7.5,14.1-14.5,21.5-21.7c-0.1-0.2-0.1-0.4,0-0.7c0.2-0.9,1.1-2,2.3-2.9l1-0.6c3.8-2.5,7.5-5,11.2-7.5
							c0.6-0.8,1.3-1.6,2.1-2.3c2.6-3,5.2-5.9,8-8.8c-0.3,0-0.5,0-0.7-0.2c-0.3-0.5,0.2-1.3,1.1-2c0.4-0.3,0.8-0.7,1.3-1
							c-1.3,0.9-2.6,1.7-3.9,2.5c-0.2,0.1-0.4,0.2-0.5,0.3c-1.4,1-2.7,2.1-4.1,3.2c-11.7,9.7-21.8,20.1-31.6,30.6
							c-0.1,0.2-0.4,0.4-0.7,0.5c-0.2,0-0.3-0.2-0.1-0.4c5.5-7.6,9.4-15.1,16.4-22.7c8.2-9,16.6-17.7,25.5-26.4
							c10.2-7.9,18.9-16.3,28.7-25.1c13.3-11.9,26.4-22.4,40.1-33.2c4.9-4.3,11-6.3,13.5-4.4c1.5,1.2,1.5,3.5,0.1,6.1
							c0.4-0.3,0.9-0.6,1.3-0.9l2.2-1.3c2.1-1.2,4.2-1.8,5.9-1.8l2.2-0.1c3.4,0.5,7.7-0.2,10.8,0.7l0.3,1l0.5-0.1
							c1.6-0.4,3-0.2,3.9,0.3l0.6,1c0.6,1.3,0.8,2.7,0.5,4.4c0.3,0.4,0.5,0.8,0.6,1.4c1.6,0.3,2.7,1,2.9,2.6
							c0.7-0.1,0.9,0.4,0.5,1.1c-0.1,0.2-0.3,0.5-0.6,0.7c0,0,0,0,0,0c0.5,0,0.6,0,1.2,0c0.5-0.3,0.9-0.5,0.9-0.5
							c1.4-0.8,1.4-0.8,2.7-1.6c1.2-0.4,2.2-0.4,2.2-0.4c2.4,0.8,2.4,0.8,2.8,1.7c0,0.1,0,0.2,0,0.4c1-0.4,1.1-0.5,1.4-0.6
							c0.3-0.1,0.6,0,0.6,0c0.3,0.4,0.3,0.4,0.6,0.4c0.2,0.1,0.3,0.3,0.3,0.3c-0.1,0.8-0.1,0.8-0.1,0.9c0,0.2-0.1,0.4-0.1,0.4
							c-0.5,0.6-0.6,0.8-0.7,0.9c-2-0.1-2-0.1-2-0.1c0,0.5,0,0.5,0,0.5c-0.6-0.2-0.6-0.2-0.6-0.2c0.5,0.3,0.5,0.3,0.5,0.3
							c-0.8,0.2-0.8,0.2-0.8,0.2c1-0.2,1-0.2,1-0.2c-1.6,1-1.6,1-2.1,1.4c-0.6,0.4-1.1,0.9-1.1,1c0.2,0.1,0.2,0.2,0.2,0.2
							c-1.7,1-1.7,1-3.3,2c-0.2,0-0.4,0-0.6,0c-0.1,0.2-0.3,0.5-0.6,0.7c-0.3,0.2-0.6,0.4-0.8,0.5c0,0.1-0.1,0.1-0.1,0.2
							c0,0,0,0,0,0c-0.2,0.3-0.3,0.5-0.5,0.7c-0.1,0.1-0.1,0.2-0.1,0.2c0,0,0,0,0,0c-0.3,0.5-0.9,1.2-2.2,3.1
							c-0.5,0.3-1,0.6-1.5,0.8c0.2,0,0.4-0.1,0.5-0.1c0.3-0.1,0.4,0.5,0.6,0.4c3.9-1.8,7.7-4.2,11.5-6.5c0.6-0.5,1.4-0.8,1.7-0.5
							c0.3,0.2,0.1,0.9-0.5,1.4c-5.6,7.5-14.5,14-23.1,18.1c-2.1,1.3-4.1,2.6-6.2,4c0.1,0,0.3,0,0.4,0c-0.6,0.3-1.2,0.6-1.7,0.9
							c-0.1,0-0.1,0.1-0.2,0.1c0.6-0.1,1.1-0.1,1.7-0.2c0.3-0.1,0.6-0.3,0.9-0.4c4.7-3.2,9.6-5.3,14.5-8.1c2.6-1.5,5.1-2.4,7.7-3.6
							c0.6-0.4,1.2-0.5,1.3-0.1c0.1,0.3-0.2,0.9-0.8,1.3c-7,6.2-15.8,12.3-23.5,14.6c-1.4,1-2.8,1.9-4.2,2.3c0,0,0,0-0.1,0
							c0.4,0,0.8,0,1.3-0.1c-1.1,0.6-2,0.6-3.1,1.1c0.3,0.2,0.6,0.3,0.9,0.5c-5.3,3.4-10.5,7.8-16,10.2c-0.2,0.1-0.4,0.2-0.6,0.3
							c-1.6,2.1-3.2,4.2-5.5,6c0.9-0.5,1.7-1.1,2.6-1.6c-1.4,1.7-3,3.2-4.8,4.6c-5,3.8-11.4,6.9-15.6,6.9
							c-9.4,7.7-18.8,15.3-28,23.2c-0.5,0.4-1,0.6-1.3,0.4c-0.2-0.2-0.1-0.7,0.4-1.1c6.2-6.1,12.9-11.9,19.5-17.7
							c-6.1,4.1-12.3,8.3-18.3,12.9c-0.7,0.6-1.5,1.3-2.2,1.9c-0.7,0.6-1.5,1.1-2.4,1.6c-7.6,5.9-15,11.4-22.3,18
							c-6.3,5.7-11.7,10.7-17.7,16.5c-8.5,8.2-16.2,15.8-25.3,22.9c-1.2,1-2.6,1.5-3.2,1c-0.6-0.5-0.1-1.7,1-2.7
							c17.7-16.7,34.8-33.5,55-48.7c2.2-1.6,4.3-3.3,6.5-4.9c-0.1-0.1-0.2-0.1-0.2-0.2c-0.2-0.3-0.3-0.8-0.1-1.3
							c-2.5,1.8-5,3.5-7.5,5.3c-6.2,5.9-12.5,11.8-19.9,17.1c-5.1,3.6-10.1,6.4-15.2,9.3c-5.5,4.9-10.9,9.8-16.5,14.7
							c-0.2,0.2-0.5,0.4-0.7,0.3c-0.2,0-0.1-0.3,0.1-0.5c3.5-3.8,7.1-7.6,10.9-11.3c-0.9,0.1-1.7,0-2-0.6c-0.4-0.6-0.2-1.4,0.3-2.4
							c-1,0.7-1.9,1.4-2.9,2.2c-0.6,0.4-1.2,0.6-1.4,0.3c-0.2-0.3,0.1-0.9,0.6-1.3c3.9-3,7.7-5.9,11.6-8.8
							c4.4-3.9,8.8-7.7,13.2-11.5c-0.9,0.1-1.7,0.1-2.3-0.2c0,0,0,0,0,0c-0.7,0.6-1.4,1.1-2.1,1.7c-11.9,11.6-24.6,22.8-38.2,33
							c-0.3,0.2-0.6,0.3-0.7,0.2c-0.1-0.1,0-0.4,0.3-0.6c4.1-3.1,8.2-6.2,12.1-9.5c0,0,0,0,0,0c-0.2,0.1-0.4-0.1-0.2-0.3
							c0.1-0.2,0.4-0.4,0.6-0.5c0.3-0.1,0.3,0.1,0.2,0.3c7.4-6,14.4-12.4,21.2-18.8c-6.7,5.4-13.5,10.8-20.6,15.9
							c-0.6,0.7-1.2,1.5-1.9,2.2c-0.2,0.2-0.5,0.3-0.7,0.3c-0.1-0.1-0.1-0.3,0.1-0.5c0.2-0.2,0.4-0.4,0.5-0.6
							c-1.3,1-2.7,1.2-3.2,0.6c-0.4-0.7,0.3-2.1,1.6-3.1c3.5-2.9,7-5.8,10.6-8.6c0.4-0.3,0.7-0.7,1.1-1c0.3-0.4,0.6-0.8,0.9-1.2
							c-5.8,4.1-11.6,8.1-17.4,12.1c-0.5,0.4-1,0.5-1.2,0.3c-0.2-0.2,0-0.7,0.5-1.1c9-8.5,18.4-16.8,28-24.9c2.5-3.5,5-7,7.6-10.6
							c-0.4,0.3-0.9,0.6-1.3,1c-10.8,8.4-17.8,18.3-27.8,27c-0.2,0.2-0.5,0.3-0.7,0.2c-0.1-0.1,0-0.3,0.2-0.6
							c4.8-4.3,8.7-8.9,13.2-13.5c3.8-3.8,7.3-7.4,10.7-11.2c-7.8,6.5-14.4,13.6-21.9,20.3c-0.3,0.3-0.7,0.5-1,0.6
							c0,0.1,0,0.2-0.1,0.3c-0.7,1.1-1.6,2.1-2.6,3.2c-0.2,0.2-0.5,0.4-0.7,0.3C451.6,459.2,451.6,459,451.8,458.7z M600.6,364.5
							c0.1,0,0.2,0,0.3,0c-0.3,0.1-0.6,0.2-0.9,0.3c0,0,0,0-1.7-0.2C598.4,364.6,599.5,364.5,600.6,364.5z M610.2,351.6
							C610.2,351.6,610.2,351.6,610.2,351.6c0.6,0.1,1,0.1,1,0.1C610.8,351.7,610.4,351.6,610.2,351.6z M538.6,420.2
							c4.2-3.2,8.5-6.2,13.1-8.9c-1,0.8-1.9,1.7-2.9,2.5C545.5,416,542.1,418.1,538.6,420.2z M611.5,361.6c-1.5,0.4-2.8,0.4-4.1,0.5
							c-0.6,0.7-1.4,1.3-2.2,1.9c-2.1,1.5-4.2,3-6.3,4.3c0.5,0.1,0,0.5-0.2,0.7c-0.2,0.2-0.5,0.4-0.7,0.7c2.3-1.4,4.6-2.8,7-4.2
							C607.2,364.2,609.4,362.7,611.5,361.6z M625.3,348.9c0.1,0,0.2,0,0.3,0c0,0,0,0,0,0.8C625.5,349.7,625.4,349.4,625.3,348.9z
							 M625.3,347.6c-0.1,0.1-0.2,0.1-0.4,0.2C624.9,347.5,625,347.5,625.3,347.6z M622,349.2c0.3,0,0.4,0,0.6,0
							C622,349.2,622,349.2,622,349.2z M608.9,336.4l0.8,3.3l-0.6-3.3L608.9,336.4z"/>
					</g>
				</g>
			</g>
		</g>
	</g>
	<g>
		<g>
			<g>
				<g>
					<path class="st2" d="M421,489.3c-0.1-0.2-0.2-0.4-0.3-0.7c0.5,0.1,1,0.5,1.5,1c-4-6.3-12.2-10.7-18.4-12.4
						c-1.6-1.4-3.6-2-4.4-1.3c-0.8,0.7-0.1,2.4,1.5,3.8c0.3,0.4,0.7,0.8,0.9,1.1c1.5,3.1,3.8,6.3,6.5,9.5c-0.4-0.7-0.9-1.5-1.4-2.2
						c0.8,0.9,1.6,1.9,2.6,2.7c0-0.2,0-0.5,0-0.7c2.4,3.6,7.2,6.7,10.6,6.9c3.5,0.2,4.3-2.5,1.9-6.1L421,489.3z"/>
					<path class="st2" d="M418.6,479.8c1.5,2,3,4.1,4.4,6.1l0.2,0.6l0.8-1.3l-0.1,0.1c-2.6-0.3-5.8-2.1-8.7-3.9l-1.1-0.6
						c-0.6-0.2-1.1-0.2-1.4,0c-0.7,0.4-0.3,1.6,0.9,2.7l1.3,1.2c2.9,3.4,8.4,7.7,12,7.1c0.8-0.1,0.9-1.1,1.3-1.7
						c0.8-0.7,0-2.5-1.7-3.9c-1.7-1.4-3.7-2-4.4-1.2c-0.2-0.3-0.5-0.6-0.8-0.9c0.3,0.1,0.6,0.2,0.9,0.2c-1.1,0.3-2.8-0.7-4.2-1.3
						l-1.9-1.2l-0.5,2.7l1.1,0.5c0-0.1,0-0.4,0-0.4c2.2,0.8,4.2,1.6,6.4,2.7l3,1.2c0.9,0.1,1.3-0.5,0.8-1.3l-0.7-1.3
						c0.1,0.2,0.2,0.4,0.3,0.6c-2.1-2.4-4.5-4.6-6.6-7c-0.3-0.4-0.8-0.7-1.2-0.6C418.3,479.1,418.3,479.4,418.6,479.8z"/>
					<g>
						<path class="st2" d="M427.5,486.4c0.3,0.5,0.5,0.9,1.1,1.3c0.2,0,0.3,0,0.4,0c-0.1-0.3-0.3-0.6-0.5-0.9
							C428.1,486.1,427.7,486.1,427.5,486.4z"/>
						<path class="st2" d="M429,487.7c0.1,0.2,0.2,0.4,0.2,0.4c0-0.1-0.1-0.2-0.1-0.4C429.1,487.7,429.1,487.7,429,487.7
							C429.1,487.7,429.1,487.7,429,487.7z"/>
						<path class="st2" d="M318.3,407.3c-7.3-6.4-14.8-12.6-22.3-18.8c-0.3-0.2-0.5-0.3-0.6-0.2c-0.1,0.1,0,0.4,0.3,0.5
							c7.5,6.2,14.9,12.4,22.3,18.8c0.3,0.2,0.5,0.3,0.7,0.2C318.6,407.7,318.5,407.5,318.3,407.3z"/>
						<path class="st2" d="M270.2,350.8c0.3,0.1,0.3-0.1,0.2-0.3c-0.1-0.2-0.4-0.4-0.6-0.5c-0.2,0-0.3,0.1-0.2,0.3
							C269.7,350.6,270,350.8,270.2,350.8z"/>
						<path class="st2" d="M279.1,342.7c1.2,0.7,2.4,1.3,3.5,1.6c0.2,0.1,0.4,0.2,0.5,0.4c0.1-0.2,0.4-0.3,0.9,0
							c8.9,4.3,17.6,10.1,26.3,15.5c0.2-0.1,0.4-0.2,0.7-0.2c0.9,0,2.3,0.6,3.3,1.6l0.8,0.8c3.3,3,6.7,6,10,9.1
							c0.9,0.3,1.8,0.8,2.8,1.5c3.5,1.8,7,3.6,10.5,5.6c-0.1-0.3-0.1-0.5,0-0.7c0.4-0.4,1.3-0.1,2.2,0.6c0.4,0.3,0.9,0.6,1.3,1
							c-1.1-1.1-2.3-2.1-3.4-3.2c-0.2-0.1-0.3-0.3-0.4-0.4c-1.3-1.1-2.7-2.1-4.1-3.1c-12.3-9-24.9-16.2-37.5-23.1
							c-0.2-0.1-0.5-0.3-0.6-0.5c0-0.2,0.1-0.3,0.3-0.2c8.7,3.4,16.9,5.4,26,10.3c10.8,5.8,21.3,11.7,31.8,18.2
							c10.2,7.9,20.4,14.3,31.4,21.6c14.8,9.9,28.3,20.1,42.1,30.7c5.4,3.7,8.8,9.1,7.6,12c-0.8,1.8-3,2.3-5.9,1.6
							c0.4,0.3,0.8,0.7,1.2,1l1.8,1.8c1.7,1.8,2.8,3.6,3.2,5.2l0.6,2.1c0.3,3.4,2.1,7.4,2,10.6l-0.9,0.5l0.2,0.5
							c0.7,1.5,1,2.8,0.6,3.8l-0.8,0.8c-1.1,0.9-2.4,1.4-4.1,1.6c-0.3,0.4-0.7,0.7-1.2,0.9c0.1,1.6-0.3,2.9-1.8,3.5
							c0.3,0.7-0.1,1-0.9,0.8c-0.3-0.1-0.5-0.2-0.8-0.4c0,0,0,0,0,0c0.1,0.5,0.1,0.6,0.3,1.1c0.4,0.5,0.7,0.7,0.7,0.7
							c1.2,1.2,1.2,1.2,2.2,2.2c0.7,1.1,0.9,2,0.9,2c-0.2,2.5-0.2,2.5-1,3.1c-0.1,0-0.2,0-0.4,0c0.7,0.9,0.7,1,0.9,1.2
							c0.1,0.3,0.2,0.6,0.2,0.6c-0.3,0.4-0.3,0.4-0.2,0.7c-0.1,0.2-0.2,0.3-0.2,0.3c-0.8,0.1-0.8,0.1-0.9,0.2c-0.2,0-0.4,0-0.4,0
							c-0.7-0.3-0.9-0.4-1-0.5c-0.4-1.9-0.4-1.9-0.4-1.9c-0.5,0.1-0.5,0.1-0.5,0.1c0.1-0.7,0.1-0.7,0.1-0.7
							c-0.2,0.5-0.2,0.5-0.2,0.5c-0.4-0.7-0.4-0.7-0.4-0.7c0.4,0.9,0.4,0.9,0.4,0.9c-1.3-1.3-1.3-1.3-1.9-1.7
							c-0.6-0.5-1.1-0.8-1.2-0.8c-0.1,0.2-0.1,0.3-0.1,0.3c-1.4-1.4-1.4-1.4-2.8-2.7c-0.1-0.2-0.1-0.4-0.1-0.5
							c-0.2,0-0.6-0.2-0.8-0.4c-0.2-0.2-0.5-0.5-0.7-0.7c-0.1,0-0.1,0-0.2-0.1c0,0,0,0,0,0c-0.3-0.1-0.6-0.2-0.8-0.3
							c-0.2-0.1-0.2-0.1-0.2-0.1c0,0,0,0,0,0c-0.6-0.2-1.4-0.5-3.5-1.4c-0.4-0.4-0.8-0.8-1.1-1.2c0.1,0.2,0.2,0.3,0.2,0.5
							c0.1,0.3-0.4,0.5-0.3,0.7c2.7,3.3,6,6.4,9.2,9.6c0.7,0.4,1.1,1.1,0.9,1.5c-0.2,0.4-0.8,0.3-1.5-0.2
							c-8.7-3.5-17.2-10.6-23.3-17.9c-1.8-1.7-3.6-3.4-5.4-5c0,0.1,0.1,0.3,0.1,0.4c-0.4-0.5-0.9-1-1.3-1.5c0,0-0.1-0.1-0.2-0.1
							c0.2,0.5,0.4,1,0.6,1.6c0.2,0.3,0.4,0.5,0.6,0.8c4.3,3.8,7.6,8,11.4,12.1c2.1,2.2,3.6,4.4,5.4,6.6c0.5,0.5,0.7,1,0.5,1.3
							c-0.3,0.2-0.9,0-1.5-0.5c-7.7-5.3-15.8-12.2-19.9-19.1c-1.3-1.1-2.5-2.3-3.2-3.5c0,0,0,0-0.1-0.1c0.1,0.4,0.3,0.8,0.4,1.2
							c-0.9-0.9-1.1-1.8-1.8-2.7c-0.1,0.3-0.2,0.7-0.3,1c-4.6-4.3-10.1-8.3-13.9-13c-0.2-0.2-0.3-0.3-0.5-0.5c-2.4-1-4.8-2-7.2-3.8
							c0.7,0.7,1.4,1.4,2.2,2.1c-2-1-3.8-2.1-5.6-3.5c-4.9-3.9-9.5-9.4-10.5-13.4c-9.8-7.2-19.5-14.5-29.4-21.4
							c-0.5-0.3-0.8-0.9-0.7-1.2c0.1-0.3,0.6-0.2,1.1,0.1c7.5,4.5,14.7,9.5,22,14.6c-5.5-4.9-11.1-9.8-17-14.6
							c-0.8-0.6-1.6-1.1-2.4-1.7c-0.8-0.6-1.5-1.2-2.2-1.9c-7.6-5.9-14.7-11.7-23-17.2c-7-4.7-13.2-8.7-20.4-13.1
							c-10.1-6.2-19.3-11.8-28.5-18.9c-1.3-0.9-2.1-2.2-1.8-2.9c0.3-0.7,1.6-0.5,2.9,0.3c20.5,13.1,41,25.5,60.8,41.3
							c2.1,1.7,4.2,3.4,6.3,5.1c0-0.1,0.1-0.2,0.1-0.3c0.2-0.3,0.7-0.5,1.2-0.4c-2.3-1.9-4.7-3.9-6.9-6c-7.3-4.6-14.5-9.2-21.5-15.1
							c-4.7-4.1-8.7-8.2-12.7-12.4c-6.1-4.1-12.2-8.2-18.3-12.4c-0.3-0.1-0.5-0.4-0.5-0.6c0-0.2,0.2-0.2,0.5-0.1
							c4.6,2.4,9.1,5.1,13.7,7.8c-0.4-0.9-0.4-1.6,0.1-2.1c0.5-0.5,1.3-0.6,2.4-0.3c-0.9-0.7-1.9-1.5-2.8-2.2
							c-0.6-0.5-0.9-1-0.6-1.3c0.2-0.3,0.9-0.1,1.4,0.3c3.8,3,7.6,6,11.4,9.1c4.8,3.3,9.6,6.6,14.4,10c-0.4-0.9-0.5-1.7-0.3-2.3
							c0,0,0,0,0,0c-0.7-0.5-1.4-1.1-2.2-1.6c-14.2-8.6-28.2-18.2-41.4-28.9c-0.3-0.2-0.4-0.5-0.3-0.6c0.1-0.1,0.4-0.1,0.6,0.1
							c4,3.2,8,6.4,12.2,9.4c0,0,0,0,0,0c-0.1-0.2,0-0.4,0.2-0.3c0.2,0,0.5,0.3,0.6,0.5c0.1,0.2,0,0.4-0.2,0.3
							c7.7,5.6,15.5,10.9,23.5,15.9c-6.9-5.2-13.8-10.4-20.5-16c-0.9-0.4-1.7-0.8-2.6-1.3c-0.2-0.1-0.4-0.4-0.4-0.6
							c0-0.1,0.3-0.2,0.5,0c0.2,0.1,0.5,0.2,0.7,0.4c-1.3-1.1-1.9-2.3-1.3-3c0.6-0.6,2.1-0.2,3.4,0.8c3.7,2.7,7.3,5.4,10.9,8.2
							c0.4,0.3,0.8,0.5,1.3,0.8c0.5,0.2,0.9,0.4,1.4,0.6c-5.4-4.6-10.7-9.2-16-13.9c-0.5-0.4-0.7-0.9-0.6-1.1
							c0.2-0.2,0.7-0.1,1.2,0.2c10.5,6.7,20.8,13.7,31.1,21c4,1.6,8.1,3.1,12.1,4.7c-0.4-0.3-0.8-0.7-1.2-1
							c-10.8-8.4-22.1-12.7-33-20.3c-0.3-0.2-0.4-0.4-0.4-0.6c0.1-0.1,0.3-0.1,0.6,0.1c5.4,3.6,10.8,6.2,16.4,9.5
							c4.6,2.7,9,5.3,13.5,7.6c-8.2-5.9-16.7-10.6-25-16.2c-0.4-0.2-0.7-0.5-0.8-0.8c-0.1,0-0.2,0.1-0.3,0c-1.2-0.5-2.5-1.1-3.7-1.7
							c-0.3-0.1-0.5-0.4-0.5-0.6C278.6,342.6,278.8,342.6,279.1,342.7z M407.1,463.8c0,0.1,0.1,0.2,0.1,0.3
							c-0.2-0.2-0.3-0.5-0.5-0.8c0,0,0,0-0.3-1.7C406.4,461.6,406.8,462.7,407.1,463.8z M422,469.8
							C421.9,469.8,421.9,469.8,422,469.8c0.1,0.5,0.1,0.9,0.1,0.9C422,470.4,422,470.1,422,469.8z M337.9,417.4
							c4.2,3.3,8.1,6.7,11.8,10.5c-1-0.7-2.1-1.5-3.1-2.2C343.6,423,340.8,420.2,337.9,417.4z M412.6,473.6
							c-0.7-1.3-1.1-2.6-1.5-3.8c-0.8-0.5-1.6-1-2.3-1.6c-2-1.7-3.9-3.4-5.8-5.1c0,0.5-0.4,0.1-0.7,0c-0.3-0.2-0.5-0.3-0.8-0.5
							c1.9,1.9,3.8,3.8,5.8,5.7C409,470,411,471.8,412.6,473.6z M428.3,483.8c0,0.1,0.1,0.2,0.1,0.3c0,0,0,0-0.8,0.2
							C427.6,484.2,427.9,484.1,428.3,483.8z M429.5,483.5c-0.1-0.1-0.2-0.2-0.2-0.3C429.5,483.1,429.6,483.2,429.5,483.5z
							 M427.2,480.7c0.1,0.3,0.1,0.4,0.2,0.6C427.2,480.7,427.2,480.7,427.2,480.7z M436.4,464.8l-3,1.6l3-1.4L436.4,464.8z"/>
					</g>
				</g>
			</g>
		</g>
	</g>
	<g>
		<g>
			<g>
				<g>
					<path class="st2" d="M642.8,182.3c-0.1,0.2-0.2,0.3-0.3,0.5c-0.2-0.3-0.2-0.7-0.1-1.2c-2.5,4.9-1,11.2,1.5,15.4
						c-0.1,1.5,0.7,2.8,1.7,2.9c1,0.1,1.9-1,2-2.5c0.1-0.3,0.2-0.7,0.4-1c1.6-2.1,2.7-4.8,3.5-7.6c-0.3,0.6-0.6,1.1-0.9,1.7
						c0.2-0.8,0.5-1.7,0.5-2.6c-0.2,0.1-0.4,0.2-0.6,0.3c1.4-2.9,0.9-6.8-1.1-8.8c-2-2-4.7-1.3-6,1.6L642.8,182.3z"/>
					<path class="st2" d="M636.8,187.6c0.7-1.7,1.4-3.4,2.1-5l0.4-0.3l-1.6,0.1l0.1,0c1.3,1.5,1.9,4.1,2.2,6.4l0.2,0.8
						c0.2,0.4,0.5,0.7,0.8,0.8c0.8,0.2,1.5-0.5,1.6-1.6l0.1-1.3c0.9-3.1,0.9-7.9-1.7-9.6c-0.6-0.4-1.4,0-2.1,0c-1-0.1-2,1-2,2.6
						c-0.1,1.5,0.7,2.9,1.8,3c-0.1,0.3-0.1,0.5-0.2,0.8c-0.1-0.2-0.2-0.4-0.4-0.6c0.9,0.4,1.1,1.8,1.6,2.9l0.3,1.6l2.4-0.9l-0.3-0.8
						c-0.1,0.1-0.3,0.2-0.3,0.2c-0.7-1.5-1.3-3-1.8-4.7l-0.9-2.1c-0.5-0.6-1.2-0.5-1.6,0.1l-0.5,0.9c0.1-0.1,0.2-0.3,0.3-0.4
						c-0.6,2.2-0.9,4.5-1.5,6.6c-0.1,0.3,0,0.8,0.2,0.9C636.4,188.1,636.7,188,636.8,187.6z"/>
					<g>
						<path class="st2" d="M636.5,179.9c0.2-0.4,0.4-0.7,0.3-1.2c-0.1-0.1-0.2-0.2-0.2-0.2c-0.1,0.2-0.3,0.4-0.4,0.7
							C635.9,179.7,636.1,180,636.5,179.9z"/>
						<path class="st2" d="M636.6,178.5c0.1-0.2,0.2-0.3,0.2-0.3C636.7,178.3,636.6,178.4,636.6,178.5
							C636.6,178.5,636.6,178.5,636.6,178.5C636.6,178.5,636.6,178.5,636.6,178.5z"/>
						<path class="st2" d="M641.1,273.7c-0.5,6.7-0.9,13.5-1.1,20.3c0,0.2,0.1,0.4,0.3,0.4c0.1,0,0.3-0.2,0.3-0.4
							c0.3-6.8,0.6-13.5,1.1-20.2c0-0.2-0.1-0.4-0.2-0.4C641.3,273.3,641.1,273.4,641.1,273.7z"/>
						<path class="st2" d="M626,324.1c-0.1-0.2-0.3-0.2-0.4,0c-0.1,0.1-0.1,0.4,0,0.6c0.1,0.1,0.3,0.1,0.4,0
							C626.1,324.5,626.1,324.3,626,324.1z"/>
						<path class="st2" d="M614.1,322.7c-0.2-0.9-0.5-1.8-0.9-2.6c-0.1-0.1,0-0.3,0-0.4c-0.2,0.1-0.5-0.1-0.6-0.5
							c-2-6.7-2.8-13.9-3.9-21.1c-0.2,0-0.4-0.1-0.6-0.3c-0.6-0.5-0.9-1.5-0.8-2.5l0.2-0.8c0.4-3.1,0.6-6.2,1-9.3
							c-0.3-0.6-0.5-1.4-0.5-2.2c-0.8-2.7-1.5-5.4-2-8.1c-0.2,0.2-0.4,0.3-0.6,0.3c-0.5-0.1-0.9-0.7-0.9-1.4c0-0.4,0-0.8,0-1.1
							c-0.1,1.1-0.3,2.2-0.4,3.2c0,0.2,0,0.3-0.1,0.4c0,1.2,0,2.4,0,3.6c0.5,10.6,2.5,20.6,4.8,30.4c0.1,0.2,0.1,0.4-0.1,0.6
							c-0.1,0.1-0.3,0.1-0.4-0.1c-2.6-6.2-6.1-11.6-7.8-18.7c-2.1-8.4-3.8-16.7-5.1-25.3c0-9-1.3-17.3-2.2-26.5
							c-1.3-12.4-1.5-24.1-1.6-36.2c-0.4-4.5,1.8-8.7,4.9-9.3c1.9-0.3,3.7,0.7,4.9,2.6c0-0.4,0-0.7,0-1.1l0.4-1.8
							c0.4-1.7,1.1-3.1,2.2-4l1.3-1.2c2.5-1.6,4.5-4.3,7.1-5.6l1,0.3l0.3-0.3c0.7-1,1.6-1.7,2.6-2l1.2,0.1c1.4,0.2,2.6,0.7,3.8,1.6
							c0.5,0,1,0.1,1.5,0.3c1.2-0.7,2.5-1.1,3.9-0.5c0.3-0.4,0.9-0.4,1.2,0.2c0.1,0.2,0.2,0.4,0.2,0.6c0,0,0,0,0,0
							c0.3-0.2,0.4-0.3,0.7-0.6c0.1-0.4,0.2-0.7,0.2-0.7c0.2-1.1,0.2-1.1,0.4-2.1c0.4-0.8,1-1.4,1-1.4c2.1-0.9,2.1-0.9,3-0.8
							c0.1,0.1,0.2,0.1,0.3,0.2c0.3-0.8,0.3-0.8,0.4-1c0.2-0.2,0.4-0.4,0.4-0.4c0.5,0,0.5,0,0.7-0.2c0.2,0,0.4,0,0.4,0
							c0.5,0.4,0.5,0.4,0.7,0.4c0.1,0.1,0.3,0.2,0.3,0.2c0.2,0.5,0.2,0.7,0.3,0.8c-1.3,1.1-1.3,1.1-1.3,1.1c0.4,0.2,0.4,0.2,0.4,0.2
							c-0.6,0.2-0.6,0.2-0.6,0.2c0.5-0.1,0.5-0.1,0.5-0.1c-0.3,0.5-0.3,0.5-0.3,0.5c0.5-0.6,0.5-0.6,0.5-0.6
							c-0.2,1.3-0.2,1.3-0.2,1.8c-0.1,0.5,0.1,1,0.1,1c0.2,0,0.3,0,0.3,0c-0.2,1.3-0.2,1.3-0.4,2.7c-0.1,0.1-0.2,0.2-0.4,0.3
							c0.1,0.1,0.2,0.4,0.2,0.6c0,0.2-0.1,0.5-0.1,0.7c0,0.1,0.1,0.1,0.1,0.1c0,0,0,0,0,0c0.1,0.2,0.2,0.4,0.2,0.6
							c0.1,0.1,0.1,0.1,0.1,0.1c0,0,0,0,0,0c0.2,0.4,0.4,1,1.1,2.5c-0.1,0.4-0.2,0.8-0.3,1.1c0.1-0.1,0.2-0.2,0.2-0.3
							c0.2-0.2,0.6,0,0.7-0.1c1-2.9,1.4-6,1.9-9.1c-0.1-0.6,0.2-1.1,0.6-1.2c0.4-0.1,0.7,0.3,0.8,0.9c2.5,6.3,2.2,14,0.2,20.4
							c-0.2,1.7-0.5,3.4-0.7,5.1c0.1-0.1,0.2-0.2,0.2-0.2c-0.1,0.4-0.2,0.9-0.4,1.3c0,0,0,0.1,0,0.1c0.3-0.3,0.6-0.7,0.9-1
							c0.1-0.2,0.2-0.5,0.2-0.7c0.4-4,1.7-7.6,2.5-11.4c0.5-2.1,1.3-3.8,1.9-5.8c0-0.5,0.4-0.8,0.7-0.8c0.3,0.1,0.6,0.5,0.5,1
							c0.6,6.5,0,13.9-2.9,19.1c0,1.2-0.3,2.3-0.8,3.3c0,0,0,0,0,0.1c0.2-0.2,0.5-0.5,0.7-0.7c-0.2,0.9-0.8,1.4-1,2.2
							c0.3-0.1,0.6-0.2,1-0.3c-0.6,4.4-0.3,9.1-1.7,13.1c0,0.2-0.1,0.3-0.1,0.5c0.7,1.7,1.3,3.5,1.4,5.6c0.1-0.7,0.2-1.4,0.3-2.1
							c0.4,1.5,0.7,3,0.7,4.6c-0.1,4.3-1.6,9.2-4.1,11.5c0.3,8.4,0.6,16.9,1.2,25.3c0,0.4-0.2,0.8-0.5,0.9c-0.3,0-0.6-0.2-0.6-0.7
							c-1-6-1.5-12.2-2-18.3c-0.5,5.1-1,10.3-1.1,15.5c0,0.7,0.1,1.3,0.1,2c0,0.7,0,1.3-0.2,2c0,6.7-0.2,13.1,0.5,19.9
							c0.6,5.8,1.3,11,2.2,16.8c1.3,8.2,2.6,15.6,2.6,23.7c0.1,1.1-0.4,2.1-1.2,2.2c-0.7,0.1-1.4-0.6-1.5-1.7
							c-2.3-16.8-5.1-33.4-4.7-51c0-1.9,0.1-3.8,0.1-5.6c-0.1,0-0.2,0-0.3,0c-0.4,0-0.8-0.2-1.1-0.5c-0.1,2.1-0.3,4.2-0.5,6.4
							c0.8,5.9,1.7,11.9,1.3,18.2c-0.3,4.3-1.2,8.3-2,12.3c0.5,5.1,1,10.2,1.4,15.3c0.1,0.2,0,0.4-0.2,0.5c-0.1,0.1-0.3,0-0.3-0.2
							c-0.9-3.5-1.6-7.2-2.2-10.8c-0.5,0.6-1.1,0.9-1.7,0.9c-0.7,0-1.3-0.5-1.7-1.2c0,0.8,0,1.7,0,2.5c0,0.5-0.3,0.9-0.6,0.9
							c-0.4,0-0.6-0.4-0.6-0.9c0-3.4,0.1-6.8,0.1-10.1c-0.4-4.1-0.7-8.1-1-12.2c-0.4,0.6-1,1-1.6,1.2c0,0,0,0,0,0
							c0,0.6,0,1.3,0.1,1.9c1.9,11.5,2.9,23.2,2.6,35.1c0,0.2-0.1,0.4-0.3,0.4c-0.2,0-0.3-0.2-0.3-0.4c0.1-3.6,0.1-7.1,0-10.7
							c0,0,0,0,0,0c-0.1,0.1-0.3,0.2-0.4,0c-0.1-0.1-0.1-0.4,0-0.6c0.1-0.2,0.3-0.1,0.4,0c-0.3-6.6-0.9-13.2-1.9-19.7
							c0.2,6,0.3,12.1,0,18.1c0.2,0.7,0.4,1.3,0.6,2c0,0.2-0.1,0.4-0.2,0.5c-0.1,0.1-0.3-0.1-0.3-0.3c0-0.2-0.1-0.4-0.1-0.6
							c-0.1,1.1-0.7,2-1.5,2c-0.8-0.1-1.5-1-1.4-2.2c-0.2-3.2-0.2-6.3-0.3-9.5c0-0.3-0.1-0.7-0.1-1c-0.1-0.3-0.3-0.7-0.4-1
							c-0.3,4.9-0.7,9.8-1.1,14.7c0,0.4-0.2,0.8-0.5,0.8c-0.3,0-0.5-0.3-0.5-0.7c-1.2-8.6-1.9-17.3-2.5-26c-1.2-2.9-2.5-5.7-3.7-8.7
							c0,0.4,0,0.7,0,1.1c0,9.5,3.5,17.6,4.3,26.7c0,0.2-0.1,0.4-0.2,0.5c-0.1,0-0.3-0.1-0.3-0.4c-0.5-4.5-1.7-8.6-2.5-13
							c-0.7-3.7-1.4-7.2-2.3-10.6c0.3,7,1.9,13.7,2.6,20.7c0.1,0.3,0,0.6-0.2,0.8c0.1,0,0.2,0.1,0.2,0.2c0.4,0.9,0.7,1.8,0.9,2.8
							c0.1,0.2,0,0.4-0.2,0.5C614.4,323,614.2,322.9,614.1,322.7z M631.1,200.8c0.1-0.1,0.1-0.1,0.2-0.2c-0.1,0.2-0.2,0.4-0.3,0.6
							c0,0,0,0-1.2,0.9C629.8,202.1,630.5,201.4,631.1,200.8z M626.8,190.1C626.8,190.1,626.8,190.1,626.8,190.1
							c0.4-0.3,0.7-0.5,0.7-0.5C627.2,189.8,627,189.9,626.8,190.1z M637,258.6c0-3.7,0.3-7.3,1-11c0.1,0.9,0.1,1.8,0.2,2.7
							C637.9,253,637.5,255.8,637,258.6z M635.6,193.6c-0.6,1-1.4,1.7-2.1,2.4c0.1,0.6,0.2,1.3,0.2,2c-0.1,1.8-0.2,3.6-0.5,5.3
							c0.4-0.2,0.4,0.2,0.4,0.4c0,0.2,0.1,0.4,0.1,0.7c0.3-1.9,0.6-3.7,1-5.6C634.9,197.1,635.1,195.2,635.6,193.6z M634,180.6
							c0.1-0.1,0.1-0.1,0.2-0.2c0,0,0,0,0.6,0.3C634.7,180.8,634.4,180.7,634,180.6z M632.9,180.1c0,0.1-0.1,0.2-0.1,0.3
							C632.6,180.3,632.7,180.2,632.9,180.1z M632.2,182.5c0.2-0.1,0.3-0.2,0.3-0.3C632.2,182.5,632.2,182.5,632.2,182.5z
							 M614,184.3l3.1,1l-3-1L614,184.3z"/>
					</g>
				</g>
			</g>
		</g>
	</g>
	<defs>
		<filter id="Adobe_OpacityMaskFilter" filterUnits="userSpaceOnUse" x="247.5" y="161.9" width="371.1" height="315.1">
			<feColorMatrix  type="matrix" values="1 0 0 0 0  0 1 0 0 0  0 0 1 0 0  0 0 0 1 0"/>
		</filter>
	</defs>
	<mask maskUnits="userSpaceOnUse" x="247.5" y="161.9" width="371.1" height="315.1" id="SVGID_1_">
		<g class="st3">
			<circle class="st4" cx="445.7" cy="255.3" r="168.6"/>
		</g>
	</mask>
	<g class="st5">
		<g>
			<g>
				<g>
					<g>
						<path class="st2" d="M433,296.5c0.2-0.1,0.5-0.1,0.7-0.2c-0.2,0.4-0.7,0.8-1.3,1.2c7.1-2.3,13.4-9.1,16.5-14.8
							c1.7-1.2,2.8-3,2.3-3.9c-0.5-0.9-2.3-0.7-4,0.6c-0.4,0.2-0.9,0.5-1.3,0.5c-3.4,0.6-7,2.1-10.8,4c0.8-0.3,1.7-0.5,2.5-0.8
							c-1.1,0.5-2.2,1.1-3.3,1.9c0.2,0.1,0.5,0.1,0.7,0.2c-4.1,1.5-8.3,5.3-9.3,8.6c-1.1,3.3,1.4,4.8,5.5,3.4L433,296.5z"/>
						<path class="st2" d="M442.7,296.5c-2.4,1-4.7,1.9-7,2.7l-0.6,0l1.1,1.2l0-0.1c0.9-2.4,3.5-5.1,5.9-7.5l0.8-0.9
							c0.3-0.5,0.4-1,0.3-1.3c-0.2-0.8-1.5-0.7-2.8,0.2l-1.5,1c-4,2-9.6,6.2-9.9,9.9c-0.1,0.8,0.8,1.2,1.3,1.6
							c0.5,0.9,2.4,0.6,4.2-0.7c1.8-1.3,2.8-3.1,2.3-4c0.3-0.2,0.7-0.4,1-0.5c-0.1,0.3-0.3,0.6-0.5,0.8c-0.1-1.1,1.4-2.5,2.3-3.8
							l1.6-1.6l-2.5-1.2l-0.7,1c0.1,0,0.4,0,0.4,0.1c-1.3,1.9-2.6,3.7-4.2,5.5l-1.9,2.6c-0.4,0.9,0.1,1.4,1.1,1.2l1.4-0.4
							c-0.2,0-0.4,0.1-0.7,0.1c2.8-1.5,5.6-3.3,8.4-4.7c0.5-0.2,0.9-0.7,0.9-1C443.5,296.4,443.2,296.3,442.7,296.5z"/>
						<g>
							<path class="st2" d="M434.2,303.5c-0.5,0.2-1,0.3-1.6,0.8c-0.1,0.2-0.1,0.3-0.1,0.3c0.3-0.1,0.7-0.2,1-0.3
								C434.3,304.2,434.4,303.8,434.2,303.5z"/>
							<path class="st2" d="M432.5,304.7c-0.3,0.1-0.4,0.1-0.4,0.1c0.1,0,0.2,0,0.4,0C432.5,304.7,432.5,304.7,432.5,304.7
								C432.5,304.7,432.5,304.7,432.5,304.7z"/>
							<path class="st2" d="M537.8,217.1c8-5.5,15.9-11.2,23.7-17c0.3-0.2,0.4-0.4,0.3-0.6c-0.1-0.1-0.4-0.1-0.6,0.1
								c-7.9,5.8-15.7,11.4-23.7,17c-0.3,0.2-0.4,0.4-0.4,0.6C537.3,217.3,537.5,217.3,537.8,217.1z"/>
							<path class="st2" d="M604.4,184.5c-0.1,0.2,0,0.4,0.2,0.3c0.2-0.1,0.5-0.3,0.6-0.5c0.1-0.2,0-0.3-0.2-0.3
								C604.7,184,604.4,184.3,604.4,184.5z"/>
							<path class="st2" d="M610,195.1c-0.9,1-1.8,2-2.5,3c-0.1,0.2-0.3,0.3-0.5,0.4c0.2,0.1,0.1,0.5-0.2,0.9
								c-6.4,7.5-14.1,14.5-21.5,21.7c0.1,0.2,0.1,0.4,0,0.7c-0.2,0.9-1.1,2-2.3,2.9l-1,0.6c-3.8,2.5-7.5,5-11.2,7.5
								c-0.6,0.8-1.3,1.6-2.1,2.3c-2.6,3-5.2,5.9-8,8.8c0.3,0,0.5,0,0.7,0.2c0.3,0.5-0.2,1.3-1.1,2c-0.4,0.3-0.8,0.7-1.3,1
								c1.3-0.9,2.6-1.7,3.9-2.5c0.2-0.1,0.4-0.2,0.5-0.3c1.4-1,2.7-2.1,4.1-3.2c11.7-9.7,21.8-20.1,31.6-30.6
								c0.1-0.2,0.4-0.4,0.7-0.5c0.2,0,0.3,0.2,0.1,0.4c-5.5,7.6-9.4,15.1-16.4,22.7c-8.2,9-16.6,17.7-25.5,26.4
								c-10.2,7.9-18.9,16.3-28.7,25.1c-13.3,11.9-26.4,22.4-40.1,33.2c-4.9,4.3-11,6.3-13.5,4.4c-1.5-1.2-1.5-3.5-0.1-6.1
								c-0.4,0.3-0.9,0.6-1.3,0.9l-2.2,1.3c-2.1,1.2-4.2,1.8-5.9,1.8l-2.2,0.1c-3.4-0.5-7.7,0.2-10.8-0.7l-0.3-1l-0.5,0.1
								c-1.6,0.4-3,0.2-3.9-0.3l-0.6-1c-0.6-1.3-0.8-2.7-0.5-4.4c-0.3-0.4-0.5-0.8-0.6-1.4c-1.6-0.3-2.7-1-2.9-2.6
								c-0.7,0.1-0.9-0.4-0.5-1.1c0.1-0.2,0.3-0.5,0.6-0.7c0,0,0,0,0,0c-0.5,0-0.6,0-1.2,0c-0.5,0.3-0.9,0.5-0.9,0.5
								c-1.4,0.8-1.4,0.8-2.7,1.6c-1.2,0.4-2.2,0.4-2.2,0.4c-2.4-0.8-2.4-0.8-2.8-1.7c0-0.1,0-0.2,0-0.4c-1,0.4-1.1,0.5-1.4,0.6
								c-0.3,0.1-0.6,0-0.6,0c-0.3-0.4-0.3-0.4-0.6-0.4c-0.2-0.1-0.3-0.3-0.3-0.3c0.1-0.8,0.1-0.8,0.1-0.9c0-0.2,0.1-0.4,0.1-0.4
								c0.5-0.6,0.6-0.8,0.7-0.9c2,0.1,2,0.1,2,0.1c0-0.5,0-0.5,0-0.5c0.6,0.2,0.6,0.2,0.6,0.2c-0.5-0.3-0.5-0.3-0.5-0.3
								c0.8-0.2,0.8-0.2,0.8-0.2c-1,0.2-1,0.2-1,0.2c1.6-1,1.6-1,2.1-1.4c0.6-0.4,1.1-0.9,1.1-1c-0.2-0.1-0.2-0.2-0.2-0.2
								c1.7-1,1.7-1,3.3-2c0.2,0,0.4,0,0.6,0c0.1-0.2,0.3-0.5,0.6-0.7c0.3-0.2,0.6-0.4,0.8-0.5c0-0.1,0.1-0.1,0.1-0.2c0,0,0,0,0,0
								c0.2-0.3,0.3-0.5,0.5-0.7c0.1-0.1,0.1-0.2,0.1-0.2c0,0,0,0,0,0c0.3-0.5,0.9-1.2,2.2-3.1c0.5-0.3,1-0.6,1.5-0.8
								c-0.2,0-0.4,0.1-0.5,0.1c-0.3,0.1-0.4-0.5-0.6-0.4c-3.9,1.8-7.7,4.2-11.5,6.5c-0.6,0.5-1.4,0.8-1.7,0.5
								c-0.3-0.2-0.1-0.9,0.5-1.4c5.6-7.5,14.5-14,23.1-18.1c2.1-1.3,4.1-2.6,6.2-4c-0.1,0-0.3,0-0.4,0c0.6-0.3,1.2-0.6,1.7-0.9
								c0.1,0,0.1-0.1,0.2-0.1c-0.6,0.1-1.1,0.1-1.7,0.2c-0.3,0.1-0.6,0.3-0.9,0.4c-4.7,3.2-9.6,5.3-14.5,8.1
								c-2.6,1.5-5.1,2.4-7.7,3.6c-0.6,0.4-1.2,0.5-1.3,0.1c-0.1-0.3,0.2-0.9,0.8-1.3c7-6.2,15.8-12.3,23.5-14.6
								c1.4-1,2.8-1.9,4.2-2.3c0,0,0,0,0.1,0c-0.4,0-0.8,0-1.3,0.1c1.1-0.6,2-0.6,3.1-1.1c-0.3-0.2-0.6-0.3-0.9-0.5
								c5.3-3.4,10.5-7.8,16-10.2c0.2-0.1,0.4-0.2,0.6-0.3c1.6-2.1,3.2-4.2,5.5-6c-0.9,0.5-1.7,1.1-2.6,1.6c1.4-1.7,3-3.2,4.8-4.6
								c5-3.8,11.4-6.9,15.6-6.9c9.4-7.7,18.8-15.3,28-23.2c0.5-0.4,1-0.6,1.3-0.4c0.2,0.2,0.1,0.7-0.4,1.1
								c-6.2,6.1-12.9,11.9-19.5,17.7c6.1-4.1,12.3-8.3,18.3-12.9c0.7-0.6,1.5-1.3,2.2-1.9c0.7-0.6,1.5-1.1,2.4-1.6
								c7.6-5.9,15-11.4,22.3-18c6.3-5.7,11.7-10.7,17.7-16.5c8.5-8.2,16.2-15.8,25.3-22.9c1.2-1,2.6-1.5,3.2-1
								c0.6,0.5,0.1,1.7-1,2.7c-17.7,16.7-34.8,33.5-55,48.7c-2.2,1.6-4.3,3.3-6.5,4.9c0.1,0.1,0.2,0.1,0.2,0.2
								c0.2,0.3,0.3,0.8,0.1,1.3c2.5-1.8,5-3.5,7.5-5.3c6.2-5.9,12.5-11.8,19.9-17.1c5.1-3.6,10.1-6.4,15.2-9.3
								c5.5-4.9,10.9-9.8,16.5-14.7c0.2-0.2,0.5-0.4,0.7-0.3c0.2,0,0.1,0.3-0.1,0.5c-3.5,3.8-7.1,7.6-10.9,11.3c0.9-0.1,1.7,0,2,0.6
								c0.4,0.6,0.2,1.4-0.3,2.4c1-0.7,1.9-1.4,2.9-2.2c0.6-0.4,1.2-0.6,1.4-0.3c0.2,0.3-0.1,0.9-0.6,1.3c-3.9,3-7.7,5.9-11.6,8.8
								c-4.4,3.9-8.8,7.7-13.2,11.5c0.9-0.1,1.7-0.1,2.3,0.2c0,0,0,0,0,0c0.7-0.6,1.4-1.1,2.1-1.7c11.9-11.6,24.6-22.8,38.2-33
								c0.3-0.2,0.6-0.3,0.7-0.2c0.1,0.1,0,0.4-0.3,0.6c-4.1,3.1-8.2,6.2-12.1,9.5c0,0,0,0,0,0c0.2-0.1,0.4,0.1,0.2,0.3
								c-0.1,0.2-0.4,0.4-0.6,0.5c-0.3,0.1-0.3-0.1-0.2-0.3c-7.4,6-14.4,12.4-21.2,18.8c6.7-5.4,13.5-10.8,20.6-15.9
								c0.6-0.7,1.2-1.5,1.9-2.2c0.2-0.2,0.5-0.3,0.7-0.3c0.1,0.1,0.1,0.3-0.1,0.5c-0.2,0.2-0.4,0.4-0.5,0.6c1.3-1,2.7-1.2,3.2-0.6
								c0.4,0.7-0.3,2.1-1.6,3.1c-3.5,2.9-7,5.8-10.6,8.6c-0.4,0.3-0.7,0.7-1.1,1c-0.3,0.4-0.6,0.8-0.9,1.2
								c5.8-4.1,11.6-8.1,17.4-12.1c0.5-0.4,1-0.5,1.2-0.3c0.2,0.2,0,0.7-0.5,1.1c-9,8.5-18.4,16.8-28,24.9c-2.5,3.5-5,7-7.6,10.6
								c0.4-0.3,0.9-0.6,1.3-1c10.8-8.4,17.8-18.3,27.8-27c0.2-0.2,0.5-0.3,0.7-0.2c0.1,0.1,0,0.3-0.2,0.6
								c-4.8,4.3-8.7,8.9-13.2,13.5c-3.8,3.8-7.3,7.4-10.7,11.2c7.8-6.5,14.4-13.6,21.9-20.3c0.3-0.3,0.7-0.5,1-0.6
								c0-0.1,0-0.2,0.1-0.3c0.7-1.1,1.6-2.1,2.6-3.2c0.2-0.2,0.5-0.4,0.7-0.3C610.2,194.7,610.2,194.9,610,195.1z M461.1,289.3
								c-0.1,0-0.2,0-0.3,0c0.3-0.1,0.6-0.2,0.9-0.3c0,0,0,0,1.7,0.2C463.4,289.2,462.3,289.3,461.1,289.3z M451.6,302.2
								C451.6,302.2,451.6,302.2,451.6,302.2c-0.6-0.1-1-0.1-1-0.1C451,302.2,451.3,302.2,451.6,302.2z M523.2,233.7
								c-4.2,3.2-8.5,6.2-13.1,8.9c1-0.8,1.9-1.7,2.9-2.5C516.3,237.9,519.7,235.8,523.2,233.7z M450.3,292.2
								c1.5-0.4,2.8-0.4,4.1-0.5c0.6-0.7,1.4-1.3,2.2-1.9c2.1-1.5,4.2-3,6.3-4.3c-0.5-0.1,0-0.5,0.2-0.7c0.2-0.2,0.5-0.4,0.7-0.7
								c-2.3,1.4-4.6,2.8-7,4.2C454.6,289.6,452.4,291.1,450.3,292.2z M436.5,304.9c-0.1,0-0.2,0-0.3,0c0,0,0,0,0-0.8
								C436.3,304.1,436.4,304.5,436.5,304.9z M436.5,306.2c0.1-0.1,0.2-0.1,0.4-0.2C436.9,306.3,436.8,306.3,436.5,306.2z
								 M439.8,304.7c-0.3,0-0.4,0-0.6,0C439.8,304.7,439.8,304.7,439.8,304.7z M452.9,317.4l-0.8-3.3l0.6,3.3L452.9,317.4z"/>
						</g>
					</g>
				</g>
			</g>
		</g>
		<g>
			<g>
				<g>
					<g>
						<path class="st2" d="M421,330.1c-0.1-0.2-0.2-0.4-0.3-0.7c0.5,0.1,1,0.5,1.5,1c-4-6.3-12.2-10.7-18.4-12.4
							c-1.6-1.4-3.6-2-4.4-1.3c-0.8,0.7-0.1,2.4,1.5,3.8c0.3,0.4,0.7,0.8,0.9,1.1c1.5,3.1,3.8,6.3,6.5,9.5c-0.4-0.7-0.9-1.5-1.4-2.2
							c0.8,0.9,1.6,1.9,2.6,2.7c0-0.2,0-0.5,0-0.7c2.4,3.6,7.2,6.7,10.6,6.9c3.5,0.2,4.3-2.5,1.9-6.1L421,330.1z"/>
						<path class="st2" d="M418.6,320.6c1.5,2,3,4.1,4.4,6.1l0.2,0.6l0.8-1.3l-0.1,0.1c-2.6-0.3-5.8-2.1-8.7-3.9l-1.1-0.6
							c-0.6-0.2-1.1-0.2-1.4,0c-0.7,0.4-0.3,1.6,0.9,2.7l1.3,1.2c2.9,3.4,8.4,7.7,12,7.1c0.8-0.1,0.9-1.1,1.3-1.7
							c0.8-0.7,0-2.5-1.7-3.9c-1.7-1.4-3.7-2-4.4-1.2c-0.2-0.3-0.5-0.6-0.8-0.9c0.3,0.1,0.6,0.2,0.9,0.2c-1.1,0.3-2.8-0.7-4.2-1.3
							l-1.9-1.2l-0.5,2.7l1.1,0.5c0-0.1,0-0.4,0-0.4c2.2,0.8,4.2,1.6,6.4,2.7l3,1.2c0.9,0.1,1.3-0.5,0.8-1.3l-0.7-1.3
							c0.1,0.2,0.2,0.4,0.3,0.6c-2.1-2.4-4.5-4.6-6.6-7c-0.3-0.4-0.8-0.7-1.2-0.6C418.3,319.9,418.3,320.2,418.6,320.6z"/>
						<g>
							<path class="st2" d="M427.5,327.2c0.3,0.5,0.5,0.9,1.1,1.3c0.2,0,0.3,0,0.4,0c-0.1-0.3-0.3-0.6-0.5-0.9
								C428.1,326.9,427.7,326.9,427.5,327.2z"/>
							<path class="st2" d="M429,328.5c0.1,0.2,0.2,0.4,0.2,0.4c0-0.1-0.1-0.2-0.1-0.4C429.1,328.5,429.1,328.5,429,328.5
								C429.1,328.5,429.1,328.5,429,328.5z"/>
							<path class="st2" d="M318.3,248.1c-7.3-6.4-14.8-12.6-22.3-18.8c-0.3-0.2-0.5-0.3-0.6-0.2c-0.1,0.1,0,0.4,0.3,0.5
								c7.5,6.2,14.9,12.4,22.3,18.8c0.3,0.2,0.5,0.3,0.7,0.2C318.6,248.5,318.5,248.3,318.3,248.1z"/>
							<path class="st2" d="M270.2,191.6c0.3,0.1,0.3-0.1,0.2-0.3c-0.1-0.2-0.4-0.4-0.6-0.5c-0.2,0-0.3,0.1-0.2,0.3
								C269.7,191.4,270,191.6,270.2,191.6z"/>
							<path class="st2" d="M279.1,183.5c1.2,0.7,2.4,1.3,3.5,1.6c0.2,0.1,0.4,0.2,0.5,0.4c0.1-0.2,0.4-0.3,0.9,0
								c8.9,4.3,17.6,10.1,26.3,15.5c0.2-0.1,0.4-0.2,0.7-0.2c0.9,0,2.3,0.6,3.3,1.6l0.8,0.8c3.3,3,6.7,6,10,9.1
								c0.9,0.3,1.8,0.8,2.8,1.5c3.5,1.8,7,3.6,10.5,5.6c-0.1-0.3-0.1-0.5,0-0.7c0.4-0.4,1.3-0.1,2.2,0.6c0.4,0.3,0.9,0.6,1.3,1
								c-1.1-1.1-2.3-2.1-3.4-3.2c-0.2-0.1-0.3-0.3-0.4-0.4c-1.3-1.1-2.7-2.1-4.1-3.1c-12.3-9-24.9-16.2-37.5-23.1
								c-0.2-0.1-0.5-0.3-0.6-0.5c0-0.2,0.1-0.3,0.3-0.2c8.7,3.4,16.9,5.4,26,10.3c10.8,5.8,21.3,11.7,31.8,18.2
								c10.2,7.9,20.4,14.3,31.4,21.6c14.8,9.9,28.3,20.1,42.1,30.7c5.4,3.7,8.8,9.1,7.6,12c-0.8,1.8-3,2.3-5.9,1.6
								c0.4,0.3,0.8,0.7,1.2,1l1.8,1.8c1.7,1.8,2.8,3.6,3.2,5.2l0.6,2.1c0.3,3.4,2.1,7.4,2,10.6l-0.9,0.5l0.2,0.5
								c0.7,1.5,1,2.8,0.6,3.8l-0.8,0.8c-1.1,0.9-2.4,1.4-4.1,1.6c-0.3,0.4-0.7,0.7-1.2,0.9c0.1,1.6-0.3,2.9-1.8,3.5
								c0.3,0.7-0.1,1-0.9,0.8c-0.3-0.1-0.5-0.2-0.8-0.4c0,0,0,0,0,0c0.1,0.5,0.1,0.6,0.3,1.1c0.4,0.5,0.7,0.7,0.7,0.7
								c1.2,1.2,1.2,1.2,2.2,2.2c0.7,1.1,0.9,2,0.9,2c-0.2,2.5-0.2,2.5-1,3.1c-0.1,0-0.2,0-0.4,0c0.7,0.9,0.7,1,0.9,1.2
								c0.1,0.3,0.2,0.6,0.2,0.6c-0.3,0.4-0.3,0.4-0.2,0.7c-0.1,0.2-0.2,0.3-0.2,0.3c-0.8,0.1-0.8,0.1-0.9,0.2c-0.2,0-0.4,0-0.4,0
								c-0.7-0.3-0.9-0.4-1-0.5c-0.4-1.9-0.4-1.9-0.4-1.9c-0.5,0.1-0.5,0.1-0.5,0.1c0.1-0.7,0.1-0.7,0.1-0.7
								c-0.2,0.5-0.2,0.5-0.2,0.5c-0.4-0.7-0.4-0.7-0.4-0.7c0.4,0.9,0.4,0.9,0.4,0.9c-1.3-1.3-1.3-1.3-1.9-1.7
								c-0.6-0.5-1.1-0.8-1.2-0.8c-0.1,0.2-0.1,0.3-0.1,0.3c-1.4-1.4-1.4-1.4-2.8-2.7c-0.1-0.2-0.1-0.4-0.1-0.5
								c-0.2,0-0.6-0.2-0.8-0.4c-0.2-0.2-0.5-0.5-0.7-0.7c-0.1,0-0.1,0-0.2-0.1c0,0,0,0,0,0c-0.3-0.1-0.6-0.2-0.8-0.3
								c-0.2-0.1-0.2-0.1-0.2-0.1c0,0,0,0,0,0c-0.6-0.2-1.4-0.5-3.5-1.4c-0.4-0.4-0.8-0.8-1.1-1.2c0.1,0.2,0.2,0.3,0.2,0.5
								c0.1,0.3-0.4,0.5-0.3,0.7c2.7,3.3,6,6.4,9.2,9.6c0.7,0.4,1.1,1.1,0.9,1.5c-0.2,0.4-0.8,0.3-1.5-0.2
								c-8.7-3.5-17.2-10.6-23.3-17.9c-1.8-1.7-3.6-3.4-5.4-5c0,0.1,0.1,0.3,0.1,0.4c-0.4-0.5-0.9-1-1.3-1.5c0,0-0.1-0.1-0.2-0.1
								c0.2,0.5,0.4,1,0.6,1.6c0.2,0.3,0.4,0.5,0.6,0.8c4.3,3.8,7.6,8,11.4,12.1c2.1,2.2,3.6,4.4,5.4,6.6c0.5,0.5,0.7,1,0.5,1.3
								c-0.3,0.2-0.9,0-1.5-0.5c-7.7-5.3-15.8-12.2-19.9-19.1c-1.3-1.1-2.5-2.3-3.2-3.5c0,0,0,0-0.1-0.1c0.1,0.4,0.3,0.8,0.4,1.2
								c-0.9-0.9-1.1-1.8-1.8-2.7c-0.1,0.3-0.2,0.7-0.3,1c-4.6-4.3-10.1-8.3-13.9-13c-0.2-0.2-0.3-0.3-0.5-0.5c-2.4-1-4.8-2-7.2-3.8
								c0.7,0.7,1.4,1.4,2.2,2.1c-2-1-3.8-2.1-5.6-3.5c-4.9-3.9-9.5-9.4-10.5-13.4c-9.8-7.2-19.5-14.5-29.4-21.4
								c-0.5-0.3-0.8-0.9-0.7-1.2c0.1-0.3,0.6-0.2,1.1,0.1c7.5,4.5,14.7,9.5,22,14.6c-5.5-4.9-11.1-9.8-17-14.6
								c-0.8-0.6-1.6-1.1-2.4-1.7c-0.8-0.6-1.5-1.2-2.2-1.9c-7.6-5.9-14.7-11.7-23-17.2c-7-4.7-13.2-8.7-20.4-13.1
								c-10.1-6.2-19.3-11.8-28.5-18.9c-1.3-0.9-2.1-2.2-1.8-2.9c0.3-0.7,1.6-0.5,2.9,0.3c20.5,13.1,41,25.5,60.8,41.3
								c2.1,1.7,4.2,3.4,6.3,5.1c0-0.1,0.1-0.2,0.1-0.3c0.2-0.3,0.7-0.5,1.2-0.4c-2.3-1.9-4.7-3.9-6.9-6
								c-7.3-4.6-14.5-9.2-21.5-15.1c-4.7-4.1-8.7-8.2-12.7-12.4c-6.1-4.1-12.2-8.2-18.3-12.4c-0.3-0.1-0.5-0.4-0.5-0.6
								c0-0.2,0.2-0.2,0.5-0.1c4.6,2.4,9.1,5.1,13.7,7.8c-0.4-0.9-0.4-1.6,0.1-2.1c0.5-0.5,1.3-0.6,2.4-0.3
								c-0.9-0.7-1.9-1.5-2.8-2.2c-0.6-0.5-0.9-1-0.6-1.3c0.2-0.3,0.9-0.1,1.4,0.3c3.8,3,7.6,6,11.4,9.1c4.8,3.3,9.6,6.6,14.4,10
								c-0.4-0.9-0.5-1.7-0.3-2.3c0,0,0,0,0,0c-0.7-0.5-1.4-1.1-2.2-1.6c-14.2-8.6-28.2-18.2-41.4-28.9c-0.3-0.2-0.4-0.5-0.3-0.6
								c0.1-0.1,0.4-0.1,0.6,0.1c4,3.2,8,6.4,12.2,9.4c0,0,0,0,0,0c-0.1-0.2,0-0.4,0.2-0.3c0.2,0,0.5,0.3,0.6,0.5
								c0.1,0.2,0,0.4-0.2,0.3c7.7,5.6,15.5,10.9,23.5,15.9c-6.9-5.2-13.8-10.4-20.5-16c-0.9-0.4-1.7-0.8-2.6-1.3
								c-0.2-0.1-0.4-0.4-0.4-0.6c0-0.1,0.3-0.2,0.5,0c0.2,0.1,0.5,0.2,0.7,0.4c-1.3-1.1-1.9-2.3-1.3-3c0.6-0.6,2.1-0.2,3.4,0.8
								c3.7,2.7,7.3,5.4,10.9,8.2c0.4,0.3,0.8,0.5,1.3,0.8c0.5,0.2,0.9,0.4,1.4,0.6c-5.4-4.6-10.7-9.2-16-13.9
								c-0.5-0.4-0.7-0.9-0.6-1.1c0.2-0.2,0.7-0.1,1.2,0.2c10.5,6.7,20.8,13.7,31.1,21c4,1.6,8.1,3.1,12.1,4.7
								c-0.4-0.3-0.8-0.7-1.2-1c-10.8-8.4-22.1-12.7-33-20.3c-0.3-0.2-0.4-0.4-0.4-0.6c0.1-0.1,0.3-0.1,0.6,0.1
								c5.4,3.6,10.8,6.2,16.4,9.5c4.6,2.7,9,5.3,13.5,7.6c-8.2-5.9-16.7-10.6-25-16.2c-0.4-0.2-0.7-0.5-0.8-0.8
								c-0.1,0-0.2,0.1-0.3,0c-1.2-0.5-2.5-1.1-3.7-1.7c-0.3-0.1-0.5-0.4-0.5-0.6C278.6,183.4,278.8,183.4,279.1,183.5z
								 M407.1,304.6c0,0.1,0.1,0.2,0.1,0.3c-0.2-0.2-0.3-0.5-0.5-0.8c0,0,0,0-0.3-1.7C406.4,302.4,406.8,303.5,407.1,304.6z
								 M422,310.6C421.9,310.6,421.9,310.6,422,310.6c0.1,0.5,0.1,0.9,0.1,0.9C422,311.2,422,310.9,422,310.6z M337.9,258.2
								c4.2,3.3,8.1,6.7,11.8,10.5c-1-0.7-2.1-1.5-3.1-2.2C343.6,263.8,340.8,261,337.9,258.2z M412.6,314.4
								c-0.7-1.3-1.1-2.6-1.5-3.8c-0.8-0.5-1.6-1-2.3-1.6c-2-1.7-3.9-3.4-5.8-5.1c0,0.5-0.4,0.1-0.7,0c-0.3-0.2-0.5-0.3-0.8-0.5
								c1.9,1.9,3.8,3.8,5.8,5.7C409,310.8,411,312.6,412.6,314.4z M428.3,324.6c0,0.1,0.1,0.2,0.1,0.3c0,0,0,0-0.8,0.2
								C427.6,325,427.9,324.9,428.3,324.6z M429.5,324.3c-0.1-0.1-0.2-0.2-0.2-0.3C429.5,323.9,429.6,324,429.5,324.3z
								 M427.2,321.5c0.1,0.3,0.1,0.4,0.2,0.6C427.2,321.5,427.2,321.5,427.2,321.5z M436.4,305.7l-3,1.6l3-1.4L436.4,305.7z"/>
						</g>
					</g>
				</g>
			</g>
		</g>
		<g>
			<g>
				<g>
					<g>
						<path class="st2" d="M462.8,322.3c-0.1,0.2-0.2,0.3-0.3,0.5c-0.2-0.3-0.2-0.7-0.1-1.2c-2.5,4.9-1,11.2,1.5,15.4
							c-0.1,1.5,0.7,2.8,1.7,2.9c1,0.1,1.9-1,2-2.5c0.1-0.3,0.2-0.7,0.4-1c1.6-2.1,2.7-4.8,3.5-7.6c-0.3,0.6-0.6,1.1-0.9,1.7
							c0.2-0.8,0.5-1.7,0.5-2.6c-0.2,0.1-0.4,0.2-0.6,0.3c1.4-2.9,0.9-6.8-1.1-8.8c-2-2-4.7-1.3-6,1.6L462.8,322.3z"/>
						<path class="st2" d="M456.8,327.6c0.7-1.7,1.4-3.4,2.1-5l0.4-0.3l-1.6,0.1l0.1,0c1.3,1.5,1.9,4.1,2.2,6.4l0.2,0.8
							c0.2,0.4,0.5,0.7,0.8,0.8c0.8,0.2,1.5-0.5,1.6-1.6l0.1-1.3c0.9-3.1,0.9-7.9-1.7-9.6c-0.6-0.4-1.4,0-2.1,0c-1-0.1-2,1-2,2.6
							c-0.1,1.5,0.7,2.9,1.8,3c-0.1,0.3-0.1,0.5-0.2,0.8c-0.1-0.2-0.2-0.4-0.4-0.6c0.9,0.4,1.1,1.8,1.6,2.9l0.3,1.6l2.4-0.9
							l-0.3-0.8c-0.1,0.1-0.3,0.2-0.3,0.2c-0.7-1.5-1.3-3-1.8-4.7l-0.9-2.1c-0.5-0.6-1.2-0.5-1.6,0.1l-0.5,0.9
							c0.1-0.1,0.2-0.3,0.3-0.4c-0.6,2.2-0.9,4.5-1.5,6.6c-0.1,0.3,0,0.8,0.2,0.9C456.4,328.1,456.7,328,456.8,327.6z"/>
						<g>
							<path class="st2" d="M456.5,319.9c0.2-0.4,0.4-0.7,0.3-1.2c-0.1-0.1-0.2-0.2-0.2-0.2c-0.1,0.2-0.3,0.4-0.4,0.7
								C455.9,319.7,456.1,320,456.5,319.9z"/>
							<path class="st2" d="M456.6,318.5c0.1-0.2,0.2-0.3,0.2-0.3C456.7,318.3,456.6,318.4,456.6,318.5
								C456.6,318.5,456.6,318.5,456.6,318.5C456.6,318.5,456.6,318.5,456.6,318.5z"/>
							<path class="st2" d="M461.1,413.7c-0.5,6.7-0.9,13.5-1.1,20.3c0,0.2,0.1,0.4,0.3,0.4c0.1,0,0.3-0.2,0.3-0.4
								c0.3-6.8,0.6-13.5,1.1-20.2c0-0.2-0.1-0.4-0.2-0.4C461.3,413.3,461.1,413.4,461.1,413.7z"/>
							<path class="st2" d="M446,464.1c-0.1-0.2-0.3-0.2-0.4,0c-0.1,0.1-0.1,0.4,0,0.6c0.1,0.1,0.3,0.1,0.4,0
								C446.1,464.5,446.1,464.3,446,464.1z"/>
							<path class="st2" d="M434.1,462.7c-0.2-0.9-0.5-1.8-0.9-2.6c-0.1-0.1,0-0.3,0-0.4c-0.2,0.1-0.5-0.1-0.6-0.5
								c-2-6.7-2.8-13.9-3.9-21.1c-0.2,0-0.4-0.1-0.6-0.3c-0.6-0.5-0.9-1.5-0.8-2.5l0.2-0.8c0.4-3.1,0.6-6.2,1-9.3
								c-0.3-0.6-0.5-1.4-0.5-2.2c-0.8-2.7-1.5-5.4-2-8.1c-0.2,0.2-0.4,0.3-0.6,0.3c-0.5-0.1-0.9-0.7-0.9-1.4c0-0.4,0-0.8,0-1.1
								c-0.1,1.1-0.3,2.2-0.4,3.2c0,0.2,0,0.3-0.1,0.4c0,1.2,0,2.4,0,3.6c0.5,10.6,2.5,20.6,4.8,30.4c0.1,0.2,0.1,0.4-0.1,0.6
								c-0.1,0.1-0.3,0.1-0.4-0.1c-2.6-6.2-6.1-11.6-7.8-18.7c-2.1-8.4-3.8-16.7-5.1-25.3c0-9-1.3-17.3-2.2-26.5
								c-1.3-12.4-1.5-24.1-1.6-36.2c-0.4-4.5,1.8-8.7,4.9-9.3c1.9-0.3,3.7,0.7,4.9,2.6c0-0.4,0-0.7,0-1.1l0.4-1.8
								c0.4-1.7,1.1-3.1,2.2-4l1.3-1.2c2.5-1.6,4.5-4.3,7.1-5.6l1,0.3l0.3-0.3c0.7-1,1.6-1.7,2.6-2l1.2,0.1c1.4,0.2,2.6,0.7,3.8,1.6
								c0.5,0,1,0.1,1.5,0.3c1.2-0.7,2.5-1.1,3.9-0.5c0.3-0.4,0.9-0.4,1.2,0.2c0.1,0.2,0.2,0.4,0.2,0.6c0,0,0,0,0,0
								c0.3-0.2,0.4-0.3,0.7-0.6c0.1-0.4,0.2-0.7,0.2-0.7c0.2-1.1,0.2-1.1,0.4-2.1c0.4-0.8,1-1.4,1-1.4c2.1-0.9,2.1-0.9,3-0.8
								c0.1,0.1,0.2,0.1,0.3,0.2c0.3-0.8,0.3-0.8,0.4-1c0.2-0.2,0.4-0.4,0.4-0.4c0.5,0,0.5,0,0.7-0.2c0.2,0,0.4,0,0.4,0
								c0.5,0.4,0.5,0.4,0.7,0.4c0.1,0.1,0.3,0.2,0.3,0.2c0.2,0.5,0.2,0.7,0.3,0.8c-1.3,1.1-1.3,1.1-1.3,1.1
								c0.4,0.2,0.4,0.2,0.4,0.2c-0.6,0.2-0.6,0.2-0.6,0.2c0.5-0.1,0.5-0.1,0.5-0.1c-0.3,0.5-0.3,0.5-0.3,0.5
								c0.5-0.6,0.5-0.6,0.5-0.6c-0.2,1.3-0.2,1.3-0.2,1.8c-0.1,0.5,0.1,1,0.1,1c0.2,0,0.3,0,0.3,0c-0.2,1.3-0.2,1.3-0.4,2.7
								c-0.1,0.1-0.2,0.2-0.4,0.3c0.1,0.1,0.2,0.4,0.2,0.6c0,0.2-0.1,0.5-0.1,0.7c0,0.1,0.1,0.1,0.1,0.1c0,0,0,0,0,0
								c0.1,0.2,0.2,0.4,0.2,0.6c0.1,0.1,0.1,0.1,0.1,0.1c0,0,0,0,0,0c0.2,0.4,0.4,1,1.1,2.5c-0.1,0.4-0.2,0.8-0.3,1.1
								c0.1-0.1,0.2-0.2,0.2-0.3c0.2-0.2,0.6,0,0.7-0.1c1-2.9,1.4-6,1.9-9.1c-0.1-0.6,0.2-1.1,0.6-1.2c0.4-0.1,0.7,0.3,0.8,0.9
								c2.5,6.3,2.2,14,0.2,20.4c-0.2,1.7-0.5,3.4-0.7,5.1c0.1-0.1,0.2-0.2,0.2-0.2c-0.1,0.4-0.2,0.9-0.4,1.3c0,0,0,0.1,0,0.1
								c0.3-0.3,0.6-0.7,0.9-1c0.1-0.2,0.2-0.5,0.2-0.7c0.4-4,1.7-7.6,2.5-11.4c0.5-2.1,1.3-3.8,1.9-5.8c0-0.5,0.4-0.8,0.7-0.8
								c0.3,0.1,0.6,0.5,0.5,1c0.6,6.5,0,13.9-2.9,19.1c0,1.2-0.3,2.3-0.8,3.3c0,0,0,0,0,0.1c0.2-0.2,0.5-0.5,0.7-0.7
								c-0.2,0.9-0.8,1.4-1,2.2c0.3-0.1,0.6-0.2,1-0.3c-0.6,4.4-0.3,9.1-1.7,13.1c0,0.2-0.1,0.3-0.1,0.5c0.7,1.7,1.3,3.5,1.4,5.6
								c0.1-0.7,0.2-1.4,0.3-2.1c0.4,1.5,0.7,3,0.7,4.6c-0.1,4.3-1.6,9.2-4.1,11.5c0.3,8.4,0.6,16.9,1.2,25.3c0,0.4-0.2,0.8-0.5,0.9
								c-0.3,0-0.6-0.2-0.6-0.7c-1-6-1.5-12.2-2-18.3c-0.5,5.1-1,10.3-1.1,15.5c0,0.7,0.1,1.3,0.1,2c0,0.7,0,1.3-0.2,2
								c0,6.7-0.2,13.1,0.5,19.9c0.6,5.8,1.3,11,2.2,16.8c1.3,8.2,2.6,15.6,2.6,23.7c0.1,1.1-0.4,2.1-1.2,2.2
								c-0.7,0.1-1.4-0.6-1.5-1.7c-2.3-16.8-5.1-33.4-4.7-51c0-1.9,0.1-3.8,0.1-5.6c-0.1,0-0.2,0-0.3,0c-0.4,0-0.8-0.2-1.1-0.5
								c-0.1,2.1-0.3,4.2-0.5,6.4c0.8,5.9,1.7,11.9,1.3,18.2c-0.3,4.3-1.2,8.3-2,12.3c0.5,5.1,1,10.2,1.4,15.3
								c0.1,0.2,0,0.4-0.2,0.5c-0.1,0.1-0.3,0-0.3-0.2c-0.9-3.5-1.6-7.2-2.2-10.8c-0.5,0.6-1.1,0.9-1.7,0.9c-0.7,0-1.3-0.5-1.7-1.2
								c0,0.8,0,1.7,0,2.5c0,0.5-0.3,0.9-0.6,0.9c-0.4,0-0.6-0.4-0.6-0.9c0-3.4,0.1-6.8,0.1-10.1c-0.4-4.1-0.7-8.1-1-12.2
								c-0.4,0.6-1,1-1.6,1.2c0,0,0,0,0,0c0,0.6,0,1.3,0.1,1.9c1.9,11.5,2.9,23.2,2.6,35.1c0,0.2-0.1,0.4-0.3,0.4
								c-0.2,0-0.3-0.2-0.3-0.4c0.1-3.6,0.1-7.1,0-10.7c0,0,0,0,0,0c-0.1,0.1-0.3,0.2-0.4,0c-0.1-0.1-0.1-0.4,0-0.6
								c0.1-0.2,0.3-0.1,0.4,0c-0.3-6.6-0.9-13.2-1.9-19.7c0.2,6,0.3,12.1,0,18.1c0.2,0.7,0.4,1.3,0.6,2c0,0.2-0.1,0.4-0.2,0.5
								c-0.1,0.1-0.3-0.1-0.3-0.3c0-0.2-0.1-0.4-0.1-0.6c-0.1,1.1-0.7,2-1.5,2c-0.8-0.1-1.5-1-1.4-2.2c-0.2-3.2-0.2-6.3-0.3-9.5
								c0-0.3-0.1-0.7-0.1-1c-0.1-0.3-0.3-0.7-0.4-1c-0.3,4.9-0.7,9.8-1.1,14.7c0,0.4-0.2,0.8-0.5,0.8c-0.3,0-0.5-0.3-0.5-0.7
								c-1.2-8.6-1.9-17.3-2.5-26c-1.2-2.9-2.5-5.7-3.7-8.7c0,0.4,0,0.7,0,1.1c0,9.5,3.5,17.6,4.3,26.7c0,0.2-0.1,0.4-0.2,0.5
								c-0.1,0-0.3-0.1-0.3-0.4c-0.5-4.5-1.7-8.6-2.5-13c-0.7-3.7-1.4-7.2-2.3-10.6c0.3,7,1.9,13.7,2.6,20.7c0.1,0.3,0,0.6-0.2,0.8
								c0.1,0,0.2,0.1,0.2,0.2c0.4,0.9,0.7,1.8,0.9,2.8c0.1,0.2,0,0.4-0.2,0.5C434.4,463,434.2,462.9,434.1,462.7z M451.1,340.8
								c0.1-0.1,0.1-0.1,0.2-0.2c-0.1,0.2-0.2,0.4-0.3,0.6c0,0,0,0-1.2,0.9C449.8,342.1,450.5,341.4,451.1,340.8z M446.8,330.1
								C446.8,330.1,446.8,330.1,446.8,330.1c0.4-0.3,0.7-0.5,0.7-0.5C447.2,329.8,447,329.9,446.8,330.1z M457,398.6
								c0-3.7,0.3-7.3,1-11c0.1,0.9,0.1,1.8,0.2,2.7C457.9,393,457.5,395.8,457,398.6z M455.6,333.6c-0.6,1-1.4,1.7-2.1,2.4
								c0.1,0.6,0.2,1.3,0.2,2c-0.1,1.8-0.2,3.6-0.5,5.3c0.4-0.2,0.4,0.2,0.4,0.4c0,0.2,0.1,0.4,0.1,0.7c0.3-1.9,0.6-3.7,1-5.6
								C454.9,337.1,455.1,335.2,455.6,333.6z M454,320.6c0.1-0.1,0.1-0.1,0.2-0.2c0,0,0,0,0.6,0.3
								C454.7,320.8,454.4,320.7,454,320.6z M452.9,320.1c0,0.1-0.1,0.2-0.1,0.3C452.6,320.3,452.7,320.2,452.9,320.1z M452.2,322.5
								c0.2-0.1,0.3-0.2,0.3-0.3C452.2,322.5,452.2,322.5,452.2,322.5z M434,324.3l3.1,1l-3-1L434,324.3z"/>
						</g>
					</g>
				</g>
			</g>
		</g>
	</g>
	<g>
		<g>
			<g>
				<g>
					<path class="st6" d="M427.7,141.2c13.2-2.3,26.9-2.3,39.9,0c6.5,1.1,12.9,2.7,19,4.7c6.1,2.1,12,4.4,17.4,7.2
						c-8.8-4.4-18.1-7.8-27.7-10c7.2,1.7,13.6,4,19.8,6.9c6.2,2.9,12.1,6.4,18.1,10.8c-1.1-0.4-2.4-1-3.8-1.7
						c-1.4-0.7-2.9-1.5-4.3-2.3c-1.4-0.8-2.9-1.4-4.1-1.8c-1.2-0.4-2.2-0.7-2.9-0.6c-15.8-7.6-33.2-12.1-50.8-13.2
						c-17.6-1.1-35.5,1.3-52.1,7.4c5.8-4.3,11.5-5.8,16.7-6.3C418.2,141.6,422.9,142,427.7,141.2z"/>
					<path class="st6" d="M542.1,188.3c-1.2-1.3-2.3-2.6-3.4-3.9c-1.1-1.3-2.3-2.5-3.5-3.7C537.8,183.1,540.2,185.7,542.1,188.3z"/>
					<path class="st6" d="M344.3,314.1c1.7,3.2,3.6,6.3,5.4,9.3c-1.1-1.4-2-3-2.9-4.5C345.8,317.3,345.1,315.7,344.3,314.1z"/>
					<path class="st6" d="M387.7,163.6c-1.6,1.2-3.2,2.5-4.8,3.7c-13.1,7.8-24.9,18.2-34.5,31c5.1-7,10.8-13.9,17.4-20
						C372.3,172.2,379.8,167.1,387.7,163.6z"/>
					<path class="st6" d="M403.9,159.6c7.1-2.8,14.5-4.8,22-5.7c7.5-1,15-0.9,22,0C433.8,152.3,418.4,154.2,403.9,159.6z"/>
					<path class="st6" d="M432.4,359.1c0-0.3,0.3-0.5,0.6-0.6c0.4,0,0.7-0.1,1-0.3c4.9,1,9.8,1.7,14.8,1.9c-1.2,0.2-2.4,0.8-3.7,0.8
						c-1.4-0.1-2.5-0.4-3.5-0.6c-1-0.2-1.8-0.4-2.7-0.7c-0.9-0.2-1.7-0.4-2.8-0.5C435.2,359.2,434,359.1,432.4,359.1z"/>
					<path class="st6" d="M342.5,310.5c-0.1-0.1-0.2-0.2-0.3-0.3c-0.6-1.1-1.1-2.2-1.6-3.3c0-0.1,0-0.3-0.1-0.5
						C341.2,307.7,341.9,309.1,342.5,310.5z"/>
					<path class="st6" d="M426.2,357.9c0-0.6,0-1.2-0.3-1.7c1.3,0.5,2.7,0.7,4,1.1c1.3,0.4,2.7,0.6,4.1,0.9c-0.3,0.1-0.7,0.2-1,0.3
						c-0.5,0-1,0-1.6,0c-0.6-0.1-1.2-0.2-1.8-0.3C428.5,357.9,427.3,357.8,426.2,357.9z"/>
					<path class="st6" d="M376.2,322.1c-1.1-1.3-2.9-1.9-3.7-2.3c-2-4.1-3.8-8.3-5.7-13.1c-0.6-0.6-1.4-2.1-2.6-3.3
						c0-1.1,0-2.2-0.1-3.3c4.2,10.6,10.5,20.7,18.9,29.6c-1.2-1.1-2.3-2.3-3.5-3.5C378.3,324.8,377.2,323.5,376.2,322.1z"/>
					<path class="st6" d="M528.9,202.4c3,3.4,5.5,7.5,7.9,11.6c2.3,4.2,4.2,8.7,5.9,13.2c3.3,9.1,5.7,18.4,8.2,27.1
						c-0.1-5.3-0.7-11-1.9-16.7c-1.2-5.7-2.8-11.2-4.5-16.2c-3.4-10-7.1-17.6-6-20.4c0.6-1.4,2-0.5,3.9,1.8c1,1.2,2,2.8,3.1,4.7
						c0.6,0.9,1.1,2,1.6,3.1c0.5,1.1,1.2,2.2,1.7,3.4c2.2,4.8,4.1,10.4,5.6,15.8c1.5,5.5,2.5,10.8,3.5,15.2c0-2.4,0-2.4,0.1-4.8
						c0,1.2,0,2.4,0.1,3.6c0.1,0.6,0.1,1.1,0.3,1.7c0.1,0.5,0.3,1.1,0.5,1.5c0.1-1.2,0.1-2.7,0-4.3c-0.1-1.6-0.1-3.3-0.3-4.9
						c-0.1-1.6-0.2-3.2-0.3-4.6c-0.1-1.4,0-2.5,0.2-3.3c0.8,1.3,1.6,2.5,2.4,3.8c0.1-6.5-1.9-15.6-5.2-24.4
						c-3.3-8.8-7.7-17.2-10.5-23.5c7.8,14.5,14.6,30.8,18.1,48.5c1.8,8.8,2.8,18,2.9,27.3c0.1,9.3-0.8,18.8-2.6,28.1
						c-1.8,9.4-4.8,18.6-8.7,27.5c-3.9,8.9-9,17.3-14.9,25.1c-5.9,7.8-12.8,14.7-20.3,20.8c-7.5,6-15.7,11.2-24.3,15.1
						c-9.5,4.7-19.4,8.3-29.4,10.7c-1.3,0.3-2.5,0.6-3.8,0.9c-1.3,0.2-2.5,0.5-3.8,0.7l-1.9,0.4l-1.9,0.3c-1.3,0.2-2.6,0.4-3.8,0.6
						c-5.1,0.6-10.2,1-15.3,1c-5.1,0.1-10.2-0.2-15.3-0.6c-5.1-0.5-10.1-1.2-15.1-2.3c-9.9-2.1-19.7-5.1-28.9-9.3
						c-0.8-0.4-1.8-1-2.9-1.6c-1.1-0.6-2.3-1.3-3.5-2.2c-1.2-0.8-2.6-1.7-3.9-2.7c-1.3-1-2.7-2.1-4.1-3.2
						c-5.5-4.5-11.1-10.1-15.3-15c-8-8.3-15-17.6-20.8-27.6c-1.4-2.6-2.9-5.1-4.1-7.7l-1.9-3.9l-1.8-4l-0.9-2l-0.8-2l-1.6-4.1
						l-1.4-4.1l-0.7-2.1l-0.6-2.1l-1.1-4.5l-0.9-4.6c-0.3-1.5-0.5-3.1-0.8-4.6c-0.2-1.5-0.5-3.1-0.6-4.6c-0.6-6.2-0.8-12.4-0.5-18.6
						c0.7-12.4,3-24.7,7.2-36.6c8.3-23.7,23.4-45.3,43.8-62.3c2-1.7,4.5-3.2,6.7-4.3c2.3-1,4.3-1.6,5.3-1.5c1.1,0.1,1.2,0.9-0.1,2.6
						c-0.7,0.9-1.7,1.9-3.2,3.3c-0.7,0.7-1.5,1.5-2.5,2.4c-0.9,0.9-2,1.8-3.1,2.9c-7.4,7.2-14.1,15.1-20,23.6
						c-5.9,8.5-10.8,17.6-14.9,27.1c-0.1-0.7,0.1-1.8,0.5-3c0.2-0.6,0.5-1.3,0.7-2.1c0.3-0.7,0.6-1.5,1-2.2c0.7-1.5,1.4-3.1,2.1-4.6
						c0.7-1.5,1.3-2.8,1.6-4c-4.3,6.4-7.6,12.7-10.3,19.2c-2.7,6.5-4.7,13.3-6.2,20.7c1.9-10,5-19.7,9.1-29.1
						c-5.2,11.6-9,24.6-10.7,38.2c-1.7,13.6-1.1,27.7,1.8,41.2c1.1,4.9,0.9,9.9,1.8,15.2c0.2,1.3,0.5,2.7,0.8,4.1
						c0.4,1.4,0.8,2.8,1.4,4.2c0.5,1.4,1.3,2.9,2.1,4.3c0.9,1.4,1.8,2.9,3,4.4c-3.5-8.4-6.1-17.2-7.8-26.2c-1.7-9-2.4-18.1-2.3-27.3
						c0.3-18.2,4.2-36.4,11.3-53.1c0,0.1,0,0.2,0,0.2c3.1-7.5,6.7-14.4,11-20.7c4.2-6.4,9-12.3,14.4-18c-0.8,0.9-1.6,1.8-2.4,2.8
						c-0.8,0.9-1.5,1.9-2.3,2.8c-1.5,1.8-2.9,3.7-4.3,5.3l2.8-3.2c1-1,2-2.1,2.9-3.1c1.9-2.1,4-4,6-5.9c4.2-3.8,8.4-7.4,12.9-10.6
						c4.5-3.3,9.2-6.2,14-9c2.5-1.3,4.9-2.7,7.4-3.8c1.3-0.6,2.5-1.2,3.8-1.8l3.8-1.6c-7,3.6-13.7,7.7-20,12.4
						c-6.4,4.7-12.4,9.9-17.9,15.6c-11.1,11.4-20.4,24.9-26.8,39.7c-6.4,14.8-10,30.8-10.2,46.8c-0.3,16,2.7,31.8,8.7,46
						c-1.9-8.5-4.7-18-6.2-27.6c-1.5-9.6-1.6-19.2,0.7-26.4c-0.6,6.9-0.6,13.8-0.1,20.7c0.6,6.9,1.7,13.8,3.4,20.6
						c3.4,13.5,9.1,26.7,17,38.6c-0.7-0.8-1.4-1.6-2-2.4c-0.7-0.8-1.3-1.6-2-2.4c3.9,8.1,9.7,15.5,16.3,22
						c6.6,6.6,14,12.1,21.5,17.1c1.3,0.9,2.6,1.8,4,2.6c-1.4-0.8-2.7-1.8-4-2.6c-13.6-9.3-25-21.1-33.7-34.3
						c4.7,5.6,9.5,11.5,15.9,18.1c-1.5-2.1-3.2-4.5-5.2-7.1c-1.9-2.7-4.1-5.5-6-8.5c-5.5-7.4-10.2-15.4-13.8-23.9
						c5.9,12.9,14.5,24.2,24.1,32.3c-6.1-7.2-11.6-15-16-23.4c-4.4-8.4-8-17.2-10.2-26.3c1.5,4.9,3.2,9.7,5.4,14.4
						c1,2.3,2.2,4.6,3.4,6.9c0.6,1.1,1.3,2.2,1.9,3.3c0.6,1.1,1.2,2.2,2,3.3c8.3,14.9,20.1,28.2,34.7,38.1c-0.6-0.3-1.2-0.7-1.7-1.1
						c1.1,0.8,2.3,1.5,3.4,2.1c5.7,3.8,11.9,7.1,18.3,9.8c5.8,2.3,11.9,3.5,18,4.1c1,0.2,2,0.4,3,0.6c-2,0-3,0.4,0.6,1.4
						c7.8,2.3,16.3,2.8,24.9,2.4c2.2,0,4.3-0.3,6.5-0.4c2.2-0.2,4.4-0.5,6.6-0.7c4.4-0.6,9-1.2,13.6-1.9c4.9-0.7,11.1-3,17.4-6.2
						c1.9-0.4,2.7-1.1,3.4-1.8c1.3-0.8,2.7-1.5,4-2.3c1.6-0.9,3.3-1.8,4.9-2.8c1.6-1,3.1-2.1,4.5-3.2c-1.5,1-3.1,2-4.6,3.1
						c-1.6,1-3.2,2-4.8,3c-1.2,0.7-2.5,1.3-3.7,2c0.7-0.8,1.4-1.7,3.2-2.6c-11.5,5.8-24,9.8-37.1,11.5c-13,1.7-26.4,1.3-39.5-1.2
						c1.6-0.1,3.9-0.1,4.9-0.2l-3.9-0.1c-1.3,0-2.6-0.2-3.9-0.3c-8.4-1.8-16.6-4.5-24.5-8c1.2,0.5,2.4,0.8,3.6,1.1
						c1.2,0.3,2.3,0.5,3.3,0.6c-11.2-4.8-21.7-11.1-31-19.1c-4.7-3.9-9.1-8.2-13.1-12.9c-4-4.7-7.7-9.5-11-14.8
						c-11.3-20.2-16-43.4-14-65.7c-2.2,12-1.8,25.1,1.4,37.9c-2.5-8.4-4-17.1-4.5-25.8c-0.5-8.8,0.1-17.6,1.7-26.2
						c0.3-2.2,0.9-4.3,1.4-6.4c0.5-2.1,1.2-4.2,1.8-6.3c1.4-4.2,2.9-8.3,4.8-12.3c3.7-8,8.3-15.5,13.8-22.2
						c-0.6,1.5-1.2,3.2-1.9,4.8c-0.7,1.6-1.2,3.4-1.8,5c-0.6,1.6-0.9,3.3-1.2,4.7c-0.1,0.7-0.3,1.4-0.3,2.1c0,0.7,0,1.3,0,1.8
						c0.3,0.1,0.8-0.5,1.4-1.2c0.6-0.7,1.4-1.6,2-2.4c1.2-1.5,2-2.3,0.8,0.5c-1.1,2.6-1.9,5.1-2.9,7.5c-0.4,1.2-0.8,2.4-1.2,3.6
						c-0.4,1.1-0.8,2.3-1.1,3.4c-1.5,4.4-2.5,8.6-3.3,12.4c-1.5,7.6-1.3,13.9,1.5,18.4c0.4,0.4,1.2-0.7,2.2-2.4
						c0.5-0.9,1.1-1.9,1.7-2.9c0.3-0.5,0.6-1.1,0.9-1.6c0.3-0.5,0.7-1,1-1.6c0.7-1,1.3-2,1.9-2.8c0.6-0.8,1.2-1.4,1.7-1.9
						c1-0.8,1.6-0.7,1.5,1c-0.7,5.7-1.7,16-0.4,26.8c0,0.8,0,1.6,0.1,2.4c0.1,0.8,0.1,1.6,0.2,2.4c0.2,1.6,0.4,3.3,0.7,4.9
						c0,0.4,0.5,1.1,1.1,1.8c1.3,5.7,3.2,11.1,5.1,15.8c1.9,4.7,3.9,8.5,5.3,11.3c0.5,1,1.1,2,1.6,3c0.5,1,1.2,2,1.8,3
						c0.4,1.2,0.6,2.3,0.7,3.3c1.3,0.9,2.3,1.9,3.5,2.8c3.7,5,7.9,9.5,12.5,13.4c2.3,2.5,4.7,5.1,7.3,7.3c0.2-0.4,0-1.1,0.7-1.1
						c3.1,2.2,6.5,4,9.9,5.8c3.4,1.6,6.9,3.2,10.6,4.4c0.7,0.4,1.4,0.8,2,1.1c0.7,0.3,1.3,0.7,2,1.1c0.6,0.4,1.3,0.8,1.9,1.2
						c0.6,0.4,1.2,0.8,1.8,1.2c4.5-0.7,11.3,0.1,18.8,0.3c7.5,0.3,15.7-0.2,22.1-1.9l0-0.1c6.5-1.4,13-3.4,19.2-6.3
						c1.2-0.2,2.3-0.3,3.4-0.3c1.3-1.3,2.8-2.2,3.4-2.9c5-2.3,9.2-4.4,13.4-6.7c0.5-0.8,1-2.7,2.3-3.9c0.7-0.5,1.4-1.2,2-1.8
						c0.7-0.6,1.3-1.2,1.9-1.8c1.2-1.2,2.4-2.5,3.5-3.8c0.7-0.7,1.4-1.5,2-2.2l1-1.1l1-1.2c0.7-0.8,1.3-1.6,2-2.3
						c0.6-0.8,1.2-1.6,1.9-2.4c8.4-11,14.4-23.7,17.8-37.2c0.5-0.4,1.1-0.4,1.7-0.4c-0.1-1.1-0.1-2.4,0.1-3.7
						c0.1-0.6,0.2-1.3,0.2-1.9c0-0.6,0-1.2,0-1.6c0.2,0.4,0.4,0.6,0.7,0.6c-0.1-1.6-0.1-2.9,0-4c0-1.1,0.2-2,0.3-3
						c0.1-0.5,0.2-0.9,0.3-1.4c0.1-0.5,0.2-1,0.2-1.5c0.2-1,0.3-2.2,0.4-3.7c-0.1-1.3-0.8-2.5-1-3.8c0-0.6,0-1.3,0-1.9
						c0.4-1.7,0.7-3.4,0.7-5.1c0-1.7-0.1-3.4-0.4-5.1c-0.1-0.8-0.3-1.7-0.5-2.6c-0.2-0.9-0.5-1.7-0.7-2.6c-0.2-0.9-0.5-1.7-0.7-2.6
						c-0.3-0.9-0.6-1.7-0.8-2.6c-1.7-7.3-4.1-14.5-7.4-21.3c-0.7-1.3-1.2-2.5-1.6-3.6c-0.4-1.1-0.8-2-1-3c-0.3-1-0.5-1.9-0.8-2.8
						C529.7,204.4,529.3,203.4,528.9,202.4z"/>
					<path class="st6" d="M450.8,360.2c6.6,0.2,13.2-0.3,19.7-1.4c-0.9,0.2-1.7,0.4-2.6,0.7c-0.8,0.2-1.7,0.4-2.5,0.6
						c-0.8,0.2-1.6,0.4-2.5,0.5c-0.8,0.1-1.6,0.3-2.5,0.4c-0.8,0.1-1.6,0.2-2.4,0.2c-0.8,0-1.6,0-2.4-0.1
						C454,361.1,452.4,360.7,450.8,360.2z"/>
					<path class="st6" d="M358.9,242.4c0.8-1,1.6-2.2,2.4-3.3c0.8-1.2,1.5-2.4,2.3-3.7c-5.7,14.4-7.4,30.5-4.8,46.1l-0.1,0
						c-1.3-6.2-1.5-14.1-0.8-21.2C358.4,253.2,359.5,246.8,358.9,242.4z"/>
					<path class="st6" d="M433.1,358.5c0.3-0.1,0.6-0.2,1-0.3c0,0,0,0,0.1,0C433.8,358.4,433.4,358.5,433.1,358.5z"/>
					<path class="st6" d="M354.1,202.5c0.4-0.5,0.8-1,1.1-1.5l-1.9,3.1c-0.7,1-1.2,2.1-1.8,3.1c-1.2,2.1-2.3,4.3-3.4,6.4
						C349.5,210,351.5,206.2,354.1,202.5z"/>
					<path class="st6" d="M393.4,169.3c1-0.6,2.1-1.2,3.2-1.7c1.1-0.6,2.2-1.1,3.3-1.7c2.2-1,4.4-2.1,6.7-2.9
						c4.5-1.9,9.3-3.3,14-4.5c12.4-2.5,25.1-2.3,36.5,0.4C435.8,156,413.3,159.4,393.4,169.3z"/>
					<path class="st6" d="M373.1,215.6c0.6-0.6,1.1-1.2,1.7-1.8l1.8-1.7c1.2-1.1,2.5-2.1,3.8-3.2c-1.1,1.2-2.2,2.3-3.2,3.6l-1.5,1.9
						c-0.5,0.6-1,1.3-1.4,1.9C374.2,215.7,373.5,215.8,373.1,215.6z"/>
					<path class="st6" d="M338.5,239.6c0.2-1,0.5-1.9,0.7-2.8c-0.4,2.5-0.5,5-0.7,7.5C338.5,243.4,338.5,241.2,338.5,239.6z"/>
					<path class="st6" d="M399.7,194c-1.1,0.5-2,1.2-3,1.8c-1,0.6-2,1.2-3,1.9c0.9-1.1,1.9-2.1,2.8-3.2
						C397.5,194.5,398.6,194.3,399.7,194z"/>
					<path class="st6" d="M433.5,181.4c1.6-0.2,3.2-0.3,4.7-0.4c1.6,0,3.1-0.1,4.6-0.1c-3.7,0.3-7.5,0.7-11.1,1.4
						C432.5,181.9,433.1,181.4,433.5,181.4z"/>
				</g>
			</g>
		</g>
	</g>
</g>
<g>
	<path class="st1" d="M1292.5,428.9c0,1.8-0.5,3.5-1.4,4.9c-0.9,1.5-2.3,2.6-4.1,3.4s-4,1.2-6.5,1.2c-3,0-5.4-0.6-7.4-1.7
		c-1.4-0.8-2.5-1.9-3.4-3.2c-0.9-1.4-1.3-2.7-1.3-3.9c0-0.7,0.3-1.4,0.8-1.9s1.2-0.8,2-0.8c0.6,0,1.2,0.2,1.6,0.6
		c0.4,0.4,0.8,1,1.1,1.8c0.4,1,0.8,1.8,1.2,2.4c0.4,0.6,1.1,1.2,1.9,1.6c0.8,0.4,1.9,0.6,3.2,0.6c1.8,0,3.3-0.4,4.4-1.3
		c1.1-0.8,1.7-1.9,1.7-3.2c0-1-0.3-1.8-0.9-2.4c-0.6-0.6-1.4-1.1-2.4-1.4s-2.3-0.7-3.9-1.1c-2.2-0.5-4-1.1-5.5-1.8
		c-1.5-0.7-2.6-1.6-3.5-2.8c-0.9-1.2-1.3-2.6-1.3-4.4c0-1.7,0.5-3.1,1.4-4.4s2.2-2.3,3.9-3c1.7-0.7,3.7-1,6.1-1
		c1.9,0,3.5,0.2,4.8,0.7c1.4,0.5,2.5,1.1,3.4,1.8c0.9,0.8,1.5,1.6,2,2.4c0.4,0.8,0.6,1.7,0.6,2.5c0,0.7-0.3,1.4-0.8,2
		c-0.5,0.6-1.2,0.9-1.9,0.9c-0.7,0-1.2-0.2-1.6-0.5s-0.8-0.9-1.2-1.7c-0.5-1.1-1.2-2-2-2.7c-0.8-0.6-2-1-3.7-1c-1.6,0-2.9,0.3-3.8,1
		c-1,0.7-1.5,1.5-1.5,2.5c0,0.6,0.2,1.1,0.5,1.6c0.3,0.4,0.8,0.8,1.4,1.1c0.6,0.3,1.2,0.6,1.8,0.7c0.6,0.2,1.6,0.4,2.9,0.8
		c1.7,0.4,3.2,0.8,4.6,1.3c1.4,0.5,2.6,1.1,3.5,1.8c1,0.7,1.7,1.6,2.3,2.6C1292.2,426.1,1292.5,427.4,1292.5,428.9z"/>
	<path class="st1" d="M1317.3,412.8h-6.7v22c0,1.3-0.3,2.2-0.8,2.8c-0.6,0.6-1.3,0.9-2.2,0.9c-0.9,0-1.6-0.3-2.2-0.9
		c-0.6-0.6-0.9-1.6-0.9-2.8v-22h-6.7c-1,0-1.8-0.2-2.3-0.7c-0.5-0.5-0.8-1.1-0.8-1.8c0-0.8,0.3-1.4,0.8-1.9c0.5-0.5,1.3-0.7,2.3-0.7
		h19.5c1.1,0,1.8,0.2,2.4,0.7s0.8,1.1,0.8,1.8c0,0.8-0.3,1.4-0.8,1.8C1319.1,412.6,1318.4,412.8,1317.3,412.8z"/>
	<path class="st1" d="M1324.1,425.5v-14.5c0-1.2,0.3-2.2,0.8-2.8c0.6-0.6,1.3-0.9,2.2-0.9c0.9,0,1.7,0.3,2.3,0.9
		c0.6,0.6,0.8,1.5,0.8,2.8v14.9c0,1.7,0.2,3.1,0.6,4.2c0.4,1.1,1,2,2,2.6c1,0.6,2.3,0.9,4,0.9c2.4,0,4.1-0.6,5.1-1.9
		c1-1.3,1.5-3.2,1.5-5.8v-15c0-1.3,0.3-2.2,0.8-2.8c0.5-0.6,1.3-0.9,2.2-0.9s1.7,0.3,2.2,0.9c0.6,0.6,0.9,1.5,0.9,2.8v14.5
		c0,2.4-0.2,4.3-0.7,5.9c-0.5,1.6-1.3,3-2.6,4.2c-1.1,1-2.4,1.8-3.8,2.2s-3.2,0.7-5.1,0.7c-2.3,0-4.3-0.3-6-0.8
		c-1.7-0.5-3-1.3-4.1-2.3c-1.1-1.1-1.8-2.4-2.3-4S1324.1,427.8,1324.1,425.5z"/>
	<path class="st1" d="M1360,407.8h8c2.1,0,3.9,0.2,5.3,0.6c1.5,0.4,2.8,1.1,4,2.2c3.1,2.7,4.7,6.8,4.7,12.3c0,1.8-0.2,3.5-0.5,5
		c-0.3,1.5-0.8,2.8-1.5,4.1c-0.7,1.2-1.5,2.3-2.5,3.2c-0.8,0.7-1.7,1.3-2.7,1.8c-1,0.4-2,0.8-3.1,0.9c-1.1,0.2-2.4,0.3-3.7,0.3h-8
		c-1.1,0-2-0.2-2.5-0.5c-0.6-0.3-0.9-0.8-1.1-1.4c-0.2-0.6-0.3-1.4-0.3-2.4v-22.2c0-1.3,0.3-2.3,0.9-2.9S1358.6,407.8,1360,407.8z
		 M1362.3,412.6v20.5h4.6c1,0,1.8,0,2.4-0.1s1.2-0.2,1.8-0.4c0.6-0.2,1.2-0.5,1.6-0.9c2-1.7,3.1-4.7,3.1-9c0-3-0.5-5.2-1.4-6.7
		c-0.9-1.5-2-2.4-3.3-2.8c-1.3-0.4-2.9-0.6-4.8-0.6H1362.3z"/>
	<path class="st1" d="M1387.7,434.8v-23.8c0-1.2,0.3-2.2,0.8-2.8c0.6-0.6,1.3-0.9,2.2-0.9c0.9,0,1.7,0.3,2.2,0.9
		c0.6,0.6,0.9,1.5,0.9,2.8v23.8c0,1.3-0.3,2.2-0.9,2.8c-0.6,0.6-1.3,0.9-2.2,0.9c-0.9,0-1.6-0.3-2.2-0.9
		C1388,436.9,1387.7,436,1387.7,434.8z"/>
	<path class="st1" d="M1413.9,407.2c3.1,0,5.8,0.6,8.1,1.9c2.2,1.3,3.9,3.1,5.1,5.4c1.2,2.3,1.7,5.1,1.7,8.3c0,2.3-0.3,4.5-0.9,6.4
		c-0.6,1.9-1.6,3.6-2.8,5c-1.3,1.4-2.8,2.5-4.7,3.2c-1.8,0.7-4,1.1-6.3,1.1c-2.4,0-4.5-0.4-6.4-1.1s-3.4-1.8-4.7-3.2s-2.2-3.1-2.8-5
		c-0.6-2-1-4.1-1-6.3c0-2.3,0.3-4.5,1-6.4s1.6-3.6,2.9-4.9s2.8-2.4,4.6-3.1C1409.6,407.6,1411.6,407.2,1413.9,407.2z M1422.6,422.8
		c0-2.2-0.4-4.1-1.1-5.8s-1.7-2.8-3.1-3.7c-1.3-0.8-2.8-1.2-4.6-1.2c-1.2,0-2.4,0.2-3.4,0.7s-1.9,1.1-2.7,2c-0.7,0.9-1.3,2-1.8,3.4
		c-0.4,1.4-0.6,2.9-0.6,4.6c0,1.7,0.2,3.3,0.6,4.7c0.4,1.4,1,2.5,1.8,3.5c0.8,0.9,1.7,1.6,2.7,2.1c1,0.5,2.1,0.7,3.4,0.7
		c1.6,0,3-0.4,4.3-1.2c1.3-0.8,2.4-2,3.1-3.6C1422.3,427.2,1422.6,425.2,1422.6,422.8z"/>
	<path class="st1" d="M1444.9,434.8v-23.8c0-1.2,0.3-2.2,0.8-2.8c0.6-0.6,1.3-0.9,2.2-0.9c0.9,0,1.7,0.3,2.2,0.9
		c0.6,0.6,0.9,1.5,0.9,2.8v23.8c0,1.3-0.3,2.2-0.9,2.8c-0.6,0.6-1.3,0.9-2.2,0.9c-0.9,0-1.6-0.3-2.2-0.9
		C1445.2,436.9,1444.9,436,1444.9,434.8z"/>
	<path class="st1" d="M1465.9,410.9l11.8,17.8v-18c0-1.2,0.3-2,0.8-2.6c0.5-0.6,1.2-0.9,2-0.9c0.9,0,1.6,0.3,2.1,0.9
		c0.5,0.6,0.8,1.5,0.8,2.6v23.8c0,2.7-1.1,4-3.3,4c-0.6,0-1-0.1-1.5-0.2s-0.9-0.4-1.2-0.8c-0.4-0.3-0.7-0.7-1.1-1.2s-0.7-0.9-1-1.4
		l-11.5-17.6V435c0,1.2-0.3,2-0.8,2.6s-1.2,0.9-2.1,0.9c-0.9,0-1.6-0.3-2.1-0.9c-0.5-0.6-0.8-1.5-0.8-2.6v-23.3c0-1,0.1-1.8,0.3-2.3
		c0.3-0.6,0.7-1.1,1.3-1.5c0.6-0.4,1.3-0.6,2-0.6c0.5,0,1,0.1,1.4,0.3c0.4,0.2,0.7,0.4,1,0.7c0.3,0.3,0.6,0.7,0.9,1.2
		C1465.2,409.9,1465.5,410.4,1465.9,410.9z"/>
	<path class="st1" d="M1515.7,428.4c0,1-0.2,2-0.7,3.1c-0.5,1.1-1.2,2.2-2.2,3.3c-1,1.1-2.3,2-3.9,2.6c-1.6,0.7-3.4,1-5.5,1
		c-1.6,0-3-0.2-4.4-0.5c-1.3-0.3-2.5-0.8-3.6-1.4c-1.1-0.6-2-1.5-2.9-2.5c-0.8-0.9-1.5-2-2-3.2c-0.6-1.2-1-2.4-1.3-3.8
		c-0.3-1.3-0.4-2.7-0.4-4.2c0-2.4,0.4-4.6,1.1-6.5c0.7-1.9,1.7-3.6,3-4.9c1.3-1.4,2.9-2.4,4.6-3.1s3.7-1.1,5.7-1.1
		c2.4,0,4.6,0.5,6.5,1.5c1.9,1,3.4,2.2,4.4,3.6c1,1.4,1.5,2.8,1.5,4.1c0,0.7-0.2,1.3-0.7,1.9s-1.1,0.8-1.8,0.8
		c-0.8,0-1.4-0.2-1.8-0.6s-0.8-1-1.3-1.9c-0.8-1.5-1.7-2.6-2.8-3.4c-1.1-0.7-2.4-1.1-4-1.1c-2.5,0-4.5,1-6,2.9
		c-1.5,1.9-2.2,4.6-2.2,8.1c0,2.4,0.3,4.3,1,5.9c0.7,1.6,1.6,2.7,2.8,3.5c1.2,0.8,2.6,1.2,4.2,1.2c1.8,0,3.2-0.4,4.5-1.3
		s2.1-2.2,2.8-3.8c0.3-0.8,0.6-1.4,1-1.9c0.4-0.5,1-0.8,1.9-0.8c0.7,0,1.4,0.3,1.9,0.8S1515.7,427.7,1515.7,428.4z"/>
	<path class="st1" d="M1522.5,438.5c-0.9,0-1.6-0.3-2.2-0.8c-0.6-0.5-0.9-1.3-0.9-2.3c0-0.8,0.3-1.6,0.9-2.2
		c0.6-0.6,1.3-0.9,2.2-0.9c0.9,0,1.6,0.3,2.2,0.9c0.6,0.6,0.9,1.3,0.9,2.2c0,1-0.3,1.7-0.9,2.3
		C1524,438.2,1523.3,438.5,1522.5,438.5z"/>
</g>
</svg>
